<?xml version="1.0" encoding="UTF-8"?><svg id="b" xmlns="http://www.w3.org/2000/svg" viewBox="0 0 986.219 1617.475"><g id="c"><g><rect x="525.053" y="1313.554" width="119.937" height="145.623" fill="#fff" stroke="#241f20" stroke-linejoin="round" stroke-width="24"/><path d="M559.323,1010.455h118.188v307.056h-184.979v-240.265c0-36.863,29.928-66.791,66.791-66.791Z" fill="#fff" stroke="#241f20" stroke-linejoin="round" stroke-width="24"/><g><path d="M473.801,1451.972v50.785h-152.137c-24.326,0-44.046,19.72-44.046,44.046v58.672h400.694v-153.503h-204.511Z" fill="#fff" stroke="#241f20" stroke-linejoin="round" stroke-width="24"/><path d="M437.262,1380.502h77.043c3.895,0,7.057,3.162,7.057,7.057v92.527c0,12.633-10.256,22.889-22.889,22.889h-68.267v-115.416c0-3.895,3.162-7.057,7.057-7.057Z" fill="#fff" stroke="#241f20" stroke-linejoin="round" stroke-width="24"/><line x1="603.599" y1="1451.972" x2="603.599" y2="1554.28" fill="none" stroke="#241f20" stroke-linejoin="round" stroke-width="16"/><path d="M370.756,1605.475v-42.215c0-4.96,4.02-8.98,8.98-8.98h298.577" fill="none" stroke="#241f20" stroke-linejoin="round" stroke-width="16"/></g><line x1="678.018" y1="1229.83" x2="678.018" y2="1129.709" fill="none" stroke="#241f20" stroke-linejoin="round" stroke-width="12"/><line x1="707.836" y1="1229.83" x2="707.836" y2="1129.709" fill="none" stroke="#241f20" stroke-linejoin="round" stroke-width="12"/><rect x="475.6" y="1293.25" width="218.842" height="52.647" fill="#fff" stroke="#241f20" stroke-linejoin="round" stroke-width="24"/><rect x="700.814" y="1313.554" width="119.937" height="145.623" fill="#fff" stroke="#241f20" stroke-linejoin="round" stroke-width="24"/><path d="M668.293,1010.455h118.188c36.863,0,66.791,29.928,66.791,66.791v240.265h-184.979v-307.056h0Z" fill="#fff" stroke="#241f20" stroke-linejoin="round" stroke-width="24"/><rect x="12" y="224.795" width="427.404" height="64.351" fill="#fff" stroke="#241f20" stroke-linejoin="round" stroke-width="24"/><rect x="36.664" y="159.503" width="346.864" height="64.351" fill="#fff" stroke="#241f20" stroke-linejoin="round" stroke-width="24"/><rect x="638.697" y="8" width="61.394" height="37.283" rx="18.641" ry="18.641" fill="#fff" stroke="#241f20" stroke-linejoin="round" stroke-width="16"/><rect x="513.513" y="794.949" width="300" height="170.461" fill="#fff" stroke="#241f20" stroke-linejoin="round" stroke-width="24"/><path d="M754.004,191.678h190.584c16.354,0,29.631,13.277,29.631,29.631h0c0,16.354-13.277,29.631-29.631,29.631h-190.584v-59.263h0Z" fill="#fff" stroke="#241f20" stroke-linejoin="round" stroke-width="24"/><rect x="485.028" y="963.469" width="362.752" height="46.986" rx="23.493" ry="23.493" fill="#fff" stroke="#241f20" stroke-linejoin="round" stroke-width="24"/><g><path d="M206.354,544.262v-133.407h62.763c31.334,0,56.735-25.401,56.735-56.735H157.708c-28.935,0-52.39,23.456-52.39,52.39v137.752c0,55.244,44.339,100.125,99.371,101.014v.021H504.691v-101.036H206.354Z" fill="#fff"/><path d="M206.354,544.262v-133.407h62.763c31.334,0,56.735-25.401,56.735-56.735H157.708c-28.935,0-52.39,23.456-52.39,52.39v137.752c0,55.244,44.339,100.125,99.371,101.014v.021H504.691v-101.036H206.354Z" fill="none" stroke="#241f20" stroke-linejoin="round" stroke-width="24"/></g><path d="M810.945,544.262H458.382v198.15c0,29.766,24.13,53.897,53.897,53.897h405.207v-145.506c0-58.841-47.7-106.541-106.541-106.541Z" fill="#fff" stroke="#241f20" stroke-linejoin="round" stroke-width="24"/><path d="M583.341,35.523h172.105c32.047,0,58.066,26.018,58.066,58.066v121.961h-288.237V93.589c0-32.047,26.018-58.066,58.066-58.066Z" fill="#fff" stroke="#241f20" stroke-linejoin="round" stroke-width="24"/><path d="M650.648,35.523h37.492c19.695,0,35.685,15.99,35.685,35.685V215.55h-108.861V71.208c0-19.695,15.99-35.685,35.685-35.685Z" fill="none" stroke="#241f20" stroke-linejoin="round" stroke-width="12"/><g><path d="M753.104,325.183v-60.286l-237.015,1.914v148.525c0,24.799,20.103,44.902,44.901,44.902l17.727-.177v94.785c0,62.634,39.809,113.217,88.566,112.533h0c48.009-.674,86.652-50.858,86.652-112.533v-229.675l-.832,.011Z" fill="#fff"/><path d="M753.104,325.183v-60.286l-237.015,1.914v148.525c0,24.799,20.103,44.902,44.901,44.902l17.727-.177v94.785c0,62.634,39.809,113.217,88.566,112.533h0c48.009-.674,86.652-50.858,86.652-112.533v-229.675l-.832,.011Z" fill="none" stroke="#241f20" stroke-linejoin="round" stroke-width="24"/></g><circle cx="771.643" cy="541.751" r="47.818" fill="#fff" stroke="#241f20" stroke-linejoin="round" stroke-width="24"/><path d="M473.883,153.905h244.736c29.265,0,53.024,23.759,53.024,53.024v61.156h-222.412c-41.586,0-75.348-33.762-75.348-75.348v-38.832h0Z" transform="translate(1245.526 421.989) rotate(180)" fill="#fff" stroke="#241f20" stroke-linejoin="round" stroke-width="24"/><path d="M620.474,402.249c-7.914,.037-15.272-1.552-22.75-3.643l5.355-.787c-3.191,3.229-6.564,6.234-10.062,9.085-1.872,1.526-4.393,1.728-6.427,.73-5.815-2.867-11.441-6.139-16.717-9.926l4.3-.208c-3.851,1.572-7.858,2.947-11.913,3.922-5.094,1.069-5.009,1.589-1.615-2.619,2.246-2.676,4.751-5.158,7.306-7.519l1.546-1.366c.803-.709,1.877-.915,2.835-.64l1.465,.432c6.223,1.857,12.254,4.306,18.079,7.152l-6.426,.73c3.507-2.841,7.138-5.528,10.952-7.991l.957-.618c1.37-.885,3.058-.892,4.398-.169,6.782,3.782,13.124,7.833,18.718,13.434h0Z" fill="#241f20"/><path d="M607.379,410.854c2.752,4.46-.611,10.535-4.387,13.39-3.983,3.165-8.942,4.534-13.759,4.582-4.818-.034-9.78-1.404-13.767-4.567-3.782-2.852-7.15-8.948-4.379-13.405,4.032,5.729,11.933,5.667,18.146,5.974,6.219-.284,14.121-.225,18.147-5.974h0Z" fill="#241f20"/><path d="M595.831,371.353h-11.355c-6.661,0-12.061-5.4-12.061-12.061v-43.522h-56.326" fill="none" stroke="#241f20" stroke-linejoin="round" stroke-width="12"/><line x1="594.283" y1="315.77" x2="655.174" y2="315.77" fill="none" stroke="#241f20" stroke-linejoin="round" stroke-width="12"/><line x1="578.718" y1="460.237" x2="658.147" y2="460.237" fill="#fff" stroke="#241f20" stroke-linejoin="round" stroke-width="24"/><circle cx="624.729" cy="343.561" r="10.303" fill="#241f20"/><circle cx="544.895" cy="343.561" r="10.303" fill="#241f20"/><path d="M643.945,917.819c10.157-4.39,16.297-12.296,16.46-22.459-.194-10.168-6.304-18.033-16.459-22.459,2.946-1.308,6.362-1.579,9.724-1.013,15.229,2.658,23.067,20.706,16.274,34.243-4.322,9.443-16.142,15.863-25.998,11.687h0Z" fill="#241f20"/><path d="M525.275,159.817v50.647c0,11.245,9.116,20.361,20.361,20.361h220.509" fill="none" stroke="#241f20" stroke-linejoin="round" stroke-width="16"/><path d="M571.794,152.552v24.208c0,9.657,7.828,17.485,17.485,17.485h176.867" fill="none" stroke="#241f20" stroke-linejoin="round" stroke-width="16"/><g><path d="M521.455,739.996h12.702v7.485h-22.398v-39.807h9.696v32.322Z" fill="#241f20"/><path d="M568.462,730.498c1.398,1.796,2.099,3.847,2.099,6.152,0,3.327-1.163,5.963-3.487,7.91-2.325,1.947-5.567,2.92-9.726,2.92h-18.542v-39.807h17.919c4.044,0,7.21,.927,9.498,2.779,2.286,1.853,3.431,4.366,3.431,7.542,0,2.345-.615,4.291-1.844,5.841-1.229,1.551-2.863,2.628-4.904,3.232,2.306,.491,4.158,1.635,5.557,3.431Zm-19.96-6.72h6.352c1.587,0,2.807-.349,3.657-1.049,.851-.699,1.275-1.729,1.275-3.091s-.425-2.4-1.275-3.119c-.851-.717-2.07-1.078-3.657-1.078h-6.352v8.336Zm10.916,14.771c.888-.737,1.332-1.805,1.332-3.204s-.463-2.495-1.389-3.289c-.927-.794-2.203-1.191-3.828-1.191h-7.031v8.789h7.145c1.625,0,2.883-.368,3.771-1.105Z" fill="#241f20"/><path d="M600.556,747.481l-8.108-12.191-7.145,12.191h-11.001l12.759-20.243-13.042-19.563h11.284l7.995,12.021,7.031-12.021h11.001l-12.646,20.074,13.155,19.733h-11.284Z" fill="#241f20"/></g><path d="M495.33,695.312h125.466v65.304h-110.072c-8.496,0-15.393-6.898-15.393-15.393v-49.91h0Z" fill="none" stroke="#241f20" stroke-linejoin="round" stroke-width="12"/><rect x="30.978" y="289.768" width="427.404" height="64.351" fill="#fff" stroke="#241f20" stroke-linejoin="round" stroke-width="24"/><rect x="15.963" y="224.795" width="427.404" height="64.351" fill="#fff" stroke="#241f20" stroke-linejoin="round" stroke-width="24"/><line x1="98.506" y1="191.678" x2="264.031" y2="191.678" fill="none" stroke="#241f20" stroke-linejoin="round" stroke-width="12"/><line x1="178.994" y1="256.811" x2="402.175" y2="256.811" fill="none" stroke="#241f20" stroke-linejoin="round" stroke-width="12"/><line x1="73.306" y1="321.632" x2="296.487" y2="321.632" fill="none" stroke="#241f20" stroke-linejoin="round" stroke-width="12"/><g><path d="M178.564,125.536c0-12.464,12-12.464,12-24.927,0-12.464-12-12.463-12-24.927,0-12.464,12-12.464,12-24.928,0-12.466-12-12.466-12-24.932s12-12.466,12-24.932" fill="none" stroke="#241f20" stroke-linejoin="round" stroke-width="20"/><path d="M123.643,125.536c0-12.464,12-12.464,12-24.927,0-12.464-12-12.463-12-24.927,0-12.464,12-12.464,12-24.928,0-12.466-12-12.466-12-24.932s12-12.466,12-24.932" fill="none" stroke="#241f20" stroke-linejoin="round" stroke-width="20"/><path d="M288.406,125.536c0-12.464,12-12.464,12-24.927,0-12.464-12-12.463-12-24.927,0-12.464,12-12.464,12-24.928,0-12.466-12-12.466-12-24.932s12-12.466,12-24.932" fill="none" stroke="#241f20" stroke-linejoin="round" stroke-width="20"/><path d="M343.327,125.536c0-12.464,12-12.464,12-24.927,0-12.464-12-12.463-12-24.927,0-12.464,12-12.464,12-24.928,0-12.466-12-12.466-12-24.932,0-12.466,12-12.466,12-24.932" fill="none" stroke="#241f20" stroke-linejoin="round" stroke-width="20"/><path d="M233.485,125.536c0-12.464,12-12.464,12-24.927,0-12.464-12-12.463-12-24.927,0-12.464,12-12.464,12-24.928,0-12.466-12-12.466-12-24.932s12-12.466,12-24.932" fill="none" stroke="#241f20" stroke-linejoin="round" stroke-width="20"/></g><g><line x1="373.87" y1="544.262" x2="373.87" y2="550.262" fill="none" stroke="#241f20" stroke-linejoin="round" stroke-width="12"/><line x1="373.87" y1="562.357" x2="373.87" y2="628.88" fill="none" stroke="#241f20" stroke-dasharray="0 0 12.095 12.095" stroke-linejoin="round" stroke-width="12"/><line x1="373.87" y1="634.928" x2="373.87" y2="640.928" fill="none" stroke="#241f20" stroke-linejoin="round" stroke-width="12"/></g><line x1="344.648" y1="544.262" x2="344.648" y2="640.928" fill="none" stroke="#241f20" stroke-linejoin="round" stroke-width="12"/><line x1="401.515" y1="544.262" x2="401.515" y2="640.928" fill="none" stroke="#241f20" stroke-linejoin="round" stroke-width="12"/><g><line x1="315.427" y1="544.262" x2="315.427" y2="550.262" fill="none" stroke="#241f20" stroke-linejoin="round" stroke-width="12"/><line x1="315.427" y1="562.357" x2="315.427" y2="628.88" fill="none" stroke="#241f20" stroke-dasharray="0 0 12.095 12.095" stroke-linejoin="round" stroke-width="12"/><line x1="315.427" y1="634.928" x2="315.427" y2="640.928" fill="none" stroke="#241f20" stroke-linejoin="round" stroke-width="12"/></g><g><line x1="578.718" y1="514.807" x2="584.718" y2="514.807" fill="none" stroke="#241f20" stroke-linejoin="round" stroke-width="12"/><line x1="595.844" y1="514.807" x2="723.795" y2="514.807" fill="none" stroke="#241f20" stroke-dasharray="0 0 11.126 11.126" stroke-linejoin="round" stroke-width="12"/><line x1="729.359" y1="514.807" x2="735.359" y2="514.807" fill="none" stroke="#241f20" stroke-linejoin="round" stroke-width="12"/></g><line x1="578.718" y1="544.262" x2="735.359" y2="544.262" fill="none" stroke="#241f20" stroke-linejoin="round" stroke-width="12"/><g><circle cx="771.643" cy="545.934" r="47.818" fill="#fff" stroke="#241f20" stroke-linejoin="round" stroke-width="24"/><circle cx="771.643" cy="629.298" r="35.546" fill="#fff" stroke="#241f20" stroke-linejoin="round" stroke-width="24"/><circle cx="771.643" cy="439.976" r="58.139" fill="#fff" stroke="#241f20" stroke-linejoin="round" stroke-width="24"/><circle cx="771.643" cy="439.976" r="23.377" fill="none" stroke="#241f20" stroke-linejoin="round" stroke-width="12"/><circle cx="771.643" cy="545.934" r="18.492" fill="none" stroke="#241f20" stroke-linejoin="round" stroke-width="12"/><circle cx="771.643" cy="629.151" r="11.777" fill="none" stroke="#241f20" stroke-linejoin="round" stroke-width="8"/><circle cx="771.643" cy="291.461" r="90.376" fill="#fff" stroke="#241f20" stroke-linejoin="round" stroke-width="24"/><circle cx="771.643" cy="291.461" r="57.022" fill="none" stroke="#241f20" stroke-linejoin="round" stroke-width="12"/><circle cx="771.643" cy="291.461" r="23.377" fill="none" stroke="#241f20" stroke-linejoin="round" stroke-width="12"/></g><line x1="360.468" y1="503" x2="239.485" y2="503" fill="none" stroke="#241f20" stroke-linecap="round" stroke-linejoin="round" stroke-width="12"/><line x1="311.999" y1="473.055" x2="239.485" y2="473.055" fill="none" stroke="#241f20" stroke-linecap="round" stroke-linejoin="round" stroke-width="12"/><line x1="277.306" y1="443.11" x2="239.485" y2="443.11" fill="none" stroke="#241f20" stroke-linecap="round" stroke-linejoin="round" stroke-width="12"/><g><path d="M649.563,1451.972v50.785h-152.137c-24.326,0-44.046,19.72-44.046,44.046v58.672h400.694v-153.503h-204.511Z" fill="#fff" stroke="#241f20" stroke-linejoin="round" stroke-width="24"/><path d="M613.023,1380.502h77.043c3.895,0,7.057,3.162,7.057,7.057v92.527c0,12.633-10.256,22.889-22.889,22.889h-68.267v-115.416c0-3.895,3.162-7.057,7.057-7.057Z" fill="#fff" stroke="#241f20" stroke-linejoin="round" stroke-width="24"/><line x1="779.361" y1="1451.972" x2="779.361" y2="1554.28" fill="none" stroke="#241f20" stroke-linejoin="round" stroke-width="16"/><path d="M546.517,1605.475v-42.215c0-4.96,4.02-8.98,8.98-8.98h298.577" fill="none" stroke="#241f20" stroke-linejoin="round" stroke-width="16"/></g><path d="M857.32,719.566h60.165v449.402h-101.036v-408.532c0-22.557,18.313-40.87,40.87-40.87Z" transform="translate(1733.936 1888.533) rotate(-180)" fill="#fff" stroke="#241f20" stroke-linejoin="round" stroke-width="24"/><line x1="853.779" y1="1163.983" x2="853.779" y2="1063.862" fill="none" stroke="#241f20" stroke-linejoin="round" stroke-width="12"/><line x1="883.597" y1="1163.983" x2="883.597" y2="1063.862" fill="none" stroke="#241f20" stroke-linejoin="round" stroke-width="12"/><rect x="804.221" y="889.606" width="125.495" height="76.115" rx="7.788" ry="7.788" fill="#fff" stroke="#241f20" stroke-linejoin="round" stroke-width="24"/><rect x="651.362" y="1293.25" width="218.842" height="52.647" fill="#fff" stroke="#241f20" stroke-linejoin="round" stroke-width="24"/><line x1="768.783" y1="1010.455" x2="768.783" y2="1286.609" fill="none" stroke="#241f20" stroke-linejoin="round" stroke-width="16"/></g></g></svg>