<?xml version="1.0" encoding="UTF-8"?><svg id="b" xmlns="http://www.w3.org/2000/svg" xmlns:xlink="http://www.w3.org/1999/xlink" viewBox="0 0 237.121 282.127"><defs><clipPath id="d"><path d="M168.858,192.313h0c8.541,0,15.475,6.934,15.475,15.475v11.911h-21.869c-5.011,0-9.08-4.069-9.08-9.08v-2.831c0-8.541,6.934-15.475,15.475-15.475Z" transform="translate(337.716 412.011) rotate(180)" fill="#241f20" stroke="#241f20" stroke-linejoin="round" stroke-width="4.879"/></clipPath><clipPath id="e"><path d="M138.073,192.313h0c8.541,0,15.475,6.934,15.475,15.475v3.079c0,4.875-3.958,8.832-8.832,8.832h-22.117v-11.911c0-8.541,6.934-15.475,15.475-15.475Z" transform="translate(276.146 412.011) rotate(180)" fill="#241f20" stroke="#241f20" stroke-linejoin="round" stroke-width="4.879"/></clipPath><clipPath id="f"><path d="M110.349,149.822h-35.927c-26.932,0-48.765,21.833-48.765,48.766v14.597c0,23.387,18.959,42.346,42.346,42.346h0c23.387,0,42.346-18.959,42.346-42.346v-32.916h15.394c16.815,0,30.446-13.631,30.446-30.446h-45.84Z" fill="#fff" stroke="#241f20" stroke-linejoin="round" stroke-width="9.759"/></clipPath></defs><g id="c"><g><path d="M56.486,148.449h122.624v84.017c0,19.127-15.528,34.655-34.655,34.655h-53.314c-19.127,0-34.655-15.528-34.655-34.655v-84.017h0Z" fill="#fff" stroke="#241f20" stroke-linejoin="round" stroke-width="9.759"/><path d="M171.412,149.822h.172c16.803,0,30.446,13.642,30.446,30.446h-30.617c-8.402,0-15.223-6.821-15.223-15.223h0c0-8.402,6.821-15.223,15.223-15.223Z" transform="translate(358.218 330.09) rotate(180)" fill="#fff" stroke="#241f20" stroke-linejoin="round" stroke-width="9.759"/><path d="M156.975,202.676v19.533c0,6.823-5.531,12.355-12.355,12.355h0" fill="none" stroke="#241f20" stroke-linejoin="round" stroke-width="6.506"/><rect x="107.202" y="197.959" width="15.396" height="8.047" fill="#241f20" stroke="#241f20" stroke-linejoin="round" stroke-width="3.253"/><line x1="135.658" y1="247.104" x2="153.581" y2="247.104" fill="none" stroke="#241f20" stroke-linejoin="round" stroke-width="6.506"/><g><path d="M168.858,192.313h0c8.541,0,15.475,6.934,15.475,15.475v11.911h-21.869c-5.011,0-9.08-4.069-9.08-9.08v-2.831c0-8.541,6.934-15.475,15.475-15.475Z" transform="translate(337.716 412.011) rotate(180)" fill="#241f20"/><g clip-path="url(#d)"><line x1="184.587" y1="216.754" x2="165.856" y2="190.357" fill="none" stroke="#fff" stroke-linejoin="round" stroke-width="1.626"/><line x1="180.817" y1="220.524" x2="159.045" y2="189.842" fill="none" stroke="#fff" stroke-linejoin="round" stroke-width="3.253"/></g><path d="M168.858,192.313h0c8.541,0,15.475,6.934,15.475,15.475v11.911h-21.869c-5.011,0-9.08-4.069-9.08-9.08v-2.831c0-8.541,6.934-15.475,15.475-15.475Z" transform="translate(337.716 412.011) rotate(180)" fill="none" stroke="#241f20" stroke-linejoin="round" stroke-width="4.879"/></g><g><path d="M138.073,192.313h0c8.541,0,15.475,6.934,15.475,15.475v3.079c0,4.875-3.958,8.832-8.832,8.832h-22.117v-11.911c0-8.541,6.934-15.475,15.475-15.475Z" transform="translate(276.146 412.011) rotate(180)" fill="#241f20"/><g clip-path="url(#e)"><line x1="153.802" y1="216.754" x2="135.071" y2="190.357" fill="none" stroke="#fff" stroke-linejoin="round" stroke-width="1.626"/><line x1="150.032" y1="220.524" x2="128.26" y2="189.842" fill="none" stroke="#fff" stroke-linejoin="round" stroke-width="3.253"/></g><path d="M138.073,192.313h0c8.541,0,15.475,6.934,15.475,15.475v3.079c0,4.875-3.958,8.832-8.832,8.832h-22.117v-11.911c0-8.541,6.934-15.475,15.475-15.475Z" transform="translate(276.146 412.011) rotate(180)" fill="none" stroke="#241f20" stroke-linejoin="round" stroke-width="4.879"/></g><g><polygon points="143.42 85.625 75.1 128.362 173.799 128.362 232.241 63.614 143.42 85.625" fill="#fff"/><polygon points="143.42 85.625 75.1 128.362 173.799 128.362 232.241 63.614 143.42 85.625" fill="none" stroke="#241f20" stroke-linejoin="round" stroke-width="9.759"/></g><g><polygon points="93.7 85.625 4.879 63.614 63.321 128.362 162.021 128.362 93.7 85.625" fill="#fff"/><polygon points="93.7 85.625 4.879 63.614 63.321 128.362 162.021 128.362 93.7 85.625" fill="none" stroke="#241f20" stroke-linejoin="round" stroke-width="9.759"/></g><polygon points="75.1 128.403 118.56 4.879 159.858 128.403 75.1 128.403" fill="#fff" stroke="#241f20" stroke-linejoin="round" stroke-width="9.759"/><circle cx="96.087" cy="91.33" r="10.176" fill="#fff" stroke="#241f20" stroke-linejoin="round" stroke-width="6"/><circle cx="127.328" cy="66.947" r="12.691" fill="#fff" stroke="#241f20" stroke-linejoin="round" stroke-width="6"/><circle cx="127.328" cy="107.907" r="10.176" fill="#fff" stroke="#241f20" stroke-linejoin="round" stroke-width="6"/><path d="M131.187,107.814c-.688-2.87-4.086-4.077-6.065-2.099-1.973,1.983-.771,5.37,2.098,6.065-4.086,.972-6.547-4.618-3.512-7.478,2.864-3.03,8.445-.573,7.478,3.512h0Z" fill="#241f20"/><path d="M133.625,66.746c-.643-4.765-6.571-7.039-9.837-3.661-3.372,3.269-1.102,9.188,3.661,9.837-4.142,.768-7.82-3.524-6.986-7.564,1.562-8.242,13.951-7.173,13.162,1.389h0Z" fill="#241f20"/><circle cx="53.831" cy="109.11" r="12.691" fill="#fff" stroke="#241f20" stroke-linejoin="round" stroke-width="6"/><path d="M60.304,108.917c-.639-4.908-6.757-7.261-10.121-3.778-3.477,3.365-1.128,9.476,3.779,10.12-4.244,.77-8.005-3.624-7.149-7.764,1.606-8.436,14.273-7.34,13.492,1.422h0Z" fill="#241f20"/><circle cx="43.775" cy="73.955" r="10.964" fill="#fff" stroke="#241f20" stroke-linejoin="round" stroke-width="6"/><path d="M47.935,73.682c-.686-3.032-4.298-4.329-6.387-2.231-2.091,2.095-.799,5.694,2.232,6.388-4.283,.966-6.773-4.84-3.645-7.802,2.98-3.146,8.766-.607,7.801,3.646h0Z" fill="#241f20"/><path d="M99.703,91.221c-1.201-4.41-7.41-3.367-6.48,1.133,.308,1.13,1.263,2.188,2.737,2.609-3.888,.974-6.249-4.372-3.353-7.096,2.727-2.891,8.064-.534,7.096,3.354h0Z" fill="#241f20"/><circle cx="180.209" cy="114.07" r="12.564" fill="#fff" stroke="#241f20" stroke-linejoin="round" stroke-width="6"/><path d="M185.808,113.962c-.653-4.376-6.065-6.435-9.067-3.342-3.088,3.004-1.032,8.408,3.342,9.067-3.865,.763-7.319-3.254-6.543-7.026,1.441-7.715,13.079-6.713,12.268,1.301h0Z" fill="#241f20"/><g><path d="M81.956,237.888c-11.544,0-20.9,9.356-20.9,20.9s9.356,20.9,20.9,20.9,20.9-9.356,20.9-20.9-9.36-20.9-20.9-20.9Z" fill="#fff" stroke="#241f20" stroke-linejoin="round" stroke-width="4.879"/><path d="M81.956,246.964c-6.531,0-11.824,5.293-11.824,11.824s5.293,11.824,11.824,11.824,11.824-5.293,11.824-11.824-5.296-11.824-11.824-11.824Z" fill="#fff" stroke="#241f20" stroke-linejoin="round" stroke-width="4.879"/></g><g><path d="M110.349,149.822h-35.927c-26.932,0-48.765,21.833-48.765,48.766v14.597c0,23.387,18.959,42.346,42.346,42.346h0c23.387,0,42.346-18.959,42.346-42.346v-32.916h15.394c16.815,0,30.446-13.631,30.446-30.446h-45.84Z" fill="#fff"/><g clip-path="url(#f)"><g><path d="M65.618,149.822h29.441v51.922c0,19.152-15.549,34.701-34.701,34.701h0c-19.152,0-34.701-15.549-34.701-34.701v-11.961c0-22.055,17.906-39.961,39.961-39.961Z" fill="none" stroke="#241f20" stroke-linejoin="round" stroke-width="4.879"/><path d="M57.892,149.822h23.749v41.884c0,15.449-12.543,27.992-27.992,27.992h0c-15.449,0-27.992-12.543-27.992-27.992v-9.649c0-17.791,14.444-32.236,32.236-32.236Z" fill="none" stroke="#241f20" stroke-linejoin="round" stroke-width="4.879"/><path d="M49.694,149.822h17.709v31.232c0,11.52-9.353,20.873-20.873,20.873h0c-11.52,0-20.873-9.353-20.873-20.873v-7.195c0-13.267,10.771-24.037,24.037-24.037Z" fill="none" stroke="#241f20" stroke-linejoin="round" stroke-width="4.879"/></g></g><path d="M110.349,149.822h-35.927c-26.932,0-48.765,21.833-48.765,48.766v14.597c0,23.387,18.959,42.346,42.346,42.346h0c23.387,0,42.346-18.959,42.346-42.346v-32.916h15.394c16.815,0,30.446-13.631,30.446-30.446h-45.84Z" fill="none" stroke="#241f20" stroke-linejoin="round" stroke-width="9.759"/></g><rect x="43.775" y="129.169" width="149.57" height="20.653" rx="10.326" ry="10.326" fill="#fff" stroke="#241f20" stroke-linejoin="round" stroke-width="9.759"/><g><line x1="170.869" y1="149.539" x2="170.869" y2="129.452" fill="none" stroke="#241f20" stroke-linejoin="round" stroke-width="4"/><line x1="145.285" y1="149.539" x2="145.285" y2="129.452" fill="none" stroke="#241f20" stroke-linejoin="round" stroke-width="4"/><line x1="119.701" y1="149.539" x2="119.701" y2="129.452" fill="none" stroke="#241f20" stroke-linejoin="round" stroke-width="4"/><line x1="94.117" y1="149.539" x2="94.117" y2="129.452" fill="none" stroke="#241f20" stroke-linejoin="round" stroke-width="4"/><line x1="68.533" y1="149.539" x2="68.533" y2="129.452" fill="none" stroke="#241f20" stroke-linejoin="round" stroke-width="4"/></g><circle cx="185.293" cy="76.097" r="10.964" fill="#fff" stroke="#241f20" stroke-linejoin="round" stroke-width="6"/><path d="M189.773,75.846c-.682-3.288-4.631-4.727-6.895-2.442-2.278,2.268-.845,6.207,2.442,6.895-4.547,.964-7.169-5.164-3.856-8.309,3.162-3.333,9.273-.659,8.309,3.856h0Z" fill="#241f20"/></g></g></svg>