<?xml version="1.0" encoding="UTF-8"?><svg id="b" xmlns="http://www.w3.org/2000/svg" xmlns:xlink="http://www.w3.org/1999/xlink" viewBox="0 0 322.096 322.096"><defs><clipPath id="d"><path d="M211.346,212.297h0c8.541,0,15.475,6.934,15.475,15.475v11.911h-21.869c-5.011,0-9.08-4.069-9.08-9.08v-2.831c0-8.541,6.934-15.475,15.475-15.475Z" transform="translate(422.692 451.98) rotate(180)" fill="#241f20" stroke="#241f20" stroke-linejoin="round" stroke-width="4.879"/></clipPath><clipPath id="e"><path d="M180.561,212.297h0c8.541,0,15.475,6.934,15.475,15.475v3.079c0,4.875-3.958,8.832-8.832,8.832h-22.117v-11.911c0-8.541,6.934-15.475,15.475-15.475Z" transform="translate(361.122 451.98) rotate(180)" fill="#241f20" stroke="#241f20" stroke-linejoin="round" stroke-width="4.879"/></clipPath><clipPath id="f"><path d="M152.837,169.806h-35.927c-26.932,0-48.765,21.833-48.765,48.766v14.597c0,23.387,18.959,42.346,42.346,42.346h0c23.387,0,42.346-18.959,42.346-42.346v-32.916h15.394c16.815,0,30.446-13.631,30.446-30.446h-45.84Z" fill="#fff" stroke="#241f20" stroke-linejoin="round" stroke-width="9.759"/></clipPath></defs><g id="c"><g><path d="M124.444,310.112c-14.951,0-27.362-10.255-30.542-24.267-22.699-7.157-38.636-28.455-38.636-52.677v-14.597c0-18.337,7.931-35.251,21.615-46.876-2.246-3.614-3.497-7.833-3.497-12.216,0-5.493,1.937-10.613,5.214-14.639-3.367-3.783-5.51-8.644-5.905-13.961l-34.887-38.652c-3.818-4.231-4.416-10.359-1.488-15.248,2.316-3.863,6.549-6.262,11.049-6.262,1.043,0,2.087,.128,3.101,.379l22.296,5.526c3.814-2.996,8.52-4.647,13.499-4.647,8.842,0,16.567,5.206,20.028,12.955l18.369,4.553,24.24-68.895c1.811-5.146,6.693-8.604,12.148-8.604,5.602,.041,10.472,3.576,12.216,8.797l23.061,68.978,11.506-2.852c3.507-7.649,11.205-12.79,19.951-12.79,4.908,0,9.564,1.611,13.356,4.536l30.494-7.557c1.014-.252,2.055-.379,3.097-.379,4.5,0,8.733,2.398,11.048,6.259,2.93,4.893,2.333,11.02-1.486,15.251l-38.031,42.135c-.048,3.739-.977,7.354-2.666,10.584,3.261,4.05,5.119,9.146,5.119,14.533,0,1.611-.17,3.214-.504,4.781,5.787,5.252,9.188,12.733,9.188,20.769,0,13.497-9.563,24.802-22.271,27.493,1.393,2.727,2.135,5.761,2.135,8.854v2.831c0,4.054-.957,8.033-2.784,11.645v16.599c0,26.21-21.324,47.533-47.535,47.533h-39.448c-5.897,6.406-14.236,10.127-23.05,10.127Z" fill="#fff"/><path d="M278.915,81.09c-1.103-1.839-3.278-2.744-5.359-2.229l-34.794,8.623c-2.558-3.261-6.524-5.367-10.981-5.367-6.855,0-12.559,4.969-13.731,11.491l-22.971,5.692-25.404-75.984c-.661-1.978-2.505-3.316-4.589-3.332h-.039c-2.068,0-3.915,1.306-4.602,3.26l-26.653,75.753-29.775-7.379c-1.111-6.596-6.847-11.643-13.755-11.643-4.511,0-8.518,2.16-11.073,5.49l-26.65-6.604c-2.08-.517-4.257,.39-5.359,2.229-1.103,1.841-.874,4.185,.563,5.777l36.948,40.936c-.035,.427-.065,.855-.065,1.292,0,7.768,5.679,14.218,13.1,15.459-7.02,1.344-12.343,7.521-12.343,14.926,0,5.667,3.122,10.609,7.73,13.225-15.485,9.419-25.848,26.456-25.848,45.867v14.597c0,22.833,16.289,41.93,37.856,46.288,.364,12.554,10.682,22.655,23.322,22.655,7.968,0,15.013-4.016,19.226-10.127h43.272c21.799,0,39.535-17.734,39.535-39.533v-18.694c1.753-2.768,2.784-6.037,2.784-9.549v-2.831c0-2.858-1.053-5.472-2.784-7.488v-8.867c.875,.065,1.755,.109,2.646,.109h.171c11.084,0,20.103-9.018,20.103-20.102,0-7.736-4.4-14.454-10.823-17.813,1.349-2.27,2.138-4.909,2.138-7.736,0-5.82-3.29-10.88-8.104-13.436,3.451-2.856,5.653-7.171,5.653-11.99,0-.86-.088-1.699-.223-2.522l40.314-44.664c1.438-1.593,1.666-3.937,.563-5.777Z" fill="#241f20"/><g><path d="M98.973,168.434h122.624v84.017c0,19.127-15.528,34.655-34.655,34.655h-53.314c-19.127,0-34.655-15.528-34.655-34.655v-84.017h0Z" fill="#fff" stroke="#241f20" stroke-linejoin="round" stroke-width="9.759"/><path d="M213.9,169.807h.172c16.803,0,30.446,13.642,30.446,30.446h-30.617c-8.402,0-15.223-6.821-15.223-15.223h0c0-8.402,6.821-15.223,15.223-15.223Z" transform="translate(443.194 370.059) rotate(180)" fill="#fff" stroke="#241f20" stroke-linejoin="round" stroke-width="9.759"/><path d="M199.462,222.661v19.533c0,6.823-5.531,12.355-12.355,12.355h0" fill="none" stroke="#241f20" stroke-linejoin="round" stroke-width="6.506"/><rect x="149.69" y="217.943" width="15.396" height="8.047" fill="#241f20" stroke="#241f20" stroke-linejoin="round" stroke-width="3.253"/><line x1="178.146" y1="267.089" x2="196.069" y2="267.089" fill="none" stroke="#241f20" stroke-linejoin="round" stroke-width="6.506"/><g><path d="M211.346,212.297h0c8.541,0,15.475,6.934,15.475,15.475v11.911h-21.869c-5.011,0-9.08-4.069-9.08-9.08v-2.831c0-8.541,6.934-15.475,15.475-15.475Z" transform="translate(422.692 451.98) rotate(180)" fill="#241f20"/><g clip-path="url(#d)"><line x1="227.075" y1="236.738" x2="208.344" y2="210.342" fill="none" stroke="#fff" stroke-linejoin="round" stroke-width="1.626"/><line x1="223.304" y1="240.509" x2="201.533" y2="209.826" fill="none" stroke="#fff" stroke-linejoin="round" stroke-width="3.253"/></g><path d="M211.346,212.297h0c8.541,0,15.475,6.934,15.475,15.475v11.911h-21.869c-5.011,0-9.08-4.069-9.08-9.08v-2.831c0-8.541,6.934-15.475,15.475-15.475Z" transform="translate(422.692 451.98) rotate(180)" fill="none" stroke="#241f20" stroke-linejoin="round" stroke-width="4.879"/></g><g><path d="M180.561,212.297h0c8.541,0,15.475,6.934,15.475,15.475v3.079c0,4.875-3.958,8.832-8.832,8.832h-22.117v-11.911c0-8.541,6.934-15.475,15.475-15.475Z" transform="translate(361.122 451.98) rotate(180)" fill="#241f20"/><g clip-path="url(#e)"><line x1="196.29" y1="236.738" x2="177.559" y2="210.342" fill="none" stroke="#fff" stroke-linejoin="round" stroke-width="1.626"/><line x1="192.519" y1="240.509" x2="170.748" y2="209.826" fill="none" stroke="#fff" stroke-linejoin="round" stroke-width="3.253"/></g><path d="M180.561,212.297h0c8.541,0,15.475,6.934,15.475,15.475v3.079c0,4.875-3.958,8.832-8.832,8.832h-22.117v-11.911c0-8.541,6.934-15.475,15.475-15.475Z" transform="translate(361.122 451.98) rotate(180)" fill="none" stroke="#241f20" stroke-linejoin="round" stroke-width="4.879"/></g><g><polygon points="185.908 105.609 117.587 148.347 216.287 148.347 274.729 83.598 185.908 105.609" fill="#fff"/><polygon points="185.908 105.609 117.587 148.347 216.287 148.347 274.729 83.598 185.908 105.609" fill="none" stroke="#241f20" stroke-linejoin="round" stroke-width="9.759"/></g><g><polygon points="136.188 105.609 47.367 83.598 105.809 148.347 204.509 148.347 136.188 105.609" fill="#fff"/><polygon points="136.188 105.609 47.367 83.598 105.809 148.347 204.509 148.347 136.188 105.609" fill="none" stroke="#241f20" stroke-linejoin="round" stroke-width="9.759"/></g><polygon points="117.587 148.387 161.048 24.864 202.346 148.387 117.587 148.387" fill="#fff" stroke="#241f20" stroke-linejoin="round" stroke-width="9.759"/><circle cx="138.574" cy="111.314" r="10.176" fill="#fff" stroke="#241f20" stroke-linejoin="round" stroke-width="6"/><circle cx="169.816" cy="86.932" r="12.691" fill="#fff" stroke="#241f20" stroke-linejoin="round" stroke-width="6"/><circle cx="169.816" cy="127.891" r="10.176" fill="#fff" stroke="#241f20" stroke-linejoin="round" stroke-width="6"/><path d="M173.675,127.798c-.688-2.871-4.086-4.076-6.065-2.098-1.972,1.982-.771,5.37,2.098,6.064-4.087,.973-6.546-4.618-3.512-7.478,2.863-3.029,8.445-.572,7.478,3.512h0Z" fill="#241f20"/><path d="M176.113,86.73c-.643-4.763-6.572-7.039-9.837-3.66-3.372,3.269-1.101,9.188,3.661,9.837-4.142,.767-7.821-3.525-6.986-7.565,1.562-8.242,13.95-7.172,13.162,1.389h0Z" fill="#241f20"/><circle cx="96.319" cy="129.095" r="12.691" fill="#fff" stroke="#241f20" stroke-linejoin="round" stroke-width="6"/><path d="M102.792,128.901c-.639-4.908-6.757-7.26-10.121-3.778-3.477,3.367-1.127,9.477,3.779,10.121-4.244,.769-8.005-3.624-7.149-7.764,1.606-8.436,14.272-7.341,13.492,1.421h0Z" fill="#241f20"/><circle cx="86.263" cy="93.94" r="10.964" fill="#fff" stroke="#241f20" stroke-linejoin="round" stroke-width="6"/><path d="M90.423,93.667c-.686-3.033-4.298-4.328-6.387-2.231-2.091,2.092-.799,5.695,2.232,6.387-4.282,.967-6.774-4.839-3.645-7.801,2.98-3.148,8.766-.607,7.801,3.646h0Z" fill="#241f20"/><path d="M142.19,111.205c-.69-2.678-3.835-3.778-5.683-1.939-1.832,1.851-.737,4.985,1.94,5.683-3.888,.974-6.249-4.373-3.353-7.097,2.726-2.89,8.064-.532,7.096,3.354h0Z" fill="#241f20"/><circle cx="222.697" cy="134.054" r="12.564" fill="#fff" stroke="#241f20" stroke-linejoin="round" stroke-width="6"/><path d="M228.296,133.947c-.653-4.376-6.066-6.436-9.067-3.342-3.088,3.003-1.032,8.408,3.342,9.066-3.865,.765-7.318-3.253-6.543-7.025,1.44-7.714,13.079-6.714,12.268,1.301h0Z" fill="#241f20"/><g><path d="M124.444,257.873c-11.544,0-20.9,9.356-20.9,20.9s9.356,20.9,20.9,20.9,20.9-9.356,20.9-20.9-9.36-20.9-20.9-20.9Z" fill="#fff" stroke="#241f20" stroke-linejoin="round" stroke-width="4.879"/><path d="M124.444,266.948c-6.531,0-11.824,5.293-11.824,11.824s5.293,11.824,11.824,11.824,11.824-5.293,11.824-11.824-5.296-11.824-11.824-11.824Z" fill="#fff" stroke="#241f20" stroke-linejoin="round" stroke-width="4.879"/></g><g><path d="M152.837,169.806h-35.927c-26.932,0-48.765,21.833-48.765,48.766v14.597c0,23.387,18.959,42.346,42.346,42.346h0c23.387,0,42.346-18.959,42.346-42.346v-32.916h15.394c16.815,0,30.446-13.631,30.446-30.446h-45.84Z" fill="#fff"/><g clip-path="url(#f)"><g><path d="M108.106,169.807h29.441v51.922c0,19.152-15.549,34.701-34.701,34.701h0c-19.152,0-34.701-15.549-34.701-34.701v-11.961c0-22.055,17.906-39.961,39.961-39.961Z" fill="none" stroke="#241f20" stroke-linejoin="round" stroke-width="4.879"/><path d="M100.38,169.807h23.749v41.884c0,15.449-12.543,27.992-27.992,27.992h0c-15.449,0-27.992-12.543-27.992-27.992v-9.649c0-17.791,14.444-32.236,32.236-32.236Z" fill="none" stroke="#241f20" stroke-linejoin="round" stroke-width="4.879"/><path d="M92.182,169.807h17.709v31.232c0,11.52-9.353,20.873-20.873,20.873h0c-11.52,0-20.873-9.353-20.873-20.873v-7.195c0-13.267,10.771-24.037,24.037-24.037Z" fill="none" stroke="#241f20" stroke-linejoin="round" stroke-width="4.879"/></g></g><path d="M152.837,169.806h-35.927c-26.932,0-48.765,21.833-48.765,48.766v14.597c0,23.387,18.959,42.346,42.346,42.346h0c23.387,0,42.346-18.959,42.346-42.346v-32.916h15.394c16.815,0,30.446-13.631,30.446-30.446h-45.84Z" fill="none" stroke="#241f20" stroke-linejoin="round" stroke-width="9.759"/></g><rect x="86.263" y="149.153" width="149.57" height="20.653" rx="10.326" ry="10.326" fill="#fff" stroke="#241f20" stroke-linejoin="round" stroke-width="9.759"/><g><line x1="213.356" y1="169.524" x2="213.356" y2="149.436" fill="none" stroke="#241f20" stroke-linejoin="round" stroke-width="4"/><line x1="187.773" y1="169.524" x2="187.773" y2="149.436" fill="none" stroke="#241f20" stroke-linejoin="round" stroke-width="4"/><line x1="162.189" y1="169.524" x2="162.189" y2="149.436" fill="none" stroke="#241f20" stroke-linejoin="round" stroke-width="4"/><line x1="136.605" y1="169.524" x2="136.605" y2="149.436" fill="none" stroke="#241f20" stroke-linejoin="round" stroke-width="4"/><line x1="111.021" y1="169.524" x2="111.021" y2="149.436" fill="none" stroke="#241f20" stroke-linejoin="round" stroke-width="4"/></g><circle cx="227.781" cy="96.082" r="10.964" fill="#fff" stroke="#241f20" stroke-linejoin="round" stroke-width="6"/><path d="M232.26,95.83c-.682-3.288-4.631-4.726-6.895-2.441-2.278,2.267-.844,6.208,2.442,6.894-4.546,.966-7.169-5.163-3.856-8.309,3.163-3.333,9.273-.661,8.309,3.855h0Z" fill="#241f20"/></g></g><rect y="0" width="322.096" height="322.096" fill="none"/></g></svg>