<?xml version="1.0" encoding="utf-8"?>
<!-- Generator: Adobe Illustrator 26.4.1, SVG Export Plug-In . SVG Version: 6.00 Build 0)  -->
<svg version="1.1" id="b" xmlns="http://www.w3.org/2000/svg" xmlns:xlink="http://www.w3.org/1999/xlink" x="0px" y="0px"
	 viewBox="0 0 1276.1 386.4" style="enable-background:new 0 0 1276.1 386.4;" xml:space="preserve">
<style type="text/css">
	.st0{fill:#231F20;}
	.st1{fill:#FFFFFF;stroke:#241F20;stroke-width:12.658;stroke-linejoin:round;}
	.st2{fill:none;stroke:#241F20;stroke-width:8.439;stroke-linejoin:round;}
	.st3{fill:#241F20;stroke:#241F20;stroke-width:4.219;stroke-linejoin:round;}
	.st4{fill:#241F20;}
	.st5{clip-path:url(#SVGID_00000013913707553640862120000002134087901853768576_);}
	.st6{fill:none;stroke:#FFFFFF;stroke-width:2.11;stroke-linejoin:round;}
	.st7{fill:none;stroke:#FFFFFF;stroke-width:4.219;stroke-linejoin:round;}
	.st8{fill:none;stroke:#241F20;stroke-width:6.329;stroke-linejoin:round;}
	.st9{clip-path:url(#SVGID_00000044151824087097289770000006885494037862689434_);}
	.st10{fill:#FFFFFF;}
	.st11{fill:none;stroke:#241F20;stroke-width:12.658;stroke-linejoin:round;}
	.st12{fill:#FFFFFF;stroke:#241F20;stroke-width:7.783;stroke-linejoin:round;}
	.st13{fill:#FFFFFF;stroke:#241F20;stroke-width:6.329;stroke-linejoin:round;}
	.st14{clip-path:url(#SVGID_00000021117948293440309490000004582787072373603971_);}
	.st15{fill:none;stroke:#241F20;stroke-width:5.189;stroke-linejoin:round;}
</style>
<g id="c">
	<g>
		<g>
			<g>
				<path class="st0" d="M392.4,205.6h54.2v26.1h-87.1V67.4h33V205.6z"/>
				<path class="st0" d="M587.8,176.4h-95.4c0.8,9.4,4.1,16.8,9.9,22.1c5.8,5.3,13,8,21.4,8c12.2,0,21-5.3,26.1-15.8h35.6
					c-3.8,12.6-11,22.9-21.7,31c-10.7,8.1-23.8,12.1-39.3,12.1c-12.6,0-23.8-2.8-33.8-8.4c-10-5.6-17.7-13.5-23.3-23.7
					c-5.6-10.2-8.4-22-8.4-35.3c0-13.5,2.7-25.4,8.2-35.6c5.5-10.2,13.2-18.1,23.1-23.5c9.9-5.5,21.3-8.2,34.1-8.2
					c12.4,0,23.5,2.7,33.3,8c9.8,5.3,17.4,12.9,22.8,22.7c5.4,9.8,8.1,21.1,8.1,33.8C588.7,168.4,588.4,172.7,587.8,176.4
					L587.8,176.4z M554.6,154.3c-0.2-8.5-3.2-15.3-9.2-20.4c-6-5.1-13.3-7.7-21.9-7.7c-8.2,0-15,2.5-20.6,7.4
					c-5.6,4.9-9,11.8-10.2,20.6L554.6,154.3L554.6,154.3z"/>
				<path class="st0" d="M728.8,161.4c6,7.5,8.9,16.2,8.9,25.9c0,8.8-2.2,16.5-6.5,23.2c-4.3,6.7-10.6,11.9-18.7,15.7
					c-8.2,3.8-17.8,5.7-29,5.7h-70.9V67.4h67.8c11.1,0,20.8,1.8,28.8,5.4c8.1,3.6,14.2,8.6,18.4,15.1c4.2,6.4,6.2,13.7,6.2,21.9
					c0,9.6-2.6,17.6-7.7,24c-5.1,6.4-11.9,11-20.4,13.7C715.3,149.2,722.9,153.8,728.8,161.4L728.8,161.4z M645.7,135.2h30.1
					c7.8,0,13.9-1.8,18.1-5.3s6.4-8.6,6.4-15.2s-2.1-11.7-6.4-15.3c-4.2-3.6-10.3-5.4-18.1-5.4h-30.1V135.2L645.7,135.2z
					 M697.6,199.3c4.5-3.8,6.7-9.1,6.7-16c0-7.1-2.4-12.6-7.1-16.6c-4.7-4-11.1-6-19.1-6h-32.5v44.3h33.2
					C686.9,204.9,693.2,203,697.6,199.3L697.6,199.3z"/>
				<path class="st0" d="M813.7,105.3c6.8-3.9,14.6-5.9,23.4-5.9v34.6h-8.7c-10.4,0-18.2,2.4-23.4,7.3c-5.3,4.9-7.9,13.3-7.9,25.4
					v65h-33V101.3h33v20.2C801.4,114.7,806.9,109.3,813.7,105.3z"/>
				<path class="st0" d="M883.3,225.5c-10-5.6-17.9-13.5-23.7-23.7c-5.7-10.2-8.6-22-8.6-35.3s2.9-25.1,8.8-35.3
					c5.9-10.2,13.9-18.1,24.1-23.7c10.2-5.6,21.6-8.4,34.1-8.4s23.9,2.8,34.1,8.4c10.2,5.6,18.2,13.5,24.1,23.7
					c5.9,10.2,8.8,22,8.8,35.3s-3,25.1-9.1,35.3c-6,10.2-14.2,18.1-24.5,23.7c-10.3,5.6-21.8,8.4-34.5,8.4
					C904.6,233.9,893.3,231.1,883.3,225.5L883.3,225.5z M934,200.8c5.3-2.9,9.5-7.3,12.6-13.1c3.1-5.8,4.7-12.9,4.7-21.2
					c0-12.4-3.3-21.9-9.8-28.6c-6.5-6.7-14.5-10-23.9-10s-17.3,3.3-23.7,10c-6.4,6.7-9.5,16.2-9.5,28.6s3.1,21.9,9.3,28.6
					c6.2,6.7,14,10,23.4,10C923.2,205.2,928.8,203.7,934,200.8L934,200.8z"/>
				<path class="st0" d="M1119.5,114.2c9.6,9.8,14.4,23.5,14.4,41.1v76.5h-33v-72.1c0-10.4-2.6-18.3-7.8-23.9
					c-5.2-5.6-12.2-8.4-21.2-8.4c-9.1,0-16.3,2.8-21.5,8.4c-5.3,5.6-7.9,13.5-7.9,23.9v72.1h-33V101.3h33v16.2
					c4.4-5.7,10-10.1,16.8-13.3c6.8-3.2,14.3-4.8,22.5-4.8C1097.3,99.4,1109.9,104.4,1119.5,114.2L1119.5,114.2z"/>
				<path class="st0" d="M1237.2,231.8l-26.8-40.5l-23.8,40.5h-35.3l42.6-65.5l-43.1-65h37.2l26.6,40.3l24-40.3h35.3l-42.9,65
					l43.3,65.5H1237.2L1237.2,231.8z"/>
			</g>
			<g>
				<path class="st0" d="M724.2,304c-1.6,2.9-4,5.2-7.3,6.9c-3.3,1.8-7.4,2.6-12.2,2.6h-9V335h-14.5v-59.6h23.5
					c4.8,0,8.8,0.8,12.1,2.5c3.3,1.6,5.7,3.9,7.4,6.8c1.6,2.9,2.5,6.2,2.5,9.9C726.6,298,725.8,301.1,724.2,304L724.2,304z
					 M709.8,300.1c1.4-1.3,2-3.1,2-5.5s-0.7-4.2-2-5.5c-1.4-1.3-3.4-2-6.2-2h-7.9V302h7.9C706.4,302,708.4,301.4,709.8,300.1z"/>
				<path class="st0" d="M753.8,275.3V335h-14.5v-59.6H753.8z"/>
				<path class="st0" d="M784.9,323.1h25.7V335h-42.1v-11l25.5-36.7h-25.5v-11.9h42.1v11L784.9,323.1z"/>
				<path class="st0" d="M840.6,323.1h25.7V335h-42.1v-11l25.5-36.7h-25.5v-11.9h42.1v11L840.6,323.1z"/>
				<path class="st0" d="M918,324.4h-22.3l-3.6,10.5H877l21.6-59.6h16.8l21.6,59.6h-15.4L918,324.4L918,324.4z M914.2,313.2
					l-7.4-21.8l-7.3,21.8H914.2L914.2,313.2z"/>
			</g>
			<g>
				<g>
					<path class="st0" d="M966.5,304.4c-0.5,0-0.9,0-1.4-0.1c-0.5-0.1-0.9-0.2-1.3-0.4c-0.4-0.2-0.8-0.4-1.2-0.7
						c-0.4-0.3-0.8-0.6-1.1-0.9c-0.3-0.3-0.6-0.7-0.9-1.1c-0.3-0.4-0.5-0.8-0.7-1.2c-0.2-0.4-0.3-0.9-0.4-1.4
						c-0.1-0.5-0.1-0.9-0.1-1.4c0-0.5,0-0.9,0.1-1.4c0.1-0.5,0.2-0.9,0.4-1.3c0.2-0.4,0.4-0.9,0.7-1.2c0.3-0.4,0.6-0.8,0.9-1.1
						s0.7-0.6,1.1-0.9c0.4-0.3,0.8-0.5,1.2-0.7c0.4-0.2,0.9-0.3,1.3-0.4c2.3-0.5,4.8,0.3,6.5,2c0.3,0.3,0.6,0.7,0.9,1.1
						c0.3,0.4,0.5,0.8,0.7,1.2c0.2,0.4,0.3,0.9,0.4,1.3c0.1,0.5,0.1,0.9,0.1,1.4c0,0.5,0,0.9-0.1,1.4c-0.1,0.5-0.2,0.9-0.4,1.4
						c-0.2,0.4-0.4,0.8-0.7,1.2c-0.3,0.4-0.6,0.8-0.9,1.1c-0.3,0.3-0.7,0.6-1.1,0.9c-0.4,0.3-0.8,0.5-1.2,0.7
						c-0.4,0.2-0.9,0.3-1.3,0.4C967.5,304.4,967,304.4,966.5,304.4z"/>
				</g>
				<g>
					<path class="st0" d="M1230.5,297.2c0-4,3.2-7.2,7.2-7.2l0,0c4,0,7.2,3.2,7.2,7.2l0,0c0,4-3.2,7.2-7.2,7.2l0,0
						C1233.7,304.4,1230.5,301.2,1230.5,297.2z M1200.3,297.2c0-4,3.2-7.2,7.2-7.2l0,0c4,0,7.2,3.2,7.2,7.2l0,0c0,4-3.2,7.2-7.2,7.2
						l0,0C1203.6,304.4,1200.3,301.2,1200.3,297.2z M1170.2,297.2c0-4,3.2-7.2,7.2-7.2l0,0c4,0,7.2,3.2,7.2,7.2l0,0
						c0,4-3.2,7.2-7.2,7.2l0,0C1173.4,304.4,1170.2,301.2,1170.2,297.2z M1140.1,297.2c0-4,3.2-7.2,7.2-7.2l0,0c4,0,7.2,3.2,7.2,7.2
						l0,0c0,4-3.2,7.2-7.2,7.2l0,0C1143.3,304.4,1140.1,301.2,1140.1,297.2z M1110,297.2c0-4,3.2-7.2,7.2-7.2l0,0
						c4,0,7.2,3.2,7.2,7.2l0,0c0,4-3.2,7.2-7.2,7.2l0,0C1113.2,304.4,1110,301.2,1110,297.2z M1079.8,297.2c0-4,3.2-7.2,7.2-7.2l0,0
						c4,0,7.2,3.2,7.2,7.2l0,0c0,4-3.2,7.2-7.2,7.2l0,0C1083.1,304.4,1079.8,301.2,1079.8,297.2z M1049.7,297.2c0-4,3.2-7.2,7.2-7.2
						l0,0c4,0,7.2,3.2,7.2,7.2l0,0c0,4-3.2,7.2-7.2,7.2l0,0C1052.9,304.4,1049.7,301.2,1049.7,297.2z M1019.6,297.2
						c0-4,3.2-7.2,7.2-7.2l0,0c4,0,7.2,3.2,7.2,7.2l0,0c0,4-3.2,7.2-7.2,7.2l0,0C1022.8,304.4,1019.6,301.2,1019.6,297.2z
						 M989.5,297.2c0-4,3.2-7.2,7.2-7.2l0,0c4,0,7.2,3.2,7.2,7.2l0,0c0,4-3.2,7.2-7.2,7.2l0,0C992.7,304.4,989.5,301.2,989.5,297.2z
						"/>
				</g>
				<g>
					<path class="st0" d="M1267.8,304.4c-0.5,0-0.9,0-1.4-0.1c-0.5-0.1-0.9-0.2-1.3-0.4c-0.4-0.2-0.9-0.4-1.2-0.7
						c-0.4-0.3-0.8-0.6-1.1-0.9c-0.3-0.3-0.6-0.7-0.9-1.1c-0.3-0.4-0.5-0.8-0.7-1.2c-0.2-0.4-0.3-0.9-0.4-1.4s-0.1-0.9-0.1-1.4
						c0-0.5,0-0.9,0.1-1.4s0.2-0.9,0.4-1.3c0.2-0.4,0.4-0.9,0.7-1.2c0.3-0.4,0.6-0.8,0.9-1.1c1.3-1.3,3.2-2.1,5.1-2.1
						c1.9,0,3.8,0.8,5.1,2.1c0.3,0.3,0.6,0.7,0.9,1.1c0.3,0.4,0.5,0.8,0.7,1.2c0.2,0.4,0.3,0.9,0.4,1.3s0.1,0.9,0.1,1.4
						c0,0.5,0,0.9-0.1,1.4s-0.2,0.9-0.4,1.4c-0.2,0.4-0.4,0.8-0.7,1.2c-0.3,0.4-0.6,0.8-0.9,1.1c-0.3,0.3-0.7,0.6-1.1,0.9
						c-0.4,0.3-0.8,0.5-1.2,0.7c-0.4,0.2-0.9,0.3-1.3,0.4C1268.7,304.4,1268.2,304.4,1267.8,304.4z"/>
				</g>
			</g>
			<g>
				<g>
					<g>
						<path class="st0" d="M638.1,304.4c-0.5,0-0.9,0-1.4-0.1c-0.5-0.1-0.9-0.2-1.4-0.4c-0.4-0.2-0.9-0.4-1.2-0.7
							c-0.4-0.3-0.8-0.6-1.1-0.9c-0.3-0.3-0.6-0.7-0.9-1.1c-0.3-0.4-0.5-0.8-0.7-1.2c-0.2-0.4-0.3-0.9-0.4-1.4
							c-0.1-0.5-0.1-0.9-0.1-1.4c0-0.5,0-0.9,0.1-1.4c0.1-0.5,0.2-0.9,0.4-1.3c0.2-0.4,0.4-0.9,0.7-1.2c0.3-0.4,0.6-0.8,0.9-1.1
							c0.3-0.3,0.7-0.6,1.1-0.9c0.4-0.3,0.8-0.5,1.2-0.7c0.4-0.2,0.9-0.3,1.4-0.4c0.9-0.2,1.9-0.2,2.8,0c0.5,0.1,0.9,0.2,1.3,0.4
							c0.4,0.2,0.9,0.4,1.2,0.7c0.4,0.3,0.8,0.6,1.1,0.9s0.6,0.7,0.9,1.1c0.3,0.4,0.5,0.8,0.7,1.2c0.2,0.4,0.3,0.9,0.4,1.3
							c0.1,0.5,0.1,0.9,0.1,1.4c0,0.5,0,0.9-0.1,1.4c-0.1,0.5-0.2,0.9-0.4,1.4c-0.2,0.4-0.4,0.8-0.7,1.2c-0.3,0.4-0.6,0.8-0.9,1.1
							c-0.3,0.3-0.7,0.6-1.1,0.9c-0.4,0.3-0.8,0.5-1.2,0.7c-0.4,0.2-0.9,0.3-1.3,0.4C639,304.4,638.6,304.4,638.1,304.4z"/>
					</g>
					<g>
						<path class="st0" d="M603,297.2c0-4,3.2-7.2,7.2-7.2l0,0c4,0,7.2,3.2,7.2,7.2l0,0c0,4-3.2,7.2-7.2,7.2l0,0
							C606.2,304.4,603,301.2,603,297.2z M575.1,297.2c0-4,3.2-7.2,7.2-7.2l0,0c4,0,7.2,3.2,7.2,7.2l0,0c0,4-3.2,7.2-7.2,7.2l0,0
							C578.3,304.4,575.1,301.2,575.1,297.2z M547.2,297.2c0-4,3.2-7.2,7.2-7.2l0,0c4,0,7.2,3.2,7.2,7.2l0,0c0,4-3.2,7.2-7.2,7.2
							l0,0C550.4,304.4,547.2,301.2,547.2,297.2z M519.2,297.2c0-4,3.2-7.2,7.2-7.2l0,0c4,0,7.2,3.2,7.2,7.2l0,0
							c0,4-3.2,7.2-7.2,7.2l0,0C522.5,304.4,519.2,301.2,519.2,297.2z M491.3,297.2c0-4,3.2-7.2,7.2-7.2l0,0c4,0,7.2,3.2,7.2,7.2
							l0,0c0,4-3.2,7.2-7.2,7.2l0,0C494.5,304.4,491.3,301.2,491.3,297.2z M463.4,297.2c0-4,3.2-7.2,7.2-7.2l0,0
							c4,0,7.2,3.2,7.2,7.2l0,0c0,4-3.2,7.2-7.2,7.2l0,0C466.6,304.4,463.4,301.2,463.4,297.2z M435.5,297.2c0-4,3.2-7.2,7.2-7.2
							l0,0c4,0,7.2,3.2,7.2,7.2l0,0c0,4-3.2,7.2-7.2,7.2l0,0C438.7,304.4,435.5,301.2,435.5,297.2z M407.6,297.2
							c0-4,3.2-7.2,7.2-7.2l0,0c4,0,7.2,3.2,7.2,7.2l0,0c0,4-3.2,7.2-7.2,7.2l0,0C410.8,304.4,407.6,301.2,407.6,297.2z
							 M379.7,297.2c0-4,3.2-7.2,7.2-7.2l0,0c4,0,7.2,3.2,7.2,7.2l0,0c0,4-3.2,7.2-7.2,7.2l0,0C382.9,304.4,379.7,301.2,379.7,297.2
							z"/>
					</g>
					<g>
						<path class="st0" d="M359,304.4c-1.9,0-3.8-0.8-5.1-2.1c-0.3-0.3-0.6-0.7-0.9-1.1c-0.3-0.4-0.5-0.8-0.7-1.2
							c-0.2-0.4-0.3-0.9-0.4-1.4s-0.1-0.9-0.1-1.4c0-0.5,0.1-0.9,0.1-1.4s0.2-0.9,0.4-1.3c0.2-0.4,0.4-0.9,0.7-1.2
							c0.3-0.4,0.6-0.8,0.9-1.1c0.3-0.3,0.7-0.6,1.1-0.9c0.4-0.3,0.8-0.5,1.2-0.7c0.4-0.2,0.9-0.3,1.3-0.4c2.3-0.5,4.8,0.3,6.5,2
							c0.3,0.3,0.6,0.7,0.9,1.1c0.3,0.4,0.5,0.8,0.7,1.2c0.2,0.4,0.3,0.9,0.4,1.3c0.1,0.5,0.1,0.9,0.1,1.4c0,0.5,0,0.9-0.1,1.4
							c-0.1,0.5-0.2,0.9-0.4,1.4c-0.2,0.4-0.4,0.8-0.7,1.2c-0.3,0.4-0.6,0.8-0.9,1.1c-0.3,0.3-0.7,0.6-1.1,0.9
							c-0.4,0.3-0.8,0.5-1.2,0.7c-0.4,0.2-0.9,0.3-1.3,0.4C359.9,304.4,359.4,304.4,359,304.4z"/>
					</g>
				</g>
			</g>
		</g>
		<g>
			<path class="st1" d="M73.3,192.6h159.1v109c0,24.8-20.1,45-45,45h-69.2c-24.8,0-45-20.1-45-45L73.3,192.6L73.3,192.6L73.3,192.6z
				"/>
			<path class="st1" d="M242.3,233.8h-0.2c-21.8,0-39.5-17.7-39.5-39.5h39.7c10.9,0,19.7,8.8,19.7,19.7l0,0
				C262.1,225,253.2,233.8,242.3,233.8z"/>
			<path class="st2" d="M203.6,262.9v25.3c0,8.9-7.2,16-16,16l0,0"/>
			<rect x="139.1" y="256.8" class="st3" width="20" height="10.4"/>
			<line class="st2" x1="176" y1="320.5" x2="199.2" y2="320.5"/>
			<g>
				<path class="st4" d="M219,285L219,285c-11.1,0-20.1-9-20.1-20.1v-15.5h28.4c6.5,0,11.8,5.3,11.8,11.8v3.7
					C239.1,276,230.1,285,219,285L219,285z"/>
				<g>
					<defs>
						<path id="SVGID_1_" d="M219,285L219,285c-11.1,0-20.1-9-20.1-20.1v-15.5h28.4c6.5,0,11.8,5.3,11.8,11.8v3.7
							C239.1,276,230.1,285,219,285L219,285z"/>
					</defs>
					<clipPath id="SVGID_00000068679206414207626380000015194340490611453572_">
						<use xlink:href="#SVGID_1_"  style="overflow:visible;"/>
					</clipPath>
					<g style="clip-path:url(#SVGID_00000068679206414207626380000015194340490611453572_);">
						<line class="st6" x1="239.4" y1="281.2" x2="215.1" y2="246.9"/>
						<line class="st7" x1="234.5" y1="286" x2="206.3" y2="246.3"/>
					</g>
				</g>
				<path class="st8" d="M219,285L219,285c-11.1,0-20.1-9-20.1-20.1v-15.5h28.4c6.5,0,11.8,5.3,11.8,11.8v3.7
					C239.1,276,230.1,285,219,285L219,285z"/>
			</g>
			<g>
				<path class="st4" d="M179.1,285L179.1,285c-11.1,0-20.1-9-20.1-20.1v-4c0-6.3,5.1-11.5,11.5-11.5h28.7v15.5
					C199.2,276,190.2,285,179.1,285L179.1,285z"/>
				<g>
					<defs>
						<path id="SVGID_00000064336746501626520610000017812859697195879341_" d="M179.1,285L179.1,285c-11.1,0-20.1-9-20.1-20.1v-4
							c0-6.3,5.1-11.5,11.5-11.5h28.7v15.5C199.2,276,190.2,285,179.1,285L179.1,285z"/>
					</defs>
					<clipPath id="SVGID_00000112613099960127705280000002351214385469097867_">
						<use xlink:href="#SVGID_00000064336746501626520610000017812859697195879341_"  style="overflow:visible;"/>
					</clipPath>
					<g style="clip-path:url(#SVGID_00000112613099960127705280000002351214385469097867_);">
						<line class="st6" x1="199.5" y1="281.2" x2="175.2" y2="246.9"/>
						<line class="st7" x1="194.6" y1="286" x2="166.4" y2="246.3"/>
					</g>
				</g>
				<path class="st8" d="M179.1,285L179.1,285c-11.1,0-20.1-9-20.1-20.1v-4c0-6.3,5.1-11.5,11.5-11.5h28.7v15.5
					C199.2,276,190.2,285,179.1,285L179.1,285z"/>
			</g>
			<g>
				<polygon class="st10" points="186,111.1 97.4,166.5 225.4,166.5 301.2,82.5 				"/>
				<polygon class="st11" points="186,111.1 97.4,166.5 225.4,166.5 301.2,82.5 				"/>
			</g>
			<g>
				<polygon class="st10" points="121.5,111.1 6.3,82.5 82.1,166.5 210.2,166.5 				"/>
				<polygon class="st11" points="121.5,111.1 6.3,82.5 82.1,166.5 210.2,166.5 				"/>
			</g>
			<polygon class="st1" points="97.4,166.6 153.8,6.3 207.4,166.6 			"/>
			<circle class="st12" cx="124.6" cy="118.5" r="13.2"/>
			<circle class="st12" cx="165.2" cy="86.8" r="16.5"/>
			<circle class="st12" cx="165.2" cy="140" r="13.2"/>
			<path class="st4" d="M170.2,139.8c-0.9-3.7-5.3-5.3-7.9-2.7c-2.6,2.6-1,7,2.7,7.9c-1,0.3-2.2,0.1-3.2-0.3
				c-2.8-1.3-3.9-5.1-2.5-7.8C162.2,131.2,171.4,133.3,170.2,139.8L170.2,139.8L170.2,139.8z"/>
			<path class="st4" d="M173.3,86.6c-0.9-6.2-8.5-9.1-12.8-4.7c-4.4,4.3-1.4,11.9,4.7,12.8c-0.8,0.1-1.6,0.1-2.4,0
				c-4.5-0.7-7.5-5.4-6.6-9.8C158.4,74,174.3,75.5,173.3,86.6L173.3,86.6L173.3,86.6z"/>
			<circle class="st12" cx="69.8" cy="141.5" r="16.5"/>
			<path class="st4" d="M78.2,141.3c-0.9-6.4-8.7-9.4-13.1-4.9c-4.5,4.4-1.5,12.2,4.9,13.1c-5.5,1-10.4-4.7-9.3-10.1
				C62.9,128.5,79.2,129.9,78.2,141.3L78.2,141.3L78.2,141.3z"/>
			<circle class="st12" cx="56.8" cy="95.9" r="14.2"/>
			<path class="st4" d="M62.2,95.6c-0.9-3.9-5.6-5.6-8.3-2.9c-2.7,2.7-1,7.4,2.9,8.3c-1.1,0.3-2.3,0.1-3.3-0.4
				c-2.9-1.4-4.1-5.3-2.5-8.2C53.9,86.6,63.4,88.8,62.2,95.6L62.2,95.6L62.2,95.6z"/>
			<path class="st4" d="M129.3,118.3c-0.9-3.5-5-4.9-7.4-2.5c-2.4,2.4-1,6.5,2.5,7.4c-1,0.3-2.1,0.2-3.1-0.3
				c-2.7-1.2-3.8-4.8-2.4-7.5C121.8,110,130.5,112.1,129.3,118.3L129.3,118.3L129.3,118.3z"/>
			<circle class="st12" cx="233.8" cy="148" r="16.3"/>
			<path class="st4" d="M241,147.8c-0.9-5.7-7.8-8.4-11.8-4.3c-4,3.9-1.4,10.9,4.3,11.8c-0.7,0.1-1.5,0.1-2.3,0
				c-4.2-0.6-7-5-6.2-9.1C227,136.1,242,137.4,241,147.8L241,147.8L241,147.8z"/>
			<g>
				<path class="st13" d="M106.3,308.6c-15,0-27.1,12.1-27.1,27.1s12.1,27.1,27.1,27.1s27.1-12.1,27.1-27.1S121.3,308.6,106.3,308.6
					L106.3,308.6z"/>
				<path class="st13" d="M106.3,320.3c-8.5,0-15.3,6.9-15.3,15.3s6.9,15.3,15.3,15.3s15.3-6.9,15.3-15.3S114.8,320.3,106.3,320.3z"
					/>
			</g>
			<g>
				<path class="st10" d="M143.1,194.3H96.5c-34.9,0-63.3,28.3-63.3,63.3v18.9c0,30.3,24.6,54.9,54.9,54.9l0,0
					c30.3,0,54.9-24.6,54.9-54.9v-42.7h20c21.8,0,39.5-17.7,39.5-39.5H143.1L143.1,194.3z"/>
				<g>
					<defs>
						<path id="SVGID_00000041274631157144559110000014663885635905570971_" d="M143.1,194.3H96.5c-34.9,0-63.3,28.3-63.3,63.3v18.9
							c0,30.3,24.6,54.9,54.9,54.9l0,0c30.3,0,54.9-24.6,54.9-54.9v-42.7h20c21.8,0,39.5-17.7,39.5-39.5H143.1L143.1,194.3z"/>
					</defs>
					<clipPath id="SVGID_00000150791443514163936200000014868968010264415892_">
						<use xlink:href="#SVGID_00000041274631157144559110000014663885635905570971_"  style="overflow:visible;"/>
					</clipPath>
					<g style="clip-path:url(#SVGID_00000150791443514163936200000014868968010264415892_);">
						<g>
							<path class="st8" d="M85.1,194.3h38.2v67.4c0,24.8-20.2,45-45,45l0,0c-24.8,0-45-20.2-45-45v-15.5
								C33.3,217.6,56.5,194.3,85.1,194.3L85.1,194.3z"/>
							<path class="st8" d="M75.1,194.3h30.8v54.3c0,20-16.3,36.3-36.3,36.3l0,0c-20,0-36.3-16.3-36.3-36.3v-12.5
								C33.3,213.1,52,194.3,75.1,194.3L75.1,194.3z"/>
							<path class="st8" d="M64.5,194.3h23v40.5c0,14.9-12.1,27.1-27.1,27.1l0,0c-14.9,0-27.1-12.1-27.1-27.1v-9.3
								C33.3,208.3,47.3,194.3,64.5,194.3L64.5,194.3z"/>
						</g>
					</g>
				</g>
				<path class="st11" d="M143.1,194.3H96.5c-34.9,0-63.3,28.3-63.3,63.3v18.9c0,30.3,24.6,54.9,54.9,54.9l0,0
					c30.3,0,54.9-24.6,54.9-54.9v-42.7h20c21.8,0,39.5-17.7,39.5-39.5H143.1L143.1,194.3z"/>
			</g>
			<path class="st1" d="M70.2,167.6h167.2c7.4,0,13.4,6,13.4,13.4v0c0,7.4-6,13.4-13.4,13.4H70.2c-7.4,0-13.4-6-13.4-13.4v0
				C56.8,173.5,62.8,167.6,70.2,167.6z"/>
			<g>
				<line class="st15" x1="221.6" y1="194" x2="221.6" y2="167.9"/>
				<line class="st15" x1="188.5" y1="194" x2="188.5" y2="167.9"/>
				<line class="st15" x1="155.3" y1="194" x2="155.3" y2="167.9"/>
				<line class="st15" x1="122.1" y1="194" x2="122.1" y2="167.9"/>
				<line class="st15" x1="88.9" y1="194" x2="88.9" y2="167.9"/>
			</g>
			<circle class="st12" cx="240.4" cy="98.7" r="14.2"/>
			<path class="st4" d="M246.2,98.4c-0.9-4.3-6-6.1-8.9-3.2c-2.9,2.9-1.1,8.1,3.2,8.9c-1.1,0.3-2.4,0.1-3.6-0.4
				c-3.1-1.5-4.3-5.6-2.7-8.7C237.3,88.8,247.4,91.2,246.2,98.4L246.2,98.4L246.2,98.4z"/>
		</g>
	</g>
</g>
</svg>
