<svg xmlns="http://www.w3.org/2000/svg" id="b" viewBox="0 0 915.757 1365.568"><g id="c"><g><g><g><path fill="#fff" stroke="#241f20" stroke-linejoin="round" stroke-width="24" d="M12,582.055H151.324v91.419H58.667c-25.756,0-46.667-20.911-46.667-46.667v-44.752h0Z"/><path fill="#fff" stroke="#241f20" stroke-linejoin="round" stroke-width="16" d="M93.551,601.351l-22.104-22.104c-11.554-11.554-11.554-30.287,0-41.841h0l59.199,59.199"/></g><line x1="12" x2="75.509" y1="615.338" y2="615.338" fill="none" stroke="#241f20" stroke-linejoin="round" stroke-width="12"/><line x1="13.831" x2="75.509" y1="639.761" y2="639.761" fill="none" stroke="#241f20" stroke-linejoin="round" stroke-width="12"/></g><g><path fill="#fff" d="M827.981,582.249H121.19v182.45h109.966v269.424H903.757v-376.098c0-41.85-33.926-75.776-75.775-75.776Z"/><path fill="none" stroke="#241f20" stroke-linejoin="round" stroke-width="24" d="M827.981,582.249H121.19v182.45h109.966v269.424H903.757v-376.098c0-41.85-33.926-75.776-75.775-75.776Z"/></g><path fill="#fff" stroke="#241f20" stroke-linejoin="round" stroke-width="24" d="M553.366,878.903h203.121v375.308h-98.157c-57.931,0-104.964-47.033-104.964-104.964v-270.344h0Z" transform="translate(1309.853 2133.114) rotate(180)"/><path fill="#fff" stroke="#241f20" stroke-linejoin="round" stroke-width="24" d="M455.209,878.903h98.157v375.308h-203.121v-270.344c0-57.931,47.033-104.964,104.964-104.964Z"/><line x1="152.459" x2="152.459" y1="578.166" y2="762" fill="none" stroke="#241f20" stroke-linejoin="round" stroke-width="16"/><rect width="195.121" height="103.978" x="459.806" y="1023.865" fill="#fff"/><polygon fill="#fff" stroke="#241f20" stroke-linejoin="round" stroke-width="24" points="409.369 794.615 409.369 526.432 259.533 526.432 409.369 794.615"/><polygon fill="#fff" stroke="#241f20" stroke-linejoin="round" stroke-width="24" points="697.364 794.615 697.364 526.432 847.199 526.432 697.364 794.615"/><path fill="#fff" stroke="#241f20" stroke-linejoin="round" stroke-width="24" d="M553.366,582.249h0c85.174,0,154.324,69.15,154.324,154.324v257.365c0,37.565-30.498,68.062-68.062,68.062h-172.523c-37.565,0-68.062-30.498-68.062-68.062v-257.365c0-85.174,69.15-154.324,154.324-154.324Z" transform="translate(1106.732 1644.249) rotate(-180)"/><line x1="707.69" x2="399.042" y1="639.761" y2="639.761" fill="none" stroke="#241f20" stroke-linejoin="round" stroke-width="8"/><line x1="707.69" x2="399.042" y1="711.991" y2="711.991" fill="none" stroke="#241f20" stroke-linejoin="round" stroke-width="12"/><line x1="707.69" x2="399.042" y1="782.283" y2="782.283" fill="none" stroke="#241f20" stroke-linejoin="round" stroke-width="12"/><line x1="707.69" x2="399.042" y1="852.992" y2="852.992" fill="none" stroke="#241f20" stroke-linejoin="round" stroke-width="12"/><line x1="707.69" x2="399.042" y1="923.702" y2="923.702" fill="none" stroke="#241f20" stroke-linejoin="round" stroke-width="12"/><line x1="425.712" x2="681.021" y1="994.412" y2="994.412" fill="none" stroke="#241f20" stroke-linejoin="round" stroke-width="12"/><line x1="553.366" x2="553.366" y1="582.249" y2="1062" fill="none" stroke="#241f20" stroke-linejoin="round" stroke-width="12"/><line x1="476.204" x2="476.204" y1="582.249" y2="1040.064" fill="none" stroke="#241f20" stroke-linejoin="round" stroke-width="12"/><line x1="630.528" x2="630.528" y1="582.249" y2="1040.064" fill="none" stroke="#241f20" stroke-linejoin="round" stroke-width="12"/><g><path fill="#fff" d="M756.23,345.78h-30.35v-111.625H416.347c-19.604,0-35.495,15.892-35.495,35.495v216.177c0,32.65,13.229,62.209,34.617,83.613-3.961,13.161-6.1,27.112-6.1,41.564,0,79.528,64.47,143.998,143.998,143.998s143.998-64.47,143.998-143.998c0-5.457-.314-10.84-.905-16.139,17.655-10.926,29.422-30.459,29.422-52.748v-118.563h30.35c14.908,0,26.994-12.086,26.994-26.994v-23.787c0-14.908-12.086-26.994-26.994-26.994Z"/><path fill="none" stroke="#241f20" stroke-linejoin="round" stroke-width="24" d="M756.23,345.78h-30.35v-111.625H416.347c-19.604,0-35.495,15.892-35.495,35.495v216.177c0,32.65,13.229,62.209,34.617,83.613-3.961,13.161-6.1,27.112-6.1,41.564,0,79.528,64.47,143.998,143.998,143.998s143.998-64.47,143.998-143.998c0-5.457-.314-10.84-.905-16.139,17.655-10.926,29.422-30.459,29.422-52.748v-118.563h30.35c14.908,0,26.994-12.086,26.994-26.994v-23.787c0-14.908-12.086-26.994-26.994-26.994Z"/></g><g><path fill="#fff" d="M569.99,497.929c0,36.623-29.689,66.312-66.312,66.312s-66.312-29.689-66.312-66.312v-70.044"/><path fill="#241f20" d="M569.99,497.929c6.21,47.398-40.579,83.697-85.796,71.597-25.245-6.372-45.973-27.585-51.51-53.051-1.402-6.216-1.914-12.659-1.608-18.996,.608-11.599,1.358-23.198,2.359-34.797,1.029-11.599,2.186-23.198,3.931-34.797,1.746,11.599,2.903,23.198,3.931,34.797,1.001,11.599,1.75,23.198,2.359,34.797,.284,5.267,1.175,10.41,2.678,15.439,7.488,25.017,30.988,43.182,57.143,43.747,34.217,1.057,61.947-25.427,66.511-58.736h0Z"/></g><path fill="#241f20" d="M604.703,346.98c-11.416,17.667-32.895,26.247-52.068,16.003-6.754-3.588-12.922-9.218-17.356-16.003v-2.4c8.324-.68,17.686-1.009,26.034-1.09,11.076-.209,23.657-.002,34.712,.502,2.893,.199,5.786,.316,8.678,.588v2.4h0Z"/><path fill="#241f20" d="M402.655,344.58c14.09-1.118,29.242-1.292,43.39-1.09,5.052-.011,12.243,.307,17.356,.505,2.893,.198,5.785,.314,8.678,.585v2.4c-11.353,17.522-33.041,26.26-52.069,16.061-6.778-3.593-12.959-9.282-17.356-16.061v-2.4h0Z"/><path fill="none" stroke="#241f20" stroke-linejoin="round" stroke-width="16" d="M521.324,383.152h0c0,14.145-11.467,25.612-25.612,25.612h-.385c-14.145,0-25.612-11.467-25.612-25.612v-92.084l-84.678,13.952"/><line x1="617.375" x2="528.492" y1="310.979" y2="291.068" fill="none" stroke="#241f20" stroke-linejoin="round" stroke-width="16"/><g><path fill="#fff" d="M806.204,207.135c0-21.87-9.487-41.519-24.564-55.073,1.474-6.084,2.274-12.432,2.274-18.97,0-44.361-35.961-80.323-80.323-80.323-12.905,0-25.088,3.061-35.893,8.468-12.151-28.924-40.743-49.237-74.082-49.237-26.201,0-49.466,12.55-64.128,31.962-14.662-19.411-37.927-31.962-64.128-31.962-35.823,0-66.157,23.456-76.511,55.844-37.779,5.509-66.794,38.028-66.794,77.335v10.809c0,43.171,34.997,78.168,78.168,78.168h260.653v162.773h11.172c28.083,0,51.133-21.508,53.602-48.949h14.304c23.897,0,43.271-19.373,43.271-43.27v-43.986c14.148-13.486,22.979-32.5,22.979-53.589Z"/><path fill="none" stroke="#241f20" stroke-linejoin="round" stroke-width="24" d="M806.204,207.135c0-21.87-9.487-41.519-24.564-55.073,1.474-6.084,2.274-12.432,2.274-18.97,0-44.361-35.961-80.323-80.323-80.323-12.905,0-25.088,3.061-35.893,8.468-12.151-28.924-40.743-49.237-74.082-49.237-26.201,0-49.466,12.55-64.128,31.962-14.662-19.411-37.927-31.962-64.128-31.962-35.823,0-66.157,23.456-76.511,55.844-37.779,5.509-66.794,38.028-66.794,77.335v10.809c0,43.171,34.997,78.168,78.168,78.168h260.653v162.773h11.172c28.083,0,51.133-21.508,53.602-48.949h14.304c23.897,0,43.271-19.373,43.271-43.27v-43.986c14.148-13.486,22.979-32.5,22.979-53.589Z"/></g><path fill="#241f20" d="M757.935,179.906c11.761,4.639,18.565,17.829,18.51,30.203,.078,12.375-6.732,25.589-18.51,30.204,4.005-10.475,6.489-19.575,6.512-30.204,0-10.628-2.485-19.74-6.512-30.203h0Z"/><g><g><polyline fill="#fff" points="637.017 639.362 603.559 619.362 570.1 639.362 536.641 619.362 503.178 639.362 469.715 619.362"/><path fill="#241f20" d="M637.018,639.362c-12.437-4.274-24.404-9.684-36.267-15.301h5.618c-2.654,1.891-5.282,3.826-7.958,5.681-7.994,5.599-16.107,11.024-24.351,16.244-2.51,1.555-5.562,1.448-7.92,0-2.821-1.611-5.666-3.183-8.469-4.825-7.833-4.559-17.399-10.313-24.995-15.165h7.932c-5.66,3.202-11.383,6.29-17.146,9.306-5.758,3.042-11.602,5.929-17.462,8.777l-.876,.432c-1.594,.787-3.427,.557-4.764-.432-10.569-7.788-20.998-15.775-30.643-24.718,12.445,4.26,24.418,9.662,36.283,15.282h-5.64c5.283-3.813,10.594-7.592,16-11.223,5.386-3.647,10.817-7.226,16.317-10.694,2.513-1.559,5.57-1.452,7.932,0,7.856,4.384,17.483,10.1,25.192,14.835,2.773,1.691,5.505,3.452,8.26,5.175h-7.919c2.815-1.622,5.692-3.14,8.538-4.711,8.572-4.679,17.282-9.105,26.073-13.364l.881-.435c1.585-.782,3.41-.552,4.737,.435,10.564,7.79,20.996,15.768,30.649,24.699h0Z"/></g><g><polyline fill="#fff" points="637.017 678.711 603.559 658.711 570.1 678.711 536.641 658.711 503.178 678.711 469.715 658.711"/><path fill="#241f20" d="M637.018,678.711c-12.437-4.274-24.404-9.684-36.267-15.301h5.618c-2.654,1.891-5.282,3.826-7.958,5.681-7.994,5.599-16.107,11.024-24.351,16.244-2.51,1.555-5.562,1.448-7.92,0-2.821-1.611-5.666-3.183-8.469-4.825-7.833-4.559-17.399-10.313-24.995-15.165h7.932c-5.66,3.202-11.383,6.29-17.146,9.306-5.758,3.042-11.602,5.929-17.462,8.777l-.876,.432c-1.594,.787-3.427,.557-4.764-.432-10.569-7.788-20.998-15.775-30.643-24.718,12.445,4.26,24.418,9.662,36.283,15.282h-5.64c5.283-3.813,10.594-7.592,16-11.223,5.386-3.647,10.817-7.226,16.317-10.694,2.513-1.559,5.57-1.452,7.932,0,7.856,4.384,17.483,10.1,25.192,14.835,2.773,1.691,5.505,3.452,8.26,5.175h-7.919c2.815-1.622,5.692-3.14,8.538-4.711,8.572-4.679,17.282-9.105,26.073-13.364l.881-.435c1.585-.782,3.41-.552,4.737,.435,10.564,7.79,20.996,15.768,30.649,24.699h0Z"/></g></g><g><circle cx="697.364" cy="622.807" r="28.756" fill="#fff" stroke="#241f20" stroke-linejoin="round" stroke-width="16"/><circle cx="682.728" cy="686.133" r="28.756" fill="#fff" stroke="#241f20" stroke-linejoin="round" stroke-width="16"/><circle cx="643.429" cy="735.17" r="28.756" fill="#fff" stroke="#241f20" stroke-linejoin="round" stroke-width="16"/><circle cx="586.384" cy="763.001" r="28.756" fill="#fff" stroke="#241f20" stroke-linejoin="round" stroke-width="16"/><circle cx="520.349" cy="763.001" r="28.756" fill="#fff" stroke="#241f20" stroke-linejoin="round" stroke-width="16"/><circle cx="463.303" cy="735.17" r="28.756" fill="#fff" stroke="#241f20" stroke-linejoin="round" stroke-width="16"/><circle cx="424.005" cy="686.133" r="28.756" fill="#fff" stroke="#241f20" stroke-linejoin="round" stroke-width="16"/><circle cx="409.369" cy="622.807" r="28.756" fill="#fff" stroke="#241f20" stroke-linejoin="round" stroke-width="16"/></g><g><line x1="700.887" x2="649.95" y1="425.173" y2="425.173" fill="none" stroke="#241f20" stroke-linejoin="round" stroke-width="8"/><line x1="700.887" x2="633.079" y1="444.934" y2="444.934" fill="none" stroke="#241f20" stroke-linejoin="round" stroke-width="8"/><line x1="700.887" x2="615.349" y1="468.055" y2="468.055" fill="none" stroke="#241f20" stroke-linejoin="round" stroke-width="8"/></g><line x1="231.156" x2="231.156" y1="766.804" y2="649.036" fill="none" stroke="#241f20" stroke-linejoin="round" stroke-width="24"/><path fill="#241f20" d="M721.868,87.261c-11.147-1.151-20.601-1.167-30.855,1.612-10.256,2.803-18.382,7.575-27.45,14.182,1.376-12.576,12.347-22.601,24.313-25.763,11.928-3.29,26.442-.17,33.993,9.969h0Z"/><path fill="#241f20" d="M596.417,43.223c-10.81,2.955-19.63,6.357-28.187,12.653-8.551,6.32-14.402,13.706-20.47,23.144-3.261-12.223,3.345-25.536,13.36-32.808,9.933-7.378,24.594-9.714,35.298-2.989h0Z"/><path fill="#241f20" d="M464.416,39.617c-10.242,4.548-18.45,9.239-25.962,16.753-7.502,7.535-12.175,15.718-16.753,25.961-5.064-11.593-.537-25.749,8.269-34.445,8.709-8.789,22.851-13.305,34.446-8.269h0Z"/><path fill="#241f20" d="M405.648,103.056c-11.142,3.091-22.116,9.264-29.169,18.358-17.987,22.064-11.545,54.634,12.489,69.444,2.177,1.382,5.456,3.064,7.841,4.146l4.298,1.666c1.478,.451,2.989,.902,4.542,1.441-6.23,1.743-13.085,1.647-19.693,.011-29.317-7.33-43.967-41.648-31.214-68.628,8.346-18.959,30.616-31.972,50.907-26.437h0Z"/><path fill="#241f20" d="M496.995,89.565c-11.142,3.092-22.116,9.264-29.169,18.358-17.988,22.064-11.545,54.634,12.488,69.444,2.177,1.381,5.456,3.064,7.841,4.146l4.298,1.666c1.478,.451,2.989,.902,4.541,1.441-6.23,1.743-13.085,1.647-19.693,.011-29.317-7.33-43.967-41.648-31.214-68.628,8.345-18.959,30.616-31.972,50.906-26.437h0Z"/><path fill="#241f20" d="M643.544,121.2c-10.367-5.122-22.662-7.834-33.981-5.755-28.115,4.461-45.02,33.035-36.974,60.094,.702,2.481,2.026,5.921,3.082,8.317l2.094,4.106c.801,1.321,1.627,2.665,2.425,4.101-5.806-2.853-10.853-7.493-14.688-13.117-16.971-25.004-5.019-60.353,22.471-71.967,18.858-8.572,44.134-3.429,55.571,14.22h0Z"/><path fill="none" stroke="#241f20" stroke-linejoin="round" stroke-width="16" d="M536.004,428.207l-55.842,13.416c-7.56,1.816-12.89,8.579-12.89,16.354h0c0,7.872,5.459,14.69,13.14,16.412l36.331,8.144c11.863,2.659,23.66-4.71,26.473-16.538l5.881-24.725c1.873-7.875-5.223-14.955-13.094-13.064Z"/><g><g><path fill="#fff" d="M342.814,768.606c0-11.039-10.889-19.988-24.321-19.988-1.285,0-2.547,.083-3.778,.241,.982-.759,1.943-1.569,2.852-2.478,9.498-9.498,10.869-23.525,3.063-31.331-7.806-7.806-21.833-6.435-31.331,3.063-.909,.909-1.719,1.869-2.478,2.852,.158-1.232,.241-2.493,.241-3.778,0-13.432-8.949-24.32-19.988-24.32s-19.988,10.889-19.988,24.32c0,1.285,.083,2.547,.241,3.778-.759-.982-1.57-1.943-2.478-2.852-9.498-9.498-23.525-10.869-31.331-3.063-7.806,7.806-6.434,21.833,3.063,31.331,.909,.909,1.869,1.719,2.852,2.478-1.231-.158-2.493-.241-3.778-.241-13.432,0-24.32,8.949-24.32,19.988s10.889,19.988,24.32,19.988c1.285,0,2.547-.083,3.778-.241-.982,.759-1.943,1.569-2.852,2.478-9.498,9.498-10.869,23.525-3.063,31.331,7.806,7.806,21.833,6.434,31.331-3.063,.909-.909,1.719-1.869,2.478-2.852-.158,1.231-.241,2.493-.241,3.778,0,13.432,8.949,24.32,19.988,24.32s19.988-10.889,19.988-24.32c0-1.285-.083-2.547-.241-3.778,.759,.982,1.57,1.943,2.478,2.852,9.498,9.498,23.525,10.869,31.331,3.063,7.806-7.806,6.435-21.833-3.063-31.331-.909-.909-1.869-1.719-2.852-2.478,1.231,.158,2.493,.241,3.778,.241,13.432,0,24.321-8.949,24.321-19.988Zm-56.578,19.162c-3.937,3.937-5.532,9.456-4.936,15.178-3.625-4.469-8.658-7.241-14.226-7.241s-10.602,2.772-14.226,7.241c.597-5.722-.999-11.242-4.936-15.178-3.937-3.937-9.456-5.533-15.178-4.936,4.469-3.624,7.241-8.658,7.241-14.226s-2.772-10.602-7.241-14.226c5.722,.597,11.241-.999,15.178-4.936,3.937-3.937,5.533-9.456,4.936-15.178,3.624,4.469,8.658,7.241,14.226,7.241s10.602-2.772,14.226-7.241c-.597,5.722,.999,11.242,4.936,15.178,3.937,3.937,9.456,5.533,15.178,4.936-4.469,3.624-7.241,8.658-7.241,14.226s2.772,10.602,7.241,14.226c-5.722-.597-11.242,.999-15.178,4.936Z"/><path fill="none" stroke="#241f20" stroke-linejoin="round" stroke-width="16" d="M342.814,768.606c0-11.039-10.889-19.988-24.321-19.988-1.285,0-2.547,.083-3.778,.241,.982-.759,1.943-1.569,2.852-2.478,9.498-9.498,10.869-23.525,3.063-31.331-7.806-7.806-21.833-6.435-31.331,3.063-.909,.909-1.719,1.869-2.478,2.852,.158-1.232,.241-2.493,.241-3.778,0-13.432-8.949-24.32-19.988-24.32s-19.988,10.889-19.988,24.32c0,1.285,.083,2.547,.241,3.778-.759-.982-1.57-1.943-2.478-2.852-9.498-9.498-23.525-10.869-31.331-3.063-7.806,7.806-6.434,21.833,3.063,31.331,.909,.909,1.869,1.719,2.852,2.478-1.231-.158-2.493-.241-3.778-.241-13.432,0-24.32,8.949-24.32,19.988s10.889,19.988,24.32,19.988c1.285,0,2.547-.083,3.778-.241-.982,.759-1.943,1.569-2.852,2.478-9.498,9.498-10.869,23.525-3.063,31.331,7.806,7.806,21.833,6.434,31.331-3.063,.909-.909,1.719-1.869,2.478-2.852-.158,1.231-.241,2.493-.241,3.778,0,13.432,8.949,24.32,19.988,24.32s19.988-10.889,19.988-24.32c0-1.285-.083-2.547-.241-3.778,.759,.982,1.57,1.943,2.478,2.852,9.498,9.498,23.525,10.869,31.331,3.063,7.806-7.806,6.435-21.833-3.063-31.331-.909-.909-1.869-1.719-2.852-2.478,1.231,.158,2.493,.241,3.778,.241,13.432,0,24.321-8.949,24.321-19.988Zm-56.578,19.162c-3.937,3.937-5.532,9.456-4.936,15.178-3.625-4.469-8.658-7.241-14.226-7.241s-10.602,2.772-14.226,7.241c.597-5.722-.999-11.242-4.936-15.178-3.937-3.937-9.456-5.533-15.178-4.936,4.469-3.624,7.241-8.658,7.241-14.226s-2.772-10.602-7.241-14.226c5.722,.597,11.241-.999,15.178-4.936,3.937-3.937,5.533-9.456,4.936-15.178,3.624,4.469,8.658,7.241,14.226,7.241s10.602-2.772,14.226-7.241c-.597,5.722,.999,11.242,4.936,15.178,3.937,3.937,9.456,5.533,15.178,4.936-4.469,3.624-7.241,8.658-7.241,14.226s2.772,10.602,7.241,14.226c-5.722-.597-11.242,.999-15.178,4.936Z"/></g><circle cx="267.074" cy="768.606" r="40.054" fill="#fff" stroke="#241f20" stroke-linejoin="round" stroke-width="16"/></g><g><path fill="#fff" d="M350.245,1255.088l-44.685,62.348h138.512v-7.772c0-11.245,9.116-20.36,20.36-20.36h23.543c11.245,0,20.36,9.116,20.36,20.36v7.772h41.03v-62.348h-199.121Z"/><path fill="none" stroke="#241f20" stroke-linejoin="round" stroke-width="24" d="M350.245,1255.088l-44.685,62.348h138.512v-7.772c0-11.245,9.116-20.36,20.36-20.36h23.543c11.245,0,20.36,9.116,20.36,20.36v7.772h41.03v-62.348h-199.121Z"/></g><g><path fill="#fff" d="M590.396,1309.664c0-11.245,9.116-20.36,20.36-20.36h23.543c11.245,0,20.36,9.116,20.36,20.36v7.772h138.512l-36.685-62.348h-207.121v62.348h41.03v-7.772Z"/><path fill="none" stroke="#241f20" stroke-linejoin="round" stroke-width="24" d="M590.396,1309.664c0-11.245,9.116-20.36,20.36-20.36h23.543c11.245,0,20.36,9.116,20.36,20.36v7.772h138.512l-36.685-62.348h-207.121v62.348h41.03v-7.772Z"/></g><g><path fill="#fff" d="M531.173,408.764h-68.355c-25.804,0-46.723,20.919-46.723,46.723h44.185c14.9,0,28.16-6.983,36.715-17.844,8.555,10.862,21.815,17.844,36.715,17.844h44.186c0-25.805-20.919-46.723-46.723-46.723Z"/><path fill="none" stroke="#241f20" stroke-linejoin="round" stroke-width="16" d="M531.173,408.764h-68.355c-25.804,0-46.723,20.919-46.723,46.723h44.185c14.9,0,28.16-6.983,36.715-17.844,8.555,10.862,21.815,17.844,36.715,17.844h44.186c0-25.805-20.919-46.723-46.723-46.723Z"/></g><g><path fill="#fff" stroke="#241f20" stroke-linejoin="round" stroke-width="24" d="M830.655,882.969h94.975v91.419h-139.324v-47.069c0-24.477,19.872-44.349,44.349-44.349Z" transform="translate(-72.71 1784.646) rotate(-90)"/><line x1="868.394" x2="868.394" y1="998.34" y2="947.358" fill="none" stroke="#241f20" stroke-linejoin="round" stroke-width="12"/><line x1="843.972" x2="843.972" y1="991.572" y2="947.358" fill="none" stroke="#241f20" stroke-linejoin="round" stroke-width="12"/></g><path fill="#fff" stroke="#241f20" stroke-linejoin="round" stroke-width="24" d="M903.757,701.422v215.97h-103.908c-21.744,0-39.37-17.627-39.37-39.37v-117.814"/><line x1="757.935" x2="903.757" y1="884.123" y2="884.123" fill="none" stroke="#241f20" stroke-linejoin="round" stroke-width="16"/></g></g></svg>