<?xml version="1.0" encoding="UTF-8"?><svg id="b" xmlns="http://www.w3.org/2000/svg" xmlns:xlink="http://www.w3.org/1999/xlink" viewBox="0 0 1112.475 1506.029"><defs><clipPath id="d"><rect x="45.028" y="370.018" width="107.009" height="239.013" fill="none"/></clipPath><clipPath id="e"><rect x="802.639" y="210.583" width="309.836" height="253.291" fill="none"/></clipPath></defs><g id="c"><g><polygon points="304.212 698.041 387.081 916.512 497.521 916.512 607.963 916.512 690.831 698.041 304.212 698.041" fill="#fff" stroke="#241f20" stroke-linejoin="round" stroke-width="24"/><rect x="239.064" y="520.019" width="531.557" height="178.022" fill="#fff" stroke="#241f20" stroke-linejoin="round" stroke-width="24"/><path d="M495.934,618.688h0c-60.071,.159-108.853-48.494-108.853-108.565v-197.142h217.132v197.142c0,59.847-48.432,108.407-108.278,108.565Z" fill="#fff" stroke="#241f20" stroke-linejoin="round" stroke-width="24"/><g><path d="M174.495,520.019v-200.991H43.85v322.062c0,31.454,25.498,56.952,56.952,56.952H239.064v-178.022h-64.569Z" fill="#fff"/><path d="M174.495,520.019v-200.991H43.85v322.062c0,31.454,25.498,56.952,56.952,56.952H239.064v-178.022h-64.569Z" fill="none" stroke="#241f20" stroke-linejoin="round" stroke-width="24"/></g><g><path d="M173.753,126.275c-24.397,0-44.176,19.778-44.176,44.176v55.037H12v122.831c0,12.117,9.823,21.94,21.94,21.94H174.495V126.275h-.742Z" fill="#fff"/><path d="M173.753,126.275c-24.397,0-44.176,19.778-44.176,44.176v55.037H12v122.831c0,12.117,9.823,21.94,21.94,21.94H174.495V126.275h-.742Z" fill="none" stroke="#241f20" stroke-linejoin="round" stroke-width="24"/></g><path d="M62.202,272.458h23.485c12.971,0,23.485-10.515,23.485-23.485h0c0-12.971-10.515-23.485-23.485-23.485H12v124.854c0,8.868,7.189,16.058,16.058,16.058h57.629c12.971,0,23.485-10.515,23.485-23.485h0c0-12.971-10.515-23.485-23.485-23.485h-23.485" fill="#fff" stroke="#241f20" stroke-linejoin="round" stroke-width="16"/><g clip-path="url(#d)"><g><circle cx="43.85" cy="491.102" r="89.115" fill="none" stroke="#241f20" stroke-linejoin="round" stroke-width="12"/><circle cx="43.85" cy="491.102" r="62.839" fill="none" stroke="#241f20" stroke-linejoin="round" stroke-width="12"/><circle cx="43.85" cy="491.102" r="36.333" fill="none" stroke="#241f20" stroke-linejoin="round" stroke-width="12"/></g></g><g><rect x="100.34" y="592.364" width="82.233" height="82.233" transform="translate(489.37 85.517) rotate(45)" fill="none" stroke="#241f20" stroke-linejoin="round" stroke-width="12"/><rect x="124.44" y="616.463" width="34.034" height="34.034" transform="translate(489.37 85.517) rotate(45)" fill="none" stroke="#241f20" stroke-linejoin="round" stroke-width="12"/></g><g><path d="M524.997,405.873h27.096c30.431,0,55.137,24.706,55.137,55.137v27.096h-82.233v-82.233h0Z" transform="translate(481.88 -269.382) rotate(45)" fill="none" stroke="#241f20" stroke-linejoin="round" stroke-width="12"/><path d="M549.097,429.973h6.817c15.022,0,27.217,12.196,27.217,27.217v6.817h-34.034v-34.034h0Z" transform="translate(481.88 -269.382) rotate(45)" fill="none" stroke="#241f20" stroke-linejoin="round" stroke-width="12"/></g><g><polyline points="414.791 578.97 502.659 491.102 583.353 571.796" fill="none" stroke="#241f20" stroke-linejoin="round" stroke-width="12"/><polyline points="430.508 606.491 501.99 535.009 567.636 600.655" fill="none" stroke="#241f20" stroke-linejoin="round" stroke-width="12"/><polyline points="460.382 616.781 500.719 576.445 537.762 613.488" fill="none" stroke="#241f20" stroke-linejoin="round" stroke-width="12"/></g><line x1="387.081" y1="465.834" x2="443.008" y2="465.834" fill="none" stroke="#241f20" stroke-linejoin="round" stroke-width="12"/><line x1="387.081" y1="491.102" x2="425.701" y2="491.102" fill="none" stroke="#241f20" stroke-linejoin="round" stroke-width="12"/><line x1="285.085" y1="520.924" x2="285.085" y2="699.971" fill="none" stroke="#241f20" stroke-linejoin="round" stroke-width="16"/><line x1="722.086" y1="520.924" x2="722.086" y2="699.971" fill="none" stroke="#241f20" stroke-linejoin="round" stroke-width="16"/><g><path d="M540,93.154h-38.932c-14.199-46.96-57.8-81.154-109.393-81.154h-94.966V357.821h259.335c26.603,0,48.169-21.566,48.169-48.169V157.366c0-35.464-28.749-64.213-64.213-64.213Z" fill="#fff"/><path d="M540,93.154h-38.932c-14.199-46.96-57.8-81.154-109.393-81.154h-94.966V357.821h259.335c26.603,0,48.169-21.566,48.169-48.169V157.366c0-35.464-28.749-64.213-64.213-64.213Z" fill="none" stroke="#241f20" stroke-linejoin="round" stroke-width="24"/></g><path d="M334.77,12v124.795c0,20.539,16.651,37.19,37.19,37.19h64.535" fill="none" stroke="#241f20" stroke-linejoin="round" stroke-width="12"/><path d="M379.646,12v124.984c0,20.435,16.566,37.001,37.001,37.001h64.723" fill="none" stroke="#241f20" stroke-linejoin="round" stroke-width="12"/><path d="M430.508,12V119.769c0,29.943,24.273,54.216,54.216,54.216" fill="none" stroke="#241f20" stroke-linejoin="round" stroke-width="12"/><path d="M1085.258,1337.767h-197.516v159.542h44.732v-55.4l43.596-29.717v82.864h32.795v-74.681c0-19.106,9.446-36.976,25.233-47.737l51.159-34.871Z" fill="#fff" stroke="#241f20" stroke-linejoin="round" stroke-width="16"/><path d="M1093.588,1427.099c0-10.873-19.688-38.81-19.688-38.81,0,0-19.688,27.937-19.688,38.81s8.814,19.688,19.688,19.688,19.688-8.814,19.688-19.688Z" fill="#fff" stroke="#241f20" stroke-linejoin="round" stroke-width="16"/><path d="M1061.733,1172.084c-7.688,7.688-13.522,41.364-13.522,41.364,0,0,33.676-5.833,41.364-13.522,7.688-7.688,7.688-20.154,0-27.842-7.688-7.688-20.154-7.688-27.842,0Z" fill="#fff" stroke="#241f20" stroke-linejoin="round" stroke-width="16"/><rect x="453.852" y="1104.23" width="150" height="182.838" fill="#fff" stroke="#241f20" stroke-linejoin="round" stroke-width="24"/><rect x="453.852" y="1287.068" width="150" height="142.354" fill="#fff" stroke="#241f20" stroke-linejoin="round" stroke-width="24"/><rect x="387.081" y="917.844" width="217.132" height="254.273" fill="#fff" stroke="#241f20" stroke-linejoin="round" stroke-width="24"/><path d="M519.163,241.918h-17.701v-67.933h-204.753v244.711h132.502c39.903,0,72.251-32.348,72.251-72.251v-33.464h17.701c19.624,0,35.531-15.908,35.531-35.531h0c0-19.623-15.908-35.531-35.531-35.531Z" fill="#fff" stroke="#241f20" stroke-linejoin="round" stroke-width="24"/><path d="M381.84,318.102h-29.35c-10.788,0-19.534-8.746-19.534-19.534v-46.633l-34.319-8.437" fill="none" stroke="#241f20" stroke-linejoin="round" stroke-width="16"/><line x1="387.081" y1="249.542" x2="451.451" y2="232.789" fill="none" stroke="#241f20" stroke-linejoin="round" stroke-width="16"/><path d="M417.17,267.48c-13.919,0-25.202,10.715-25.202,23.933h50.403c0-13.217-11.284-23.933-25.202-23.933Z" fill="#241f20"/><path d="M368.027,366.616h42.009c19.959,0,36.139-16.18,36.139-36.139v-3.06" fill="none" stroke="#241f20" stroke-linejoin="round" stroke-width="16"/><path d="M393.258,916.539h308.355v152.886h-181.028c-70.273,0-127.327-57.053-127.327-127.327v-25.559h0Z" fill="#fff" stroke="#241f20" stroke-linejoin="round" stroke-width="24"/><path d="M701.613,916.539h171.727c60.527,0,109.667,49.14,109.667,109.667v43.219h-281.394v-152.886h0Z" fill="#fff" stroke="#241f20" stroke-linejoin="round" stroke-width="24"/><rect x="842.31" y="1069.424" width="140.697" height="202.5" fill="#fff" stroke="#241f20" stroke-linejoin="round" stroke-width="24"/><path d="M842.31,1271.924h177.105c36.34,0,65.843,29.503,65.843,65.843h-177.105c-36.34,0-65.843-29.503-65.843-65.843h0Z" fill="#fff" stroke="#241f20" stroke-linejoin="round" stroke-width="24"/><line x1="407.102" y1="999.89" x2="701.613" y2="999.89" fill="none" stroke="#241f20" stroke-linejoin="round" stroke-width="16"/><line x1="407.102" y1="973.76" x2="701.613" y2="973.76" fill="none" stroke="#241f20" stroke-linejoin="round" stroke-width="16"/><line x1="876.824" y1="1068.599" x2="876.824" y2="1271.065" fill="none" stroke="#241f20" stroke-linejoin="round" stroke-width="8"/><line x1="948.163" y1="1068.599" x2="948.163" y2="1271.065" fill="none" stroke="#241f20" stroke-linejoin="round" stroke-width="8"/><line x1="913.484" y1="1068.599" x2="913.484" y2="1271.065" fill="none" stroke="#241f20" stroke-linejoin="round" stroke-width="8"/><line x1="493.522" y1="1287.509" x2="493.522" y2="1429.863" fill="none" stroke="#241f20" stroke-linejoin="round" stroke-width="8"/><line x1="563.487" y1="1287.068" x2="563.487" y2="1429.422" fill="none" stroke="#241f20" stroke-linejoin="round" stroke-width="8"/><line x1="530.182" y1="1287.509" x2="530.182" y2="1429.863" fill="none" stroke="#241f20" stroke-linejoin="round" stroke-width="8"/><path d="M453.852,1428.186h177.105c36.34,0,65.843,29.503,65.843,65.843h-242.948v-65.843h0Z" fill="#fff" stroke="#241f20" stroke-linejoin="round" stroke-width="24"/><path d="M62.202,272.458h23.485c12.971,0,23.485,10.515,23.485,23.485h0c0,12.971-10.515,23.485-23.485,23.485h-23.485" fill="#fff" stroke="#241f20" stroke-linejoin="round" stroke-width="16"/><path d="M565.038,909.311c-2.255-23.251-3.618-46.488-4.792-69.784-.215-3.904-.462-13.331-.998-17.042-2.673-22.734-18.716-42.73-40.105-50.187-34.29-12.276-71.903,9.284-79.344,44.951-1.589,6.207-1.449,15.839-1.88,22.279-.395,7.753-.786,15.507-1.266,23.261-.938,15.508-2.019,31.016-3.547,46.523-2.268-23.25-3.638-46.488-4.813-69.784-.146-2.395-.573-12.485-.634-14.69-1.163-39.136,32.298-72.329,71.412-71.958,35.408-.358,67.204,27.335,70.94,62.498,1.065,7.114,.005,16.947-.182,24.151-1.175,23.296-2.537,46.533-4.792,69.784h0Z" fill="#241f20"/><g><circle cx="802.639" cy="337.499" r="126.375" fill="#fff" stroke="#241f20" stroke-linejoin="round" stroke-width="24"/><g><polygon points="802.538 291.557 759.51 322.819 775.946 373.401 829.131 373.401 845.566 322.819 802.538 291.557" fill="none" stroke="#241f20" stroke-linejoin="round" stroke-width="12"/><polygon points="828.153 438.203 776.94 438.203 753.427 401.733 775.946 373.401 829.131 373.401 851.65 401.733 828.153 438.203" fill="none" stroke="#241f20" stroke-linejoin="round" stroke-width="12"/><polygon points="884.255 273.247 839.998 239.559 802.634 248.774 802.538 291.557 845.566 322.819 884.678 308.846 884.255 273.247" fill="none" stroke="#241f20" stroke-linejoin="round" stroke-width="12"/><polygon points="884.678 308.846 910.19 342.297 889.282 395.461 851.65 401.733 829.131 373.401 845.566 322.819 884.678 308.846" fill="none" stroke="#241f20" stroke-linejoin="round" stroke-width="12"/><polygon points="720.399 308.846 694.887 342.297 715.794 395.461 753.427 401.733 775.946 373.401 759.51 322.819 720.399 308.846" fill="none" stroke="#241f20" stroke-linejoin="round" stroke-width="12"/><line x1="828.153" y1="438.203" x2="847.211" y2="447.741" fill="none" stroke="#241f20" stroke-linejoin="round" stroke-width="12"/><line x1="776.924" y1="438.203" x2="753.427" y2="447.741" fill="none" stroke="#241f20" stroke-linejoin="round" stroke-width="12"/><line x1="889.282" y1="395.461" x2="900.662" y2="405.802" fill="none" stroke="#241f20" stroke-linejoin="round" stroke-width="12"/><line x1="910.19" y1="342.297" x2="919.042" y2="339.616" fill="none" stroke="#241f20" stroke-linejoin="round" stroke-width="12"/><line x1="715.794" y1="395.461" x2="706.494" y2="408.369" fill="none" stroke="#241f20" stroke-linejoin="round" stroke-width="12"/><line x1="694.887" y1="342.297" x2="686.034" y2="339.616" fill="none" stroke="#241f20" stroke-linejoin="round" stroke-width="12"/><line x1="884.255" y1="273.247" x2="897.822" y2="267.48" fill="none" stroke="#241f20" stroke-linejoin="round" stroke-width="12"/><line x1="839.998" y1="239.559" x2="843.278" y2="220.924" fill="none" stroke="#241f20" stroke-linejoin="round" stroke-width="12"/><polygon points="720.821 273.247 765.078 239.559 802.442 248.774 802.538 291.557 759.51 322.819 720.399 308.846 720.821 273.247" fill="none" stroke="#241f20" stroke-linejoin="round" stroke-width="12"/><line x1="720.821" y1="273.247" x2="707.254" y2="267.48" fill="none" stroke="#241f20" stroke-linejoin="round" stroke-width="12"/><line x1="765.078" y1="239.559" x2="761.798" y2="220.924" fill="none" stroke="#241f20" stroke-linejoin="round" stroke-width="12"/></g></g><g><path d="M994.037,741.987v-118.979h-.018c-.748-57.006-47.183-102.989-104.366-102.989h-119.031v178.022h92.769v66.6c0,52.882,42.869,95.751,95.751,95.751h79.792v-118.405h-44.897Z" fill="#fff"/><path d="M994.037,741.987v-118.979h-.018c-.748-57.006-47.183-102.989-104.366-102.989h-119.031v178.022h92.769v66.6c0,52.882,42.869,95.751,95.751,95.751h79.792v-118.405h-44.897Z" fill="none" stroke="#241f20" stroke-linejoin="round" stroke-width="24"/></g><path d="M1007.204,860.393h31.014c21.798,0,39.468-17.671,39.468-39.468h-70.482" fill="#fff" stroke="#241f20" stroke-linejoin="round" stroke-width="24"/><polyline points="1007.204 820.924 1077.686 820.924 1077.686 781.456 1007.204 781.456" fill="#fff" stroke="#241f20" stroke-linejoin="round" stroke-width="24"/><polyline points="1007.204 781.456 1077.686 781.456 1077.686 741.987 1007.204 741.987" fill="#fff" stroke="#241f20" stroke-linejoin="round" stroke-width="24"/><polyline points="819.131 698.041 839.131 662.62 819.131 627.198 839.131 591.777 819.131 556.351 839.131 520.924" fill="none" stroke="#241f20" stroke-linejoin="round" stroke-width="16"/><g><circle cx="877.293" cy="564.684" r="10.633" fill="none" stroke="#241f20" stroke-linejoin="round" stroke-width="12"/><circle cx="877.293" cy="612.126" r="10.633" fill="none" stroke="#241f20" stroke-linejoin="round" stroke-width="12"/><circle cx="877.293" cy="656.211" r="10.633" fill="none" stroke="#241f20" stroke-linejoin="round" stroke-width="12"/></g><path d="M863.391,713.833h53.806c17.741,0,32.122,14.382,32.122,32.122v113.939" fill="none" stroke="#241f20" stroke-linejoin="round" stroke-width="12"/><path d="M863.391,740.847h36.769c12.123,0,21.951,9.828,21.951,21.951v77.861" fill="none" stroke="#241f20" stroke-linejoin="round" stroke-width="12"/><path d="M863.391,765.709h20.889c6.887,0,12.471,5.583,12.471,12.471v57.525" fill="none" stroke="#241f20" stroke-linejoin="round" stroke-width="12"/><g><g><path d="M181.232,765.709c-64.706,0-117.161,52.455-117.161,117.161s52.455,117.161,117.161,117.161c5.38,0,10.673-.371,15.861-1.073v16.176c0,33.04,23.308,60.625,54.376,67.238v91.008c0,12.958,10.504,23.461,23.462,23.461h0c12.958,0,23.462-10.504,23.462-23.461v-290.51c0-64.707-52.455-117.161-117.161-117.161Z" fill="#fff"/><path d="M181.232,765.709c-64.706,0-117.161,52.455-117.161,117.161s52.455,117.161,117.161,117.161c5.38,0,10.673-.371,15.861-1.073v16.176c0,33.04,23.308,60.625,54.376,67.238v91.008c0,12.958,10.504,23.461,23.462,23.461h0c12.958,0,23.462-10.504,23.462-23.461v-290.51c0-64.707-52.455-117.161-117.161-117.161Z" fill="none" stroke="#241f20" stroke-linejoin="round" stroke-width="24"/></g><g><polygon points="181.232 843.615 141.744 872.304 156.827 918.725 205.637 918.725 220.72 872.304 181.232 843.615" fill="none" stroke="#241f20" stroke-linejoin="round" stroke-width="12"/><polygon points="209.424 970.924 157.739 978.196 136.161 944.726 156.827 918.725 205.637 918.725 226.303 944.726 209.424 970.924" fill="none" stroke="#241f20" stroke-linejoin="round" stroke-width="12"/><polygon points="256.226 826.811 215.61 795.894 181.32 804.351 181.232 843.615 220.72 872.304 256.614 859.48 256.226 826.811" fill="none" stroke="#241f20" stroke-linejoin="round" stroke-width="12"/><polygon points="256.614 859.48 280.027 890.18 260.84 938.97 226.303 944.726 205.637 918.725 220.72 872.304 256.614 859.48" fill="none" stroke="#241f20" stroke-linejoin="round" stroke-width="12"/><polygon points="105.85 859.48 82.437 890.18 101.624 938.97 136.161 944.726 156.827 918.725 141.744 872.304 105.85 859.48" fill="none" stroke="#241f20" stroke-linejoin="round" stroke-width="12"/><polyline points="209.424 970.924 247.743 1008.769 298.393 1000.032" fill="none" stroke="#241f20" stroke-linejoin="round" stroke-width="12"/><line x1="157.725" y1="978.196" x2="136.161" y2="986.949" fill="none" stroke="#241f20" stroke-linejoin="round" stroke-width="12"/><line x1="260.84" y1="938.97" x2="298.393" y2="978.196" fill="none" stroke="#241f20" stroke-linejoin="round" stroke-width="12"/><line x1="280.027" y1="890.18" x2="288.152" y2="887.719" fill="none" stroke="#241f20" stroke-linejoin="round" stroke-width="12"/><line x1="101.624" y1="938.97" x2="93.089" y2="950.816" fill="none" stroke="#241f20" stroke-linejoin="round" stroke-width="12"/><line x1="82.437" y1="890.18" x2="74.312" y2="887.719" fill="none" stroke="#241f20" stroke-linejoin="round" stroke-width="12"/><line x1="256.226" y1="826.811" x2="268.677" y2="821.517" fill="none" stroke="#241f20" stroke-linejoin="round" stroke-width="12"/><line x1="215.61" y1="795.894" x2="218.621" y2="778.792" fill="none" stroke="#241f20" stroke-linejoin="round" stroke-width="12"/><polygon points="106.238 826.811 146.854 795.894 181.144 804.351 181.232 843.615 141.744 872.304 105.85 859.48 106.238 826.811" fill="none" stroke="#241f20" stroke-linejoin="round" stroke-width="12"/><line x1="106.238" y1="826.811" x2="93.787" y2="821.517" fill="none" stroke="#241f20" stroke-linejoin="round" stroke-width="12"/><line x1="146.854" y1="795.894" x2="143.844" y2="778.792" fill="none" stroke="#241f20" stroke-linejoin="round" stroke-width="12"/></g><line x1="247.743" y1="1008.769" x2="215.61" y2="1062.072" fill="none" stroke="#241f20" stroke-linejoin="round" stroke-width="12"/><polyline points="298.393 1048.477 253.909 1079.938 253.909 1110.273 298.393 1120.924 298.393 1150.346 253.909 1169.282" fill="none" stroke="#241f20" stroke-linejoin="round" stroke-width="12"/></g><g><line x1="662.405" y1="1112.456" x2="802.639" y2="1112.456" fill="none" stroke="#241f20" stroke-linecap="round" stroke-linejoin="round" stroke-width="16"/><line x1="684.171" y1="1155.382" x2="802.639" y2="1155.382" fill="none" stroke="#241f20" stroke-linecap="round" stroke-linejoin="round" stroke-width="16"/><line x1="705.937" y1="1198.307" x2="802.639" y2="1198.307" fill="none" stroke="#241f20" stroke-linecap="round" stroke-linejoin="round" stroke-width="16"/><line x1="727.702" y1="1241.233" x2="802.639" y2="1241.233" fill="none" stroke="#241f20" stroke-linecap="round" stroke-linejoin="round" stroke-width="16"/><line x1="749.468" y1="1284.158" x2="802.639" y2="1284.158" fill="none" stroke="#241f20" stroke-linecap="round" stroke-linejoin="round" stroke-width="16"/><line x1="771.234" y1="1327.084" x2="802.639" y2="1327.084" fill="none" stroke="#241f20" stroke-linecap="round" stroke-linejoin="round" stroke-width="16"/></g><g clip-path="url(#e)"><circle cx="802.639" cy="337.499" r="282.358" fill="none" stroke="#241f20" stroke-linejoin="round" stroke-width="20"/><circle cx="802.639" cy="337.499" r="236.295" fill="none" stroke="#241f20" stroke-linejoin="round" stroke-width="20"/><circle cx="802.639" cy="337.499" r="191.397" fill="none" stroke="#241f20" stroke-linejoin="round" stroke-width="20"/></g><g><path d="M765.148,760.876h0c31.341,0,56.787,25.445,56.787,56.787v98.849h-56.787c-31.341,0-56.787-25.445-56.787-56.787v-42.063c0-31.341,25.445-56.787,56.787-56.787Z" fill="#fff" stroke="#241f20" stroke-linejoin="round" stroke-width="24"/><path d="M690.29,826.811h49.112c7.741,0,14.025,6.284,14.025,14.025h0c0,7.741-6.284,14.025-14.025,14.025h-63.137v-14.025c0-7.741,6.284-14.025,14.025-14.025Z" fill="#fff" stroke="#241f20" stroke-linejoin="round" stroke-width="16"/><circle cx="719.428" cy="806.837" r="19.973" fill="#fff" stroke="#241f20" stroke-linejoin="round" stroke-width="12"/><circle cx="759.375" cy="806.837" r="19.973" fill="#fff" stroke="#241f20" stroke-linejoin="round" stroke-width="12"/><circle cx="765.148" cy="807.277" r="6.087" fill="#241f20"/><circle cx="724.946" cy="807.277" r="6.087" fill="#241f20"/></g><g><path d="M630.944,1266.904h58.847v102.435c0,32.478-26.368,58.847-58.847,58.847h0c-32.478,0-58.847-26.368-58.847-58.847v-43.589c0-32.478,26.368-58.847,58.847-58.847Z" transform="translate(1261.888 2695.09) rotate(180)" fill="#fff" stroke="#241f20" stroke-linejoin="round" stroke-width="24"/><path d="M643.09,1336.188h65.428c8.021,0,14.534,6.512,14.534,14.534h0c0,8.021-6.512,14.534-14.534,14.534h-50.894c-8.021,0-14.534-6.512-14.534-14.534v-14.534h0Z" transform="translate(1366.142 2701.445) rotate(-180)" fill="#fff" stroke="#241f20" stroke-linejoin="round" stroke-width="16"/><circle cx="678.322" cy="1315.491" r="20.698" fill="#fff" stroke="#241f20" stroke-linejoin="round" stroke-width="12"/><circle cx="636.926" cy="1315.491" r="20.698" fill="#fff" stroke="#241f20" stroke-linejoin="round" stroke-width="12"/><circle cx="630.944" cy="1315.946" r="6.307" fill="#241f20"/><circle cx="672.604" cy="1315.946" r="6.307" fill="#241f20"/></g><path d="M840.598,1416.381c9.927-9.927,17.459-53.408,17.459-53.408,0,0-43.481,7.532-53.408,17.459-9.927,9.927-9.927,26.022,0,35.95,9.927,9.927,26.022,9.927,35.95,0Z" fill="#fff" stroke="#241f20" stroke-linejoin="round" stroke-width="16"/><g><line x1="1016.485" y1="525.141" x2="1093.588" y2="525.141" fill="none" stroke="#241f20" stroke-linejoin="round" stroke-width="16"/><line x1="1028.929" y1="568.434" x2="1093.588" y2="568.434" fill="none" stroke="#241f20" stroke-linejoin="round" stroke-width="16"/><line x1="1041.373" y1="611.727" x2="1093.588" y2="611.727" fill="none" stroke="#241f20" stroke-linejoin="round" stroke-width="16"/><line x1="1053.817" y1="655.02" x2="1093.588" y2="655.02" fill="none" stroke="#241f20" stroke-linejoin="round" stroke-width="16"/><line x1="1066.261" y1="698.312" x2="1093.588" y2="698.312" fill="none" stroke="#241f20" stroke-linejoin="round" stroke-width="16"/></g></g></g></svg>