<svg xmlns="http://www.w3.org/2000/svg" xmlns:xlink="http://www.w3.org/1999/xlink" id="b" viewBox="0 0 1380.697 1749.28"><defs><clipPath id="d"><path fill="#fff" stroke="#241f20" stroke-linejoin="round" stroke-width="24" d="M258.526,536.895h88.357v155.83c0,57.479-46.666,104.145-104.145,104.145h0c-57.479,0-104.145-46.666-104.145-104.145v-35.898c0-66.192,53.74-119.932,119.932-119.932Z"/></clipPath><clipPath id="e"><path fill="none" stroke="#241f20" stroke-linejoin="round" stroke-width="24" d="M884.128,591.172v170.723h-259.152v150h241.499c74.846,0,135.52-60.674,135.52-135.52v-185.203h-117.867Z"/></clipPath><clipPath id="f"><path fill="#fff" stroke="#241f20" stroke-linejoin="round" stroke-width="24" d="M444.192,1170.493l-80.407-38.254v-1.702l80.407-38.254c9.312-4.43,13.798-15.444,9.701-24.907-4.3-9.935-15.937-14.246-25.63-9.635l-82.84,39.411H30.062v8.877c0,58.468,47.398,105.866,105.866,105.866h183.333c22.297,0,40.764-16.39,44.015-37.779l64.987,30.918c9.692,4.611,21.329,.301,25.63-9.634,4.096-9.463-.389-20.477-9.701-24.907Z"/></clipPath><clipPath id="g"><path fill="#fff" stroke="#241f20" stroke-linejoin="round" stroke-width="24" d="M311.145,351.92h88.357v155.83c0,57.479-46.666,104.145-104.145,104.145h0c-57.479,0-104.145-46.666-104.145-104.145v-35.898c0-66.192,53.74-119.932,119.932-119.932Z"/></clipPath><clipPath id="h"><path fill="#241f20" stroke="#241f20" stroke-linejoin="round" stroke-width="12" d="M543.397,456.42h0c21.005,0,38.058,17.053,38.058,38.058v29.294h-53.784c-12.325,0-22.331-10.006-22.331-22.331v-6.963c0-21.005,17.053-38.058,38.058-38.058Z" transform="translate(1086.794 980.192) rotate(-180)"/></clipPath><clipPath id="i"><path fill="#241f20" stroke="#241f20" stroke-linejoin="round" stroke-width="12" d="M467.686,456.42h0c21.005,0,38.058,17.053,38.058,38.058v7.573c0,11.988-9.733,21.721-21.721,21.721h-54.394v-29.294c0-21.005,17.053-38.058,38.058-38.058Z" transform="translate(935.371 980.192) rotate(-180)"/></clipPath></defs><g id="c"><g><g><rect width="451.843" height="750" x="173.133" y="761.895" fill="#fff" stroke="#241f20" stroke-linejoin="round" stroke-width="24"/><g><path fill="#fff" d="M258.526,536.895h88.357v155.83c0,57.479-46.666,104.145-104.145,104.145h0c-57.479,0-104.145-46.666-104.145-104.145v-35.898c0-66.192,53.74-119.932,119.932-119.932Z"/><g clip-path="url(#d)"><path fill="#fff" stroke="#241f20" stroke-linejoin="round" stroke-width="12" d="M273.178,536.895h73.706v129.99c0,47.948-38.927,86.875-86.875,86.875h0c-47.948,0-86.875-38.927-86.875-86.875v-29.945c0-55.216,44.828-100.044,100.044-100.044Z"/><path fill="#fff" stroke="#241f20" stroke-linejoin="round" stroke-width="12" d="M288.467,536.895h58.417v103.026c0,38.002-30.853,68.854-68.854,68.854h0c-38.002,0-68.854-30.853-68.854-68.854v-23.734c0-43.763,35.53-79.292,79.292-79.292Z"/><path fill="#fff" stroke="#241f20" stroke-linejoin="round" stroke-width="12" d="M302.705,536.895h44.179v77.915c0,28.74-23.333,52.072-52.072,52.072h0c-28.74,0-52.072-23.333-52.072-52.072v-17.949c0-33.096,26.87-59.966,59.966-59.966Z"/></g><path fill="none" stroke="#241f20" stroke-linejoin="round" stroke-width="24" d="M258.526,536.895h88.357v155.83c0,57.479-46.666,104.145-104.145,104.145h0c-57.479,0-104.145-46.666-104.145-104.145v-35.898c0-66.192,53.74-119.932,119.932-119.932Z"/></g><path fill="#fff" stroke="#241f20" stroke-linejoin="round" stroke-width="24" d="M472.606,638.364v286.444l-173.866-162.913V415.892h100.761v-63.971h169.106v213.555c0,40.256-32.634,72.889-72.889,72.889h-23.112Z"/><rect width="300" height="67.802" x="298.741" y="287.107" fill="#fff" stroke="#241f20" stroke-linejoin="round" stroke-width="24"/><path fill="#fff" stroke="#241f20" stroke-linejoin="round" stroke-width="24" d="M399.502,351.92h112.737c0,41.326-33.551,74.877-74.877,74.877h-37.86v-74.877h0Z"/><path fill="#fff" stroke="#241f20" stroke-linejoin="round" stroke-width="24" d="M549.678,351.92h.422c41.326,0,74.877,33.551,74.877,74.877h-75.299c-20.663,0-37.438-16.776-37.438-37.438h0c0-20.663,16.776-37.438,37.438-37.438Z" transform="translate(1137.216 778.717) rotate(180)"/><path fill="none" stroke="#241f20" stroke-linejoin="round" stroke-width="16" d="M514.171,481.908v48.039c0,16.781-13.604,30.385-30.385,30.385h0"/><path fill="#fff" stroke="#241f20" stroke-linejoin="round" stroke-width="24" d="M298.741,761.895l324.393,300,1.843,450h-187.282c-146.113,0-264.561-118.448-264.561-264.561v-485.439h125.607Z"/><line x1="216.982" x2="623.478" y1="761.895" y2="1146.041" fill="none" stroke="#241f20" stroke-linejoin="round" stroke-width="24"/><line x1="169.635" x2="624.976" y1="809.242" y2="1239.547" fill="none" stroke="#241f20" stroke-linejoin="round" stroke-width="24"/><g><g clip-path="url(#e)"><rect width="44.664" height="44.664" x="728.979" y="883.53" fill="none" stroke="#241f20" stroke-linejoin="round" stroke-width="12" transform="translate(642.028 2077.66) rotate(-135)"/><rect width="44.664" height="44.664" x="728.979" y="823.554" fill="none" stroke="#241f20" stroke-linejoin="round" stroke-width="12" transform="translate(684.437 1975.275) rotate(-135)"/><rect width="44.664" height="44.664" x="728.979" y="762.482" fill="none" stroke="#241f20" stroke-linejoin="round" stroke-width="12" transform="translate(727.621 1871.019) rotate(-135)"/><line x1="813.486" x2="813.486" y1="761.895" y2="911.895" fill="none" stroke="#241f20" stroke-linejoin="round" stroke-width="12"/><g><line x1="843.345" x2="843.345" y1="761.895" y2="767.895" fill="none" stroke="#241f20" stroke-linejoin="round" stroke-width="12"/><line x1="843.345" x2="843.345" y1="780.441" y2="899.622" fill="none" stroke="#241f20" stroke-dasharray="0 0 12.545 12.545" stroke-linejoin="round" stroke-width="12"/><line x1="843.345" x2="843.345" y1="905.895" y2="911.895" fill="none" stroke="#241f20" stroke-linejoin="round" stroke-width="12"/></g><circle cx="629.74" cy="835.575" r="50.248" fill="none" stroke="#241f20" stroke-linejoin="round" stroke-width="12"/><circle cx="629.74" cy="835.575" r="28.392" fill="none" stroke="#241f20" stroke-linejoin="round" stroke-width="12"/><circle cx="966.125" cy="869.924" r="49.308" fill="none" stroke="#241f20" stroke-linejoin="round" stroke-width="12"/><rect width="26.617" height="26.617" x="952.817" y="770.183" fill="none" stroke="#241f20" stroke-linejoin="round" stroke-width="12" transform="translate(836.984 -453.674) rotate(45)"/><rect width="26.617" height="26.617" x="892.571" y="796.941" fill="none" stroke="#241f20" stroke-linejoin="round" stroke-width="12"/><rect width="26.617" height="26.617" x="868.891" y="858.462" fill="none" stroke="#241f20" stroke-linejoin="round" stroke-width="12" transform="translate(-358.044 879.145) rotate(-45)"/></g><path fill="none" stroke="#241f20" stroke-linejoin="round" stroke-width="24" d="M884.128,591.172v170.723h-259.152v150h241.499c74.846,0,135.52-60.674,135.52-135.52v-185.203h-117.867Z"/></g><polygon fill="#fff" stroke="#241f20" stroke-linejoin="round" stroke-width="24" points="345.996 287.107 688.307 88.494 598.741 287.107 345.996 287.107"/><polygon fill="#fff" stroke="#241f20" stroke-linejoin="round" stroke-width="24" points="563.04 287.107 209.174 88.494 298.741 287.107 563.04 287.107"/><polygon fill="#fff" stroke="#241f20" stroke-linejoin="round" stroke-width="24" points="345.996 287.211 457.287 12 563.04 287.211 345.996 287.211"/><path fill="#fff" stroke="#241f20" stroke-linejoin="round" stroke-width="24" d="M173.199,761.895h0v335.257H33.627v-195.685c0-77.032,62.54-139.572,139.572-139.572Z"/><g><path fill="#fff" d="M444.192,1170.493l-80.407-38.254v-1.702l80.407-38.254c9.312-4.43,13.798-15.444,9.701-24.907-4.3-9.935-15.937-14.246-25.63-9.635l-82.84,39.411H30.062v8.877c0,58.468,47.398,105.866,105.866,105.866h183.333c22.297,0,40.764-16.39,44.015-37.779l64.987,30.918c9.692,4.611,21.329,.301,25.63-9.634,4.096-9.463-.389-20.477-9.701-24.907Z"/><g clip-path="url(#f)"><circle cx="138.594" cy="1211.895" r="82.936" fill="none" stroke="#241f20" stroke-linejoin="round" stroke-width="12"/><circle cx="138.594" cy="1211.895" r="59.331" fill="none" stroke="#241f20" stroke-linejoin="round" stroke-width="12"/><circle cx="138.594" cy="1211.895" r="35.799" fill="none" stroke="#241f20" stroke-linejoin="round" stroke-width="12"/><path fill="none" stroke="#241f20" stroke-linejoin="round" stroke-width="12" d="M295.795,1147.622h-5.547v-5.547c0-10.531-8.537-19.068-19.068-19.068h0c-10.531,0-19.068,8.537-19.068,19.068v43.684h43.684c10.531,0,19.068-8.537,19.068-19.068s-8.537-19.068-19.068-19.068Z"/></g><path fill="none" stroke="#241f20" stroke-linejoin="round" stroke-width="24" d="M444.192,1170.493l-80.407-38.254v-1.702l80.407-38.254c9.312-4.43,13.798-15.444,9.701-24.907-4.3-9.935-15.937-14.246-25.63-9.635l-82.84,39.411H30.062v8.877c0,58.468,47.398,105.866,105.866,105.866h183.333c22.297,0,40.764-16.39,44.015-37.779l64.987,30.918c9.692,4.611,21.329,.301,25.63-9.634,4.096-9.463-.389-20.477-9.701-24.907Z"/></g><rect width="507.757" height="75.385" x="145.176" y="1511.895" fill="#fff" stroke="#241f20" stroke-linejoin="round" stroke-width="24"/><path fill="#fff" stroke="#241f20" stroke-linejoin="round" stroke-width="24" d="M126.696,1587.28H671.414c29.079,0,52.687,23.608,52.687,52.687v22.698H74.009v-22.698c0-29.079,23.608-52.687,52.687-52.687Z"/><path fill="#fff" stroke="#241f20" stroke-linejoin="round" stroke-width="24" d="M65.411,1661.895H732.699c29.079,0,52.687,23.608,52.687,52.687v22.698H12.724v-22.698c0-29.079,23.608-52.687,52.687-52.687Z"/><rect width="37.865" height="19.79" x="391.763" y="470.306" fill="#241f20" stroke="#241f20" stroke-linejoin="round" stroke-width="8"/><line x1="560.232" x2="560.232" y1="1178.363" y2="1511.895" fill="none" stroke="#241f20" stroke-linejoin="round" stroke-width="24"/><line x1="490.725" x2="490.725" y1="1112.677" y2="1511.895" fill="none" stroke="#241f20" stroke-linejoin="round" stroke-width="24"/><circle cx="416.413" cy="210.957" r="26.057" fill="#fff" stroke="#241f20" stroke-linejoin="round" stroke-width="16"/><circle cx="479.74" cy="129.839" r="32.5" fill="#fff" stroke="#241f20" stroke-linejoin="round" stroke-width="16"/><circle cx="505.797" cy="237.014" r="26.057" fill="#fff" stroke="#241f20" stroke-linejoin="round" stroke-width="16"/><circle cx="589.097" cy="158.843" r="26.057" fill="#fff" stroke="#241f20" stroke-linejoin="round" stroke-width="16"/><circle cx="615.154" cy="229.341" r="26.057" fill="#fff" stroke="#241f20" stroke-linejoin="round" stroke-width="16"/><circle cx="319.939" cy="213.857" r="26.057" fill="#fff" stroke="#241f20" stroke-linejoin="round" stroke-width="16"/><path fill="none" stroke="#241f20" stroke-linejoin="round" stroke-width="12" d="M348.33,560.495c-28.39,0-51.4,23.01-51.4,51.4s23.01,51.4,51.4,51.4,51.4-23.01,51.4-51.4-23.02-51.4-51.4-51.4Zm0,81.47c-16.61,0-30.07-13.46-30.07-30.07s13.46-30.07,30.07-30.07,30.07,13.46,30.07,30.07-13.46,30.07-30.07,30.07Z"/><circle cx="253.239" cy="177.668" r="26.057" fill="#fff" stroke="#241f20" stroke-linejoin="round" stroke-width="16"/><g><path fill="#fff" d="M311.145,351.92h88.357v155.83c0,57.479-46.666,104.145-104.145,104.145h0c-57.479,0-104.145-46.666-104.145-104.145v-35.898c0-66.192,53.74-119.932,119.932-119.932Z"/><g clip-path="url(#g)"><path fill="#fff" stroke="#241f20" stroke-linejoin="round" stroke-width="12" d="M289.492,351.92h72.405v127.696c0,47.102-38.241,85.342-85.342,85.342h0c-47.102,0-85.342-38.241-85.342-85.342v-29.417c0-54.242,44.038-98.279,98.279-98.279Z"/><path fill="#fff" stroke="#241f20" stroke-linejoin="round" stroke-width="12" d="M270.492,351.92h58.407v103.009c0,37.996-30.848,68.843-68.843,68.843h0c-37.996,0-68.843-30.848-68.843-68.843v-23.73c0-43.755,35.524-79.279,79.279-79.279Z"/><path fill="#fff" stroke="#241f20" stroke-linejoin="round" stroke-width="12" d="M250.329,351.92h43.553v76.811c0,28.332-23.002,51.335-51.335,51.335h0c-28.332,0-51.335-23.002-51.335-51.335v-17.695c0-32.627,26.489-59.117,59.117-59.117Z"/></g><path fill="none" stroke="#241f20" stroke-linejoin="round" stroke-width="24" d="M311.145,351.92h88.357v155.83c0,57.479-46.666,104.145-104.145,104.145h0c-57.479,0-104.145-46.666-104.145-104.145v-35.898c0-66.192,53.74-119.932,119.932-119.932Z"/></g><g><circle cx="292.534" cy="747.581" r="22.693" fill="#fff" stroke="#241f20" stroke-linejoin="round" stroke-width="16"/><circle cx="337.92" cy="747.581" r="22.693" fill="#fff" stroke="#241f20" stroke-linejoin="round" stroke-width="16"/><circle cx="383.306" cy="747.581" r="22.693" fill="#fff" stroke="#241f20" stroke-linejoin="round" stroke-width="16"/><circle cx="428.691" cy="747.581" r="22.693" fill="#fff" stroke="#241f20" stroke-linejoin="round" stroke-width="16"/><circle cx="474.077" cy="747.581" r="22.693" fill="#fff" stroke="#241f20" stroke-linejoin="round" stroke-width="16"/></g><path fill="#fff" stroke="#241f20" stroke-linejoin="round" stroke-width="24" d="M27.945,1047.654H173.133v49.499H27.945c-8.8,0-15.945-7.145-15.945-15.945v-17.608c0-8.8,7.145-15.945,15.945-15.945Z"/><line x1="461.746" x2="505.826" y1="591.172" y2="591.172" fill="none" stroke="#241f20" stroke-linejoin="round" stroke-width="16"/><path fill="none" stroke="#241f20" stroke-linejoin="round" stroke-width="16" d="M173.811,1325.471v49.496c0,75.623,61.305,136.928,136.928,136.928h95.259"/><g><path fill="#241f20" d="M543.397,456.42h0c21.005,0,38.058,17.053,38.058,38.058v29.294h-53.784c-12.325,0-22.331-10.006-22.331-22.331v-6.963c0-21.005,17.053-38.058,38.058-38.058Z" transform="translate(1086.794 980.192) rotate(-180)"/><g clip-path="url(#h)"><line x1="582.08" x2="536.014" y1="516.53" y2="451.611" fill="none" stroke="#fff" stroke-linejoin="round" stroke-width="4"/><line x1="572.807" x2="519.263" y1="525.803" y2="450.343" fill="none" stroke="#fff" stroke-linejoin="round" stroke-width="8"/></g><path fill="none" stroke="#241f20" stroke-linejoin="round" stroke-width="12" d="M543.397,456.42h0c21.005,0,38.058,17.053,38.058,38.058v29.294h-53.784c-12.325,0-22.331-10.006-22.331-22.331v-6.963c0-21.005,17.053-38.058,38.058-38.058Z" transform="translate(1086.794 980.192) rotate(-180)"/></g><g><path fill="#241f20" d="M467.686,456.42h0c21.005,0,38.058,17.053,38.058,38.058v7.573c0,11.988-9.733,21.721-21.721,21.721h-54.394v-29.294c0-21.005,17.053-38.058,38.058-38.058Z" transform="translate(935.371 980.192) rotate(-180)"/><g clip-path="url(#i)"><line x1="506.368" x2="460.303" y1="516.53" y2="451.611" fill="none" stroke="#fff" stroke-linejoin="round" stroke-width="4"/><line x1="497.096" x2="443.551" y1="525.803" y2="450.343" fill="none" stroke="#fff" stroke-linejoin="round" stroke-width="8"/></g><path fill="none" stroke="#241f20" stroke-linejoin="round" stroke-width="12" d="M467.686,456.42h0c21.005,0,38.058,17.053,38.058,38.058v7.573c0,11.988-9.733,21.721-21.721,21.721h-54.394v-29.294c0-21.005,17.053-38.058,38.058-38.058Z" transform="translate(935.371 980.192) rotate(-180)"/></g></g><path fill="#fff" stroke="#241f20" stroke-linejoin="round" stroke-width="24" d="M1001.995,663.295v-34.486c0-24.532,7.324-48.505,21.034-68.849l80.515-119.47h-138.085l-18.061,36.251c-14.425,28.953-55.839,28.648-69.836-.514h0c-9.378-19.54-29.132-31.969-50.806-31.969h-35.654l73.915,116.732c12.484,19.715,19.111,42.57,19.111,65.906v36.399"/><g><polygon fill="#fff" stroke="#241f20" stroke-linejoin="round" stroke-width="24" points="838.392 418.958 1368.697 418.958 838.392 155.595 838.392 418.958"/><ellipse cx="926.466" cy="210.776" fill="#fff" stroke="#241f20" stroke-linejoin="round" stroke-width="24" rx="36.083" ry="21.79"/><ellipse cx="1103.544" cy="364.443" fill="#fff" stroke="#241f20" stroke-linejoin="round" stroke-width="24" rx="36.083" ry="21.79"/><ellipse cx="1240.62" cy="353.507" fill="#fff" stroke="#241f20" stroke-linejoin="round" stroke-width="24" rx="36.083" ry="21.79"/><ellipse cx="915.179" cy="364.443" fill="#fff" stroke="#241f20" stroke-linejoin="round" stroke-width="24" rx="36.083" ry="21.79"/><ellipse cx="1014.233" cy="303.868" fill="#fff" stroke="#241f20" stroke-linejoin="round" stroke-width="24" rx="51.684" ry="27.849"/><g><path fill="#fff" d="M796.379,418.958v42.013h347.478c17.88,57.402,71.435,99.076,134.724,99.076h17.562v93.524c0,20.03,16.242,36.272,36.272,36.272s36.282-16.242,36.282-36.272v-234.613H796.379Z"/><path fill="none" stroke="#241f20" stroke-linejoin="round" stroke-width="24" d="M796.379,418.958v42.013h347.478c17.88,57.402,71.435,99.076,134.724,99.076h17.562v93.524c0,20.03,16.242,36.272,36.272,36.272s36.282-16.242,36.282-36.272v-234.613H796.379Z"/></g><path fill="#fff" stroke="#241f20" stroke-linejoin="round" stroke-width="24" d="M796.379,111.388h0c23.187,0,42.013,18.825,42.013,42.013V439.965h-84.025V153.401c0-23.187,18.825-42.013,42.013-42.013Z"/><circle cx="796.379" cy="439.965" r="42.013" fill="#fff" stroke="#241f20" stroke-linejoin="round" stroke-width="24"/></g><line x1="873.925" x2="1001.995" y1="641.965" y2="641.965" fill="none" stroke="#241f20" stroke-linejoin="round" stroke-width="12"/><line x1="873.925" x2="1001.995" y1="663.777" y2="663.777" fill="none" stroke="#241f20" stroke-linejoin="round" stroke-width="12"/><path fill="none" stroke="#241f20" stroke-linecap="round" stroke-linejoin="round" stroke-width="12" d="M853.748,494.826l9.659,11.654c26.267,31.689,74.872,31.693,101.144,.007l12.059-14.544"/></g></g></svg>