<svg xmlns="http://www.w3.org/2000/svg" xmlns:xlink="http://www.w3.org/1999/xlink" id="b" viewBox="0 0 1412.985 1858.154"><defs><clipPath id="d"><path fill="#fff" stroke="#241f20" stroke-linejoin="round" stroke-width="24" d="M494.395,522.83h0c62.576,0,113.379,50.804,113.379,113.379v402.188h-226.759v-402.188c0-62.576,50.804-113.379,113.379-113.379Z" transform="translate(988.791 1561.227) rotate(-180)"/></clipPath><clipPath id="e"><path fill="#fff" stroke="#241f20" stroke-linejoin="round" stroke-width="24" d="M200.985,1291.743v265.73h-37.24v-73.45h-46.67v73.45h-13.86c-28.846,0-52.23-23.384-52.23-52.23v-213.5H200.985Z"/></clipPath></defs><g id="c"><g><g><path fill="#fff" d="M950.985,759.017v111.751H200.985v300H800.985v-150h145.351c85.41,0,154.649-69.239,154.649-154.649v-107.102h-150Z"/><path fill="none" stroke="#241f20" stroke-linejoin="round" stroke-width="24" d="M950.985,759.017v111.751H200.985v300H800.985v-150h145.351c85.41,0,154.649-69.239,154.649-154.649v-107.102h-150Z"/></g><circle cx="139.779" cy="1709.365" r="101.196" fill="#fff" stroke="#241f20" stroke-linejoin="round" stroke-width="24"/><circle cx="139.779" cy="1709.365" r="61.206" fill="none" stroke="#241f20" stroke-linejoin="round" stroke-width="12"/><g><path fill="#fff" d="M494.395,522.83h0c62.576,0,113.379,50.804,113.379,113.379v402.188h-226.759v-402.188c0-62.576,50.804-113.379,113.379-113.379Z" transform="translate(988.791 1561.227) rotate(-180)"/><g clip-path="url(#d)"><circle cx="381.016" cy="794.187" r="89.381" fill="none" stroke="#241f20" stroke-linejoin="round" stroke-width="12"/><circle cx="381.016" cy="794.187" r="67.029" fill="none" stroke="#241f20" stroke-linejoin="round" stroke-width="12"/><circle cx="381.016" cy="794.187" r="41.915" fill="none" stroke="#241f20" stroke-linejoin="round" stroke-width="12"/><polyline fill="none" stroke="#241f20" stroke-linejoin="round" stroke-width="12" points="487.806 766.216 513.232 791.642 487.806 817.067"/><polyline fill="none" stroke="#241f20" stroke-linejoin="round" stroke-width="12" points="519.867 766.216 545.292 791.642 519.867 817.067"/></g><path fill="none" stroke="#241f20" stroke-linejoin="round" stroke-width="24" d="M494.395,522.83h0c62.576,0,113.379,50.804,113.379,113.379v402.188h-226.759v-402.188c0-62.576,50.804-113.379,113.379-113.379Z" transform="translate(988.791 1561.227) rotate(-180)"/></g><g><path fill="#fff" d="M589.009,430.823h-207.993v147.99c0,51.924,42.093,94.017,94.018,94.017h27.582v-150h178.4c0-50.814-41.193-92.007-92.007-92.007Z"/><path fill="none" stroke="#241f20" stroke-linejoin="round" stroke-width="24" d="M589.009,430.823h-207.993v147.99c0,51.924,42.093,94.017,94.018,94.017h27.582v-150h178.4c0-50.814-41.193-92.007-92.007-92.007Z"/></g><path fill="#fff" stroke="#241f20" stroke-linejoin="round" stroke-width="24" d="M681.016,747.238v-224.408h-178.87v43.49c-19.17,0-34.71,15.54-34.71,34.7,0,19.17,15.54,34.71,34.71,34.71v52.104c0,32.808,26.596,59.403,59.403,59.403h119.467Z"/><path fill="none" stroke="#241f20" stroke-linejoin="round" stroke-width="16" d="M574.226,642.859h42.814c35.31,0,63.976,28.667,63.976,63.976v40.402h-106.79v-104.378h0Z" transform="translate(1255.242 1390.097) rotate(180)"/><polygon fill="#fff" stroke="#241f20" stroke-linejoin="round" stroke-width="24" points="679.859 1170.769 679.859 871.63 607.775 871.63 607.775 1170.769 379.859 1170.769 379.859 871.63 307.775 871.63 307.775 1170.769 200.985 1170.769 200.985 1620.769 800.985 1620.769 800.985 1170.769 679.859 1170.769"/><path fill="#fff" stroke="#241f20" stroke-linejoin="round" stroke-width="24" d="M200.985,870.769h0v450H50.985v-300c0-82.787,67.213-150,150-150Z"/><polygon fill="#fff" stroke="#241f20" stroke-linejoin="round" stroke-width="24" points="842.354 335.999 1400.985 335.999 842.354 58.569 842.354 335.999"/><rect width="313.179" height="146.814" x="337.806" y="1253.968" fill="#fff" stroke="#241f20" stroke-linejoin="round" stroke-width="24"/><polyline fill="none" stroke="#241f20" stroke-linecap="round" stroke-linejoin="round" stroke-width="16" points="613.864 1289.315 374.928 1289.315 374.928 1365.435"/><g><path fill="#fff" d="M200.985,1291.743v265.73h-37.24v-73.45h-46.67v73.45h-13.86c-28.846,0-52.23-23.384-52.23-52.23v-213.5H200.985Z"/><g clip-path="url(#e)"><rect width="75.968" height="75.968" x="21.734" y="1353.173" fill="none" stroke="#241f20" stroke-linejoin="round" stroke-width="12" transform="translate(1001.188 365.234) rotate(45)"/><rect width="31.19" height="31.19" x="44.123" y="1375.562" fill="none" stroke="#241f20" stroke-linejoin="round" stroke-width="12" transform="translate(-881.752 2417.081) rotate(-135)"/><circle cx="200.985" cy="1391.157" r="39.815" fill="none" stroke="#241f20" stroke-linejoin="round" stroke-width="12"/><circle cx="200.985" cy="1397.157" r="60.918" fill="#fff" stroke="#241f20" stroke-dasharray="0 0 0 16" stroke-linecap="round" stroke-linejoin="round" stroke-width="10"/><circle cx="200.985" cy="1397.157" r="45.095" fill="none" stroke="#241f20" stroke-linejoin="round" stroke-width="12"/></g><path fill="none" stroke="#241f20" stroke-linejoin="round" stroke-width="24" d="M200.985,1291.743v265.73h-37.24v-73.45h-46.67v73.45h-13.86c-28.846,0-52.23-23.384-52.23-52.23v-213.5H200.985Z"/></g><ellipse cx="935.132" cy="116.697" fill="#fff" stroke="#241f20" stroke-linejoin="round" stroke-width="24" rx="38.01" ry="22.954"/><ellipse cx="1121.669" cy="278.572" fill="#fff" stroke="#241f20" stroke-linejoin="round" stroke-width="24" rx="38.01" ry="22.954"/><ellipse cx="1266.067" cy="267.052" fill="#fff" stroke="#241f20" stroke-linejoin="round" stroke-width="24" rx="38.01" ry="22.954"/><ellipse cx="923.242" cy="278.572" fill="#fff" stroke="#241f20" stroke-linejoin="round" stroke-width="24" rx="38.01" ry="22.954"/><ellipse cx="1027.587" cy="214.762" fill="#fff" stroke="#241f20" stroke-linejoin="round" stroke-width="24" rx="54.445" ry="29.336"/><rect width="186.62" height="150.77" x="307.775" y="1620.769" fill="#fff" stroke="#241f20" stroke-linejoin="round" stroke-width="24"/><rect width="186.62" height="150.77" x="494.396" y="1620.769" fill="#fff" stroke="#241f20" stroke-linejoin="round" stroke-width="24" transform="translate(1175.412 3392.307) rotate(-180)"/><path fill="#fff" stroke="#241f20" stroke-linejoin="round" stroke-width="24" d="M117.075,1480.617h45.407v233.178c0,12.53-10.173,22.704-22.704,22.704h0c-12.53,0-22.704-10.173-22.704-22.704v-233.178h0Z"/><path fill="#fff" stroke="#241f20" stroke-linejoin="round" stroke-width="24" d="M258.12,1771.539h236.275v74.615H205.088v-21.583c0-29.269,23.763-53.032,53.032-53.032Z"/><path fill="#fff" stroke="#241f20" stroke-linejoin="round" stroke-width="24" d="M494.396,1771.539h289.308v74.615h-236.275c-29.269,0-53.032-23.763-53.032-53.032v-21.583h0Z" transform="translate(1278.099 3617.692) rotate(-180)"/><rect width="184.539" height="58.247" x="16.446" y="1260.191" fill="#fff" stroke="#241f20" stroke-linejoin="round" stroke-width="24"/><rect width="161.185" height="38.641" x="39.8" y="1221.551" fill="#fff" stroke="#241f20" stroke-linejoin="round" stroke-width="24"/><path fill="#fff" stroke="#241f20" stroke-linejoin="round" stroke-width="24" d="M1100.985,375.624l-37.538,46.333c-26.174,32.306-74.192,35.795-104.76,7.61l-58.506-53.943h-57.827l108.632,185.145v188.249h150v-188.249l150-185.145h-150Z"/><rect width="213.015" height="36.751" x="921.08" y="759.017" fill="#fff" stroke="#241f20" stroke-linejoin="round" stroke-width="24"/><rect width="259.696" height="59.818" x="897.74" y="698.794" fill="#fff" stroke="#241f20" stroke-linejoin="round" stroke-width="24"/><g><path fill="#fff" d="M798.097,335.999v44.257h366.039c18.835,60.469,75.251,104.368,141.92,104.368h18.5v98.52c0,21.1,17.11,38.21,38.21,38.21s38.22-17.11,38.22-38.21v-247.145H798.097Z"/><path fill="none" stroke="#241f20" stroke-linejoin="round" stroke-width="24" d="M798.097,335.999v44.257h366.039c18.835,60.469,75.251,104.368,141.92,104.368h18.5v98.52c0,21.1,17.11,38.21,38.21,38.21s38.22-17.11,38.22-38.21v-247.145H798.097Z"/></g><path fill="#fff" stroke="#241f20" stroke-linejoin="round" stroke-width="24" d="M798.097,12h0c24.426,0,44.257,19.831,44.257,44.257V358.128h-88.514V56.257c0-24.426,19.831-44.257,44.257-44.257Z"/><line x1="607.775" x2="556.86" y1="587.446" y2="587.446" fill="none" stroke="#241f20" stroke-linejoin="round" stroke-width="24"/><line x1="677.74" x2="607.775" y1="688.267" y2="675.547" fill="none" stroke="#241f20" stroke-linejoin="round" stroke-width="16"/><circle cx="798.097" cy="358.128" r="44.257" fill="#fff" stroke="#241f20" stroke-linejoin="round" stroke-width="24"/><path fill="#fff" stroke="#241f20" stroke-linejoin="round" stroke-width="24" d="M494.396,1719.933h201.755v17.31c0,18.928-15.367,34.296-34.296,34.296h-167.46v-51.605h0Z"/><path fill="#fff" stroke="#241f20" stroke-linejoin="round" stroke-width="24" d="M292.64,1719.933h167.46c18.928,0,34.296,15.367,34.296,34.296v17.31h-201.755v-51.605h0Z" transform="translate(787.036 3491.472) rotate(180)"/><line x1="494.396" x2="783.703" y1="1817.364" y2="1817.364" fill="none" stroke="#241f20" stroke-linejoin="round" stroke-width="12"/><line x1="494.396" x2="205.088" y1="1817.364" y2="1817.364" fill="none" stroke="#241f20" stroke-linejoin="round" stroke-width="12"/><path fill="#fff" stroke="#241f20" stroke-linejoin="round" stroke-width="16" d="M655.534,642.859h37.511c14.67,0,26.563-11.892,26.563-26.563h0c0-14.67-11.892-26.563-26.563-26.563h-37.511"/><path fill="none" stroke="#241f20" stroke-linejoin="round" stroke-width="16" d="M536.314,430.823c50.814,0,92.007,41.193,92.007,92.007h0"/><path fill="none" stroke="#241f20" stroke-linejoin="round" stroke-width="16" d="M474.956,430.823c50.814,0,92.007,41.193,92.007,92.007h0"/><path fill="none" stroke="#241f20" stroke-linejoin="round" stroke-width="16" d="M406.268,430.823c50.814,0,92.007,41.193,92.007,92.007h0"/><g><path fill="#fff" d="M309.098,559.308h0c-19.928-19.927-52.236-19.927-72.164,0l-22.07,22.07-22.069-22.07c-19.927-19.927-52.236-19.927-72.164,0h0c-19.928,19.927-19.928,52.236,0,72.164l94.233,94.233,72.164-72.164,22.069-22.069c19.927-19.927,19.927-52.236,0-72.164Z"/><path fill="none" stroke="#241f20" stroke-linejoin="round" stroke-width="24" d="M309.098,559.308h0c-19.928-19.927-52.236-19.927-72.164,0l-22.07,22.07-22.069-22.07c-19.927-19.927-52.236-19.927-72.164,0h0c-19.928,19.927-19.928,52.236,0,72.164l94.233,94.233,72.164-72.164,22.069-22.069c19.927-19.927,19.927-52.236,0-72.164Z"/></g><path fill="none" stroke="#241f20" stroke-linecap="round" stroke-linejoin="round" stroke-width="12" d="M237.059,661.084l50.825-50.825c8.199-8.199,8.199-21.539,0-29.737"/><line x1="954.19" x2="1100.985" y1="632.646" y2="632.646" fill="none" stroke="#241f20" stroke-linejoin="round" stroke-width="12"/><line x1="954.19" x2="1100.985" y1="654.457" y2="654.457" fill="none" stroke="#241f20" stroke-linejoin="round" stroke-width="12"/><g><path fill="#fff" d="M885.591,873.237h-99.907c0,48.352,39.197,87.549,87.549,87.549h12.358v139.978c0,18.058,14.639,32.697,32.697,32.697h0c18.058,0,32.697-14.639,32.697-32.697v-227.527h-65.395Z"/><path fill="none" stroke="#241f20" stroke-linejoin="round" stroke-width="24" d="M885.591,873.237h-99.907c0,48.352,39.197,87.549,87.549,87.549h12.358v139.978c0,18.058,14.639,32.697,32.697,32.697h0c18.058,0,32.697-14.639,32.697-32.697v-227.527h-65.395Z"/></g><circle cx="918.288" cy="1207.804" r="28.017" fill="#fff" stroke="#241f20" stroke-linejoin="round" stroke-width="20"/><circle cx="212.072" cy="482.967" r="28.017" fill="#fff" stroke="#241f20" stroke-linejoin="round" stroke-width="20"/><path fill="none" stroke="#241f20" stroke-linejoin="round" stroke-width="24" d="M214.865,725.705v40.349c0,15.538,12.596,28.134,28.134,28.134h138.018"/><path fill="none" stroke="#241f20" stroke-linecap="round" stroke-linejoin="round" stroke-width="12" d="M913.059,422.725l21.69,25.261c37.703,43.909,106.785,42.024,145.018,3.791"/></g></g></svg>