<?xml version="1.0" encoding="UTF-8"?><svg id="b" xmlns="http://www.w3.org/2000/svg" xmlns:xlink="http://www.w3.org/1999/xlink" viewBox="0 0 1095.48 1642.286"><defs><clipPath id="d"><path d="M233.363,923.031v-228.153c0-44.781-36.302-81.084-81.084-81.084h0c-44.781,0-81.084,36.302-81.084,81.084v281.168c0,41.511,33.651,75.162,75.162,75.162H694.283c0-70.79-57.387-128.177-128.177-128.177H233.363Z" fill="#fff" stroke="#241f20" stroke-linejoin="round" stroke-width="24"/></clipPath><clipPath id="e"><path d="M957.891,380.62h-252.386v252.385c139.399,0,252.386-112.986,252.386-252.385Z" fill="#fff" stroke="#241f20" stroke-linejoin="round" stroke-width="24"/></clipPath></defs><g id="c"><g><path d="M131.984,1051.208H698.445c67.87,0,122.973,55.102,122.973,122.973v63.176H254.957c-67.87,0-122.973-55.102-122.973-122.973v-63.176h0Z" fill="#fff" stroke="#241f20" stroke-linejoin="round" stroke-width="24"/><g><path d="M1003.905,288.769h-10.14c-43.948,0-79.575,35.627-79.575,79.575h0c0,43.52,30.99,79.798,72.104,87.983l-29.947,122.142H485.902v164.156h462.338c74.691,0,135.24-60.549,135.24-135.24v-239.041c0-43.948-35.627-79.575-79.575-79.575Z" fill="#fff"/><path d="M1003.905,288.769h-10.14c-43.948,0-79.575,35.627-79.575,79.575h0c0,43.52,30.99,79.798,72.104,87.983l-29.947,122.142H485.902v164.156h462.338c74.691,0,135.24-60.549,135.24-135.24v-239.041c0-43.948-35.627-79.575-79.575-79.575Z" fill="none" stroke="#241f20" stroke-linejoin="round" stroke-width="24"/></g><g><path d="M649.837,627.618l-12.278-16.513v-40.941c0-44.174-35.811-79.984-79.984-79.984H197.323c-69.658,0-126.127,56.469-126.127,126.127v346.357H637.56v-147.148l12.094-16.194c38.014-50.9,38.089-120.723,.184-171.704Z" fill="#fff"/><path d="M649.837,627.618l-12.278-16.513v-40.941c0-44.174-35.811-79.984-79.984-79.984H197.323c-69.658,0-126.127,56.469-126.127,126.127v346.357H637.56v-147.148l12.094-16.194c38.014-50.9,38.089-120.723,.184-171.704Z" fill="none" stroke="#241f20" stroke-linejoin="round" stroke-width="24"/></g><g><path d="M333.257,1130.62h56.273v106.736h-72.481v-90.528c0-8.946,7.263-16.209,16.209-16.209Z" fill="#fff" stroke="#241f20" stroke-linejoin="round" stroke-width="24"/><rect x="521.255" y="1177.011" width="54.74" height="60.346" fill="#fff" stroke="#241f20" stroke-linejoin="round" stroke-width="24"/><rect x="131.984" y="1237.357" width="610.213" height="392.929" fill="#fff" stroke="#241f20" stroke-linejoin="round" stroke-width="24"/><path d="M623.146,1237.357h198.272c21.983,0,39.83,17.847,39.83,39.83v313.269c0,21.983-17.847,39.83-39.83,39.83h-198.272v-392.929h0Z" fill="#fff" stroke="#241f20" stroke-linejoin="round" stroke-width="24"/><rect x="131.984" y="1237.357" width="238.102" height="392.929" fill="#fff" stroke="#241f20" stroke-linejoin="round" stroke-width="24"/><path d="M58.16,1237.357h11.492c34.402,0,62.333,27.93,62.333,62.333v263.78c0,36.877-29.94,66.817-66.817,66.817h-7.007v-392.929h0Z" transform="translate(190.144 2867.643) rotate(-180)" fill="#fff" stroke="#241f20" stroke-linejoin="round" stroke-width="24"/><rect x="417.451" y="1496.453" width="158.329" height="87.863" fill="none" stroke="#241f20" stroke-linejoin="round" stroke-width="16"/><rect x="675.019" y="1291.757" width="134.356" height="157.46" rx="17.903" ry="17.903" fill="none" stroke="#241f20" stroke-linejoin="round" stroke-width="16"/><rect x="183.857" y="1291.757" width="134.356" height="157.46" rx="17.903" ry="17.903" fill="none" stroke="#241f20" stroke-linejoin="round" stroke-width="16"/><rect x="183.857" y="1483.918" width="134.356" height="34.171" fill="none" stroke="#241f20" stroke-linejoin="round" stroke-width="16"/><rect x="675.019" y="1483.918" width="134.356" height="34.171" fill="none" stroke="#241f20" stroke-linejoin="round" stroke-width="16"/><rect x="417.451" y="1386.646" width="30.285" height="68.627" fill="none" stroke="#241f20" stroke-linejoin="round" stroke-width="12"/><rect x="545.496" y="1386.646" width="30.285" height="68.627" transform="translate(1121.276 2841.92) rotate(180)" fill="none" stroke="#241f20" stroke-linejoin="round" stroke-width="12"/><rect x="481.473" y="1386.646" width="30.285" height="68.627" fill="none" stroke="#241f20" stroke-linejoin="round" stroke-width="12"/><line x1="411.395" y1="1291.757" x2="581.837" y2="1291.757" fill="none" stroke="#241f20" stroke-linejoin="round" stroke-width="16"/><line x1="411.395" y1="1321.173" x2="581.837" y2="1321.173" fill="none" stroke="#241f20" stroke-linejoin="round" stroke-width="16"/><line x1="411.395" y1="1350.588" x2="581.837" y2="1350.588" fill="none" stroke="#241f20" stroke-linejoin="round" stroke-width="16"/><circle cx="747.516" cy="1567.498" r="20.764" fill="none" stroke="#241f20" stroke-linejoin="round" stroke-width="16"/><circle cx="251.773" cy="1567.498" r="20.764" fill="none" stroke="#241f20" stroke-linejoin="round" stroke-width="16"/><g><path d="M606.456,1130.62h-219.68c-9.218,0-16.69,7.472-16.69,16.69v90.047h47.365v-60.345h158.329v60.345h47.365v-90.047c0-9.217-7.473-16.69-16.69-16.69Z" fill="#fff"/><path d="M606.456,1130.62h-219.68c-9.218,0-16.69,7.472-16.69,16.69v90.047h47.365v-60.345h158.329v60.345h47.365v-90.047c0-9.217-7.473-16.69-16.69-16.69Z" fill="none" stroke="#241f20" stroke-linejoin="round" stroke-width="24"/></g><circle cx="742.197" cy="1370.487" r="42.494" fill="none" stroke="#241f20" stroke-linejoin="round" stroke-width="12"/><circle cx="742.197" cy="1370.487" r="17.672" fill="none" stroke="#241f20" stroke-linejoin="round" stroke-width="12"/><circle cx="251.035" cy="1370.487" r="42.494" fill="none" stroke="#241f20" stroke-linejoin="round" stroke-width="12"/><rect x="461.383" y="1520.761" width="70.466" height="39.248" fill="none" stroke="#241f20" stroke-linejoin="round" stroke-width="12"/><circle cx="251.035" cy="1370.487" r="17.672" fill="none" stroke="#241f20" stroke-linejoin="round" stroke-width="12"/><line x1="545.496" y1="1410.553" x2="575.781" y2="1410.553" fill="none" stroke="#241f20" stroke-linejoin="round" stroke-width="12"/><line x1="417.451" y1="1418.258" x2="447.736" y2="1418.258" fill="none" stroke="#241f20" stroke-linejoin="round" stroke-width="12"/><line x1="481.473" y1="1433.032" x2="511.759" y2="1433.032" fill="none" stroke="#241f20" stroke-linejoin="round" stroke-width="12"/><circle cx="461.383" cy="1540.384" r="19.624" fill="#fff" stroke="#241f20" stroke-linejoin="round" stroke-width="12"/><circle cx="531.849" cy="1540.384" r="19.624" fill="#fff" stroke="#241f20" stroke-linejoin="round" stroke-width="12"/><circle cx="461.383" cy="1540.384" r="6.826" fill="#241f20"/><circle cx="531.849" cy="1540.384" r="6.826" fill="#241f20"/></g><g><g><line x1="175.546" y1="337.865" x2="139.996" y2="373.415" fill="none" stroke="#241f20" stroke-linejoin="round" stroke-width="12"/><line x1="175.546" y1="373.415" x2="139.996" y2="337.865" fill="none" stroke="#241f20" stroke-linejoin="round" stroke-width="12"/></g><g><line x1="175.546" y1="337.865" x2="139.996" y2="373.415" fill="none" stroke="#241f20" stroke-linejoin="round" stroke-width="16"/><line x1="175.546" y1="373.415" x2="139.996" y2="337.865" fill="none" stroke="#241f20" stroke-linejoin="round" stroke-width="16"/></g></g><g><g><line x1="400.514" y1="4.243" x2="364.964" y2="39.792" fill="none" stroke="#241f20" stroke-linejoin="round" stroke-width="12"/><line x1="400.514" y1="39.792" x2="364.964" y2="4.243" fill="none" stroke="#241f20" stroke-linejoin="round" stroke-width="12"/></g><g><line x1="400.514" y1="4.243" x2="364.964" y2="39.792" fill="none" stroke="#241f20" stroke-linejoin="round" stroke-width="16"/><line x1="400.514" y1="39.792" x2="364.964" y2="4.243" fill="none" stroke="#241f20" stroke-linejoin="round" stroke-width="16"/></g></g><g><line x1="488.122" y1="19.289" x2="488.122" y2="57.435" fill="none" stroke="#241f20" stroke-linejoin="round" stroke-width="12"/><line x1="507.196" y1="38.362" x2="469.049" y2="38.362" fill="none" stroke="#241f20" stroke-linejoin="round" stroke-width="12"/></g><g><line x1="659.061" y1="71.679" x2="654.204" y2="109.515" fill="none" stroke="#241f20" stroke-linejoin="round" stroke-width="12"/><line x1="675.551" y1="93.025" x2="637.715" y2="88.168" fill="none" stroke="#241f20" stroke-linejoin="round" stroke-width="12"/></g><g><line x1="129.793" y1="423.882" x2="103.637" y2="450.039" fill="none" stroke="#241f20" stroke-linejoin="round" stroke-width="12"/><line x1="129.793" y1="450.039" x2="103.637" y2="423.882" fill="none" stroke="#241f20" stroke-linejoin="round" stroke-width="12"/></g><g><path d="M363.844,216.246v98.981h-40.351v260.433c0,52.432,42.504,94.936,94.936,94.936h0c52.432,0,94.936-42.504,94.936-94.936v-131.99h25.697c26.525,0,48.028-21.503,48.028-48.028V216.246h-223.247Z" fill="#fff"/><path d="M363.844,216.246v98.981h-40.351v260.433c0,52.432,42.504,94.936,94.936,94.936h0c52.432,0,94.936-42.504,94.936-94.936v-131.99h25.697c26.525,0,48.028-21.503,48.028-48.028V216.246h-223.247Z" fill="none" stroke="#241f20" stroke-linejoin="round" stroke-width="24"/></g><g><path d="M233.363,923.031v-228.153c0-44.781-36.302-81.084-81.084-81.084h0c-44.781,0-81.084,36.302-81.084,81.084v281.168c0,41.511,33.651,75.162,75.162,75.162H694.283c0-70.79-57.387-128.177-128.177-128.177H233.363Z" fill="#fff"/><g clip-path="url(#d)"><path d="M164.789,698.533h-5.547v-5.547c0-10.531-8.537-19.068-19.068-19.068h0c-10.531,0-19.068,8.537-19.068,19.068v43.684h43.684c10.531,0,19.068-8.537,19.068-19.068s-8.537-19.068-19.068-19.068Z" fill="none" stroke="#241f20" stroke-linejoin="round" stroke-width="12"/><path d="M164.789,803.6h-5.547v5.547c0,10.531-8.537,19.068-19.068,19.068h0c-10.531,0-19.068-8.537-19.068-19.068v-43.684h43.684c10.531,0,19.068,8.537,19.068,19.068s-8.537,19.068-19.068,19.068Z" fill="none" stroke="#241f20" stroke-linejoin="round" stroke-width="12"/><circle cx="71.196" cy="915.715" r="65.196" fill="none" stroke="#241f20" stroke-linejoin="round" stroke-width="12"/><circle cx="71.196" cy="915.715" r="40.65" fill="none" stroke="#241f20" stroke-linejoin="round" stroke-width="12"/></g><path d="M233.363,923.031v-228.153c0-44.781-36.302-81.084-81.084-81.084h0c-44.781,0-81.084,36.302-81.084,81.084v281.168c0,41.511,33.651,75.162,75.162,75.162H694.283c0-70.79-57.387-128.177-128.177-128.177H233.363Z" fill="none" stroke="#241f20" stroke-linejoin="round" stroke-width="24"/></g><path d="M499.933,329.958c0-13.512-10.954-24.466-24.466-24.466s-24.466,10.954-24.466,24.466" fill="none" stroke="#241f20" stroke-linejoin="round" stroke-width="12"/><path d="M588.274,329.958c0-13.354-10.699-24.209-23.992-24.461-13.714-.26-24.939,11.296-24.939,25.012v10.199c0,11.393-9.236,20.629-20.629,20.629h-6.764" fill="none" stroke="#241f20" stroke-linejoin="round" stroke-width="12"/><path d="M446.466,381.351h106.934c0,15.312-12.431,27.743-27.743,27.743h-51.448c-15.312,0-27.743-12.431-27.743-27.743h0Z" fill="none" stroke="#241f20" stroke-linejoin="round" stroke-width="12"/><line x1="530.042" y1="443.67" x2="459.861" y2="443.67" fill="#fff" stroke="#241f20" stroke-linejoin="round" stroke-width="24"/><g><g><path d="M957.891,380.62h-252.386v252.385c139.399,0,252.386-112.986,252.386-252.385Z" fill="#fff"/><g clip-path="url(#e)"><path d="M908.296,365.905h-217.506v217.506c120.134,0,217.506-97.371,217.506-217.506Z" fill="#fff" stroke="#241f20" stroke-linejoin="round" stroke-width="16"/></g><path d="M957.891,380.62h-252.386v252.385c139.399,0,252.386-112.986,252.386-252.385Z" fill="none" stroke="#241f20" stroke-linejoin="round" stroke-width="24"/></g><circle cx="723.728" cy="505.759" r="29.445" fill="#fff" stroke="#241f20" stroke-linejoin="round" stroke-width="16"/><circle cx="814.937" cy="513.194" r="29.445" fill="#fff" stroke="#241f20" stroke-linejoin="round" stroke-width="16"/><circle cx="713.721" cy="388.835" r="29.445" fill="#fff" stroke="#241f20" stroke-linejoin="round" stroke-width="16"/><circle cx="814.937" cy="408.082" r="41.957" fill="#fff" stroke="#241f20" stroke-linejoin="round" stroke-width="16"/></g><polygon points="636.686 827.96 325.273 802.1 637.752 803.984 636.686 827.96 636.686 827.96" fill="#241f20"/><g><g><line x1="372.224" y1="923.031" x2="372.224" y2="929.031" fill="none" stroke="#241f20" stroke-linejoin="round" stroke-width="12"/><line x1="372.224" y1="941.94" x2="372.224" y2="1038.753" fill="none" stroke="#241f20" stroke-dasharray="0 0 12.909 12.909" stroke-linejoin="round" stroke-width="12"/><line x1="372.224" y1="1045.208" x2="372.224" y2="1051.208" fill="none" stroke="#241f20" stroke-linejoin="round" stroke-width="12"/></g><g><line x1="451.44" y1="923.031" x2="451.44" y2="929.031" fill="none" stroke="#241f20" stroke-linejoin="round" stroke-width="12"/><line x1="451.44" y1="941.94" x2="451.44" y2="1038.753" fill="none" stroke="#241f20" stroke-dasharray="0 0 12.909 12.909" stroke-linejoin="round" stroke-width="12"/><line x1="451.44" y1="1045.208" x2="451.44" y2="1051.208" fill="none" stroke="#241f20" stroke-linejoin="round" stroke-width="12"/></g><g><line x1="530.657" y1="923.031" x2="530.657" y2="929.031" fill="none" stroke="#241f20" stroke-linejoin="round" stroke-width="12"/><line x1="530.657" y1="941.94" x2="530.657" y2="1038.753" fill="none" stroke="#241f20" stroke-dasharray="0 0 12.909 12.909" stroke-linejoin="round" stroke-width="12"/><line x1="530.657" y1="1045.208" x2="530.657" y2="1051.208" fill="none" stroke="#241f20" stroke-linejoin="round" stroke-width="12"/></g><line x1="411.832" y1="923.031" x2="411.832" y2="1051.208" fill="none" stroke="#241f20" stroke-linejoin="round" stroke-width="16"/><line x1="491.049" y1="923.031" x2="491.049" y2="1051.208" fill="none" stroke="#241f20" stroke-linejoin="round" stroke-width="16"/></g><circle cx="905.732" cy="654.336" r="40.542" fill="none" stroke="#241f20" stroke-linejoin="round" stroke-width="12"/><g><circle cx="905.732" cy="654.336" r="15.853" fill="none" stroke="#241f20" stroke-linejoin="round" stroke-width="12"/><circle cx="803.151" cy="670.597" r="26.646" fill="none" stroke="#241f20" stroke-linejoin="round" stroke-width="12"/><circle cx="727.36" cy="678.895" r="18.348" fill="none" stroke="#241f20" stroke-linejoin="round" stroke-width="12"/></g><g><path d="M823.353,323.842c0-25.724,12-25.724,12-51.449,0-25.726-12-25.726-12-51.451,0-25.725,12-25.725,12-51.45,0-25.728-12-25.728-12-51.457s12-25.728,12-51.457" fill="none" stroke="#241f20" stroke-linejoin="round" stroke-width="20"/><path d="M771.486,323.842c0-25.724,12-25.724,12-51.449,0-25.726-12-25.726-12-51.451,0-25.725,12-25.725,12-51.45,0-25.728-12-25.728-12-51.457s12-25.728,12-51.457" fill="none" stroke="#241f20" stroke-linejoin="round" stroke-width="20"/><path d="M719.62,323.842c0-25.724,12-25.724,12-51.449,0-25.726-12-25.726-12-51.451,0-25.725,12-25.725,12-51.45,0-25.728-12-25.728-12-51.457,0-25.728,12-25.728,12-51.457" fill="none" stroke="#241f20" stroke-linejoin="round" stroke-width="20"/><path d="M875.219,323.842c0-25.724,12-25.724,12-51.449,0-25.726-12-25.726-12-51.451,0-25.725,12-25.725,12-51.45,0-25.728-12-25.728-12-51.457,0-25.728,12-25.728,12-51.457" fill="none" stroke="#241f20" stroke-linejoin="round" stroke-width="20"/></g><line x1="334.11" y1="526.003" x2="513.365" y2="526.003" fill="none" stroke="#241f20" stroke-linejoin="round" stroke-width="16"/><line x1="334.11" y1="550.431" x2="513.365" y2="550.431" fill="none" stroke="#241f20" stroke-linejoin="round" stroke-width="16"/><g><g><path d="M637.56,218.497c0-66.52-53.925-120.444-120.445-120.444h-135.565c-81.689,0-147.911,66.222-147.911,147.911v17.474h0v441.857h10.635c75.69,0,137.049-61.359,137.049-137.049V263.437h256.236v-44.94Z" fill="#fff"/><path d="M637.56,218.497c0-66.52-53.925-120.444-120.445-120.444h-135.565c-81.689,0-147.911,66.222-147.911,147.911v17.474h0v441.857h10.635c75.69,0,137.049-61.359,137.049-137.049V263.437h256.236v-44.94Z" fill="none" stroke="#241f20" stroke-linejoin="round" stroke-width="24"/></g><path d="M587.091,263.437v-52.518c0-62.334-50.532-112.867-112.867-112.867" fill="none" stroke="#241f20" stroke-linejoin="round" stroke-width="16"/><path d="M511.95,263.437v-52.518c0-62.334-50.532-112.867-112.867-112.867" fill="none" stroke="#241f20" stroke-linejoin="round" stroke-width="16"/><path d="M424.538,263.437v-48.685c0-57.785-46.844-104.629-104.629-104.629" fill="none" stroke="#241f20" stroke-linejoin="round" stroke-width="16"/></g><path d="M248.768,180.744h0c47.133,0,85.342,38.209,85.342,85.342v300.508c0,47.133-38.209,85.342-85.342,85.342h-15.129" fill="none" stroke="#241f20" stroke-linejoin="round" stroke-width="16"/><path d="M235.409,219.452c27.115,10.295,46.386,36.519,46.386,67.244v253.185c0,29.783-18.108,55.337-43.915,66.252" fill="none" stroke="#241f20" stroke-linejoin="round" stroke-width="16"/><polygon points="1009.328 211.737 1051.471 233.893 1043.423 186.966 1077.517 153.733 1030.4 146.886 1009.328 104.191 988.257 146.886 941.14 153.733 975.234 186.966 967.185 233.893 1009.328 211.737" fill="#fff" stroke="#241f20" stroke-linejoin="round" stroke-width="20"/><g><g><path d="M941.024,836.406h0c-23.521-23.521-61.657-23.521-85.178,0l-26.05,26.05-26.05-26.05c-23.521-23.521-61.657-23.521-85.178,0h0c-23.521,23.521-23.521,61.657,0,85.178l26.05,26.05h0l85.178,85.178,85.178-85.178,26.05-26.05c23.521-23.521,23.521-61.657,0-85.178Z" fill="#fff"/><path d="M941.024,836.406h0c-23.521-23.521-61.657-23.521-85.178,0l-26.05,26.05-26.05-26.05c-23.521-23.521-61.657-23.521-85.178,0h0c-23.521,23.521-23.521,61.657,0,85.178l26.05,26.05h0l85.178,85.178,85.178-85.178,26.05-26.05c23.521-23.521,23.521-61.657,0-85.178Z" fill="none" stroke="#241f20" stroke-linejoin="round" stroke-width="24"/></g><path d="M803.599,956.537l-59.992-59.992c-9.677-9.677-9.678-25.423,0-35.101" fill="none" stroke="#241f20" stroke-linecap="round" stroke-linejoin="round" stroke-width="12"/></g><g><circle cx="231.009" cy="63.07" r="44.671" fill="#fff" stroke="#241f20" stroke-linejoin="round" stroke-width="20"/><circle cx="172.531" cy="87.292" r="44.671" fill="#fff" stroke="#241f20" stroke-linejoin="round" stroke-width="20"/><circle cx="148.308" cy="145.771" r="44.671" fill="#fff" stroke="#241f20" stroke-linejoin="round" stroke-width="20"/><circle cx="172.531" cy="204.25" r="44.671" fill="#fff" stroke="#241f20" stroke-linejoin="round" stroke-width="20"/><circle cx="231.009" cy="228.473" r="44.671" fill="#fff" stroke="#241f20" stroke-linejoin="round" stroke-width="20"/><circle cx="289.488" cy="204.25" r="44.671" fill="#fff" stroke="#241f20" stroke-linejoin="round" stroke-width="20"/><circle cx="313.711" cy="145.771" r="44.671" fill="#fff" stroke="#241f20" stroke-linejoin="round" stroke-width="20"/><circle cx="289.488" cy="87.292" r="44.671" fill="#fff" stroke="#241f20" stroke-linejoin="round" stroke-width="20"/><circle cx="231.009" cy="145.771" r="66.223" fill="#fff" stroke="#241f20" stroke-linejoin="round" stroke-width="20"/><circle cx="231.009" cy="145.771" r="31.043" fill="none" stroke="#241f20" stroke-linejoin="round" stroke-width="12"/></g></g></g></svg>