<svg xmlns="http://www.w3.org/2000/svg" xmlns:xlink="http://www.w3.org/1999/xlink" id="b" viewBox="0 0 1276.054 386.438"><defs><clipPath id="d"><path fill="#241f20" stroke="#241f20" stroke-linejoin="round" stroke-width="6.329" d="M219.032,249.456h0c11.078,0,20.073,8.994,20.073,20.073v15.451h-28.367c-6.5,0-11.778-5.278-11.778-11.778v-3.673c0-11.078,8.994-20.073,20.073-20.073Z" transform="translate(438.065 534.435) rotate(-180)"/></clipPath><clipPath id="e"><path fill="#241f20" stroke="#241f20" stroke-linejoin="round" stroke-width="6.329" d="M179.1,249.456h0c11.078,0,20.073,8.994,20.073,20.073v3.994c0,6.323-5.133,11.456-11.456,11.456h-28.689v-15.451c0-11.078,8.994-20.073,20.073-20.073Z" transform="translate(358.2 534.435) rotate(-180)"/></clipPath><clipPath id="f"><path fill="#fff" stroke="#241f20" stroke-linejoin="round" stroke-width="12.658" d="M143.138,194.339h-46.602c-34.935,0-63.255,28.32-63.255,63.256v18.934c0,30.336,24.592,54.928,54.929,54.928h0c30.336,0,54.929-24.592,54.929-54.928v-42.697h19.969c21.811,0,39.492-17.681,39.492-39.493h-59.461Z"/></clipPath></defs><g id="c"><g><g><g><path fill="#231f20" d="M392.362,205.639h54.157v26.137h-87.122V67.42h32.965V205.639Z"/><path fill="#231f20" d="M587.799,176.441h-95.364c.784,9.419,4.08,16.8,9.89,22.134,5.806,5.339,12.951,8.006,21.427,8.006,12.244,0,20.956-5.257,26.137-15.775h35.555c-3.767,12.561-10.99,22.88-21.663,30.964-10.677,8.086-23.782,12.126-39.323,12.126-12.561,0-23.823-2.785-33.789-8.359-9.971-5.57-17.741-13.458-23.311-23.664-5.574-10.202-8.359-21.976-8.359-35.319,0-13.499,2.745-25.35,8.241-35.556,5.493-10.202,13.186-18.05,23.076-23.547,9.89-5.493,21.269-8.241,34.143-8.241,12.399,0,23.506,2.671,33.318,8.006,9.809,5.339,17.424,12.914,22.84,22.723,5.416,9.812,8.124,21.074,8.124,33.789,0,4.709-.316,8.948-.942,12.715Zm-33.201-22.134c-.158-8.477-3.219-15.265-9.183-20.367-5.968-5.1-13.267-7.653-21.898-7.653-8.164,0-15.033,2.473-20.603,7.418-5.574,4.944-8.988,11.813-10.243,20.603h61.928Z"/><path fill="#231f20" d="M728.841,161.372c5.964,7.535,8.948,16.17,8.948,25.901,0,8.793-2.16,16.522-6.475,23.193-4.319,6.674-10.559,11.891-18.72,15.658-8.164,3.768-17.818,5.651-28.962,5.651h-70.875V67.42h67.814c11.144,0,20.758,1.807,28.845,5.416,8.083,3.612,14.205,8.635,18.366,15.069,4.157,6.438,6.24,13.738,6.24,21.898,0,9.577-2.553,17.583-7.653,24.018-5.103,6.438-11.891,10.99-20.368,13.657,9.26,1.729,16.873,6.357,22.84,13.893Zm-83.12-26.137h30.14c7.848,0,13.893-1.766,18.131-5.298s6.358-8.595,6.358-15.188-2.119-11.692-6.358-15.306c-4.238-3.609-10.283-5.416-18.131-5.416h-30.14v41.207Zm51.92,64.047c4.474-3.768,6.711-9.103,6.711-16.012,0-7.064-2.355-12.598-7.064-16.601-4.709-4.003-11.067-6.004-19.073-6.004h-32.494v44.268h33.201c8.006,0,14.246-1.884,18.72-5.651Z"/><path fill="#231f20" d="M813.724,105.331c6.829-3.922,14.636-5.887,23.429-5.887v34.613h-8.712c-10.36,0-18.171,2.436-23.429,7.3-5.261,4.867-7.888,13.345-7.888,25.431v64.988h-32.965V101.328h32.965v20.25c4.238-6.905,9.772-12.321,16.6-16.247Z"/><path fill="#231f20" d="M883.302,225.536c-10.048-5.57-17.936-13.458-23.664-23.664-5.732-10.202-8.594-21.976-8.594-35.319s2.943-25.114,8.83-35.32c5.887-10.202,13.929-18.091,24.135-23.664,10.202-5.57,21.582-8.359,34.143-8.359s23.937,2.789,34.143,8.359c10.202,5.573,18.249,13.462,24.135,23.664,5.887,10.206,8.83,21.979,8.83,35.32s-3.024,25.117-9.065,35.319c-6.045,10.206-14.209,18.094-24.489,23.664-10.283,5.574-21.781,8.359-34.496,8.359-12.561,0-23.863-2.785-33.907-8.359Zm50.743-24.724c5.257-2.902,9.455-7.259,12.597-13.068,3.138-5.806,4.709-12.87,4.709-21.191,0-12.399-3.26-21.936-9.772-28.609-6.516-6.671-14.481-10.008-23.9-10.008s-17.307,3.337-23.664,10.008c-6.358,6.674-9.536,16.21-9.536,28.609s3.098,21.938,9.301,28.608c6.199,6.674,14.01,10.008,23.429,10.008,5.964,0,11.575-1.45,16.836-4.356Z"/><path fill="#231f20" d="M1119.471,114.161c9.573,9.812,14.363,23.51,14.363,41.089v76.526h-32.965v-72.053c0-10.36-2.59-18.326-7.77-23.899-5.18-5.57-12.244-8.359-21.192-8.359-9.106,0-16.288,2.789-21.545,8.359-5.261,5.573-7.888,13.539-7.888,23.899v72.053h-32.965V101.328h32.965v16.247c4.393-5.651,10.007-10.084,16.836-13.304,6.828-3.216,14.323-4.827,22.487-4.827,15.541,0,28.098,4.908,37.675,14.717Z"/><path fill="#231f20" d="M1237.203,231.776l-26.843-40.5-23.782,40.5h-35.32l42.619-65.46-43.09-64.988h37.204l26.608,40.265,24.018-40.265h35.32l-42.855,64.988,43.326,65.46h-37.204Z"/></g><g><path fill="#231f20" d="M724.239,304.005c-1.586,2.86-4.021,5.168-7.305,6.922-3.285,1.756-7.362,2.634-12.231,2.634h-9.003v21.404h-14.525v-59.627h23.528c4.757,0,8.777,.821,12.061,2.463,3.283,1.644,5.747,3.907,7.39,6.796,1.642,2.888,2.463,6.2,2.463,9.938,0,3.454-.794,6.611-2.378,9.471Zm-14.44-3.95c1.359-1.302,2.039-3.143,2.039-5.521s-.68-4.218-2.039-5.521c-1.359-1.302-3.427-1.953-6.201-1.953h-7.899v14.949h7.899c2.774,0,4.841-.65,6.201-1.954Z"/><path fill="#231f20" d="M753.797,275.338v59.627h-14.525v-59.627h14.525Z"/><path fill="#231f20" d="M784.885,323.074h25.651v11.892h-42.13v-11.042l25.482-36.693h-25.482v-11.892h42.13v11.042l-25.651,36.693Z"/><path fill="#231f20" d="M840.604,323.074h25.651v11.892h-42.13v-11.042l25.482-36.693h-25.482v-11.892h42.13v11.042l-25.651,36.693Z"/><path fill="#231f20" d="M917.983,324.433h-22.254l-3.568,10.532h-15.204l21.574-59.627h16.818l21.574,59.627h-15.374l-3.567-10.532Zm-3.737-11.212l-7.39-21.829-7.305,21.829h14.694Z"/></g><g><line x1="966.554" x2="966.554" y1="297.243" y2="297.243" fill="none" stroke="#231f20" stroke-linecap="round" stroke-linejoin="round" stroke-width="14.403"/><line x1="996.677" x2="1252.719" y1="297.243" y2="297.243" fill="none" stroke="#231f20" stroke-dasharray="0 0 0 30.123" stroke-linecap="round" stroke-linejoin="round" stroke-width="14.403"/><line x1="1267.78" x2="1267.78" y1="297.243" y2="297.243" fill="none" stroke="#231f20" stroke-linecap="round" stroke-linejoin="round" stroke-width="14.403"/></g><g><line x1="638.099" x2="358.961" y1="297.242" y2="297.242" fill="#fff"/><g><line x1="638.099" x2="638.099" y1="297.243" y2="297.243" fill="none" stroke="#231f20" stroke-linecap="round" stroke-linejoin="round" stroke-width="14.403"/><line x1="610.185" x2="372.918" y1="297.243" y2="297.243" fill="none" stroke="#231f20" stroke-dasharray="0 0 0 27.914" stroke-linecap="round" stroke-linejoin="round" stroke-width="14.403"/><line x1="358.961" x2="358.961" y1="297.243" y2="297.243" fill="none" stroke="#231f20" stroke-linecap="round" stroke-linejoin="round" stroke-width="14.403"/></g></g></g><g><path fill="#fff" stroke="#241f20" stroke-linejoin="round" stroke-width="12.658" d="M73.27,192.559H232.329v108.982c0,24.81-20.142,44.952-44.952,44.952H118.222c-24.81,0-44.952-20.142-44.952-44.952v-108.982h0Z"/><path fill="#fff" stroke="#241f20" stroke-linejoin="round" stroke-width="12.658" d="M222.345,194.34h.223c21.796,0,39.492,17.696,39.492,39.492h-39.715c-10.898,0-19.746-8.848-19.746-19.746h0c0-10.898,8.848-19.746,19.746-19.746Z" transform="translate(464.659 428.172) rotate(180)"/><path fill="none" stroke="#241f20" stroke-linejoin="round" stroke-width="8.439" d="M203.618,262.899v25.337c0,8.851-7.175,16.026-16.026,16.026h0"/><rect width="19.971" height="10.438" x="139.056" y="256.78" fill="#241f20" stroke="#241f20" stroke-linejoin="round" stroke-width="4.219"/><line x1="175.967" x2="199.216" y1="320.528" y2="320.528" fill="none" stroke="#241f20" stroke-linejoin="round" stroke-width="8.439"/><g><path fill="#241f20" d="M219.032,249.456h0c11.078,0,20.073,8.994,20.073,20.073v15.451h-28.367c-6.5,0-11.778-5.278-11.778-11.778v-3.673c0-11.078,8.994-20.073,20.073-20.073Z" transform="translate(438.065 534.435) rotate(-180)"/><g clip-path="url(#d)"><line x1="239.435" x2="215.139" y1="281.16" y2="246.92" fill="none" stroke="#fff" stroke-linejoin="round" stroke-width="2.11"/><line x1="234.544" x2="206.303" y1="286.05" y2="246.251" fill="none" stroke="#fff" stroke-linejoin="round" stroke-width="4.219"/></g><path fill="none" stroke="#241f20" stroke-linejoin="round" stroke-width="6.329" d="M219.032,249.456h0c11.078,0,20.073,8.994,20.073,20.073v15.451h-28.367c-6.5,0-11.778-5.278-11.778-11.778v-3.673c0-11.078,8.994-20.073,20.073-20.073Z" transform="translate(438.065 534.435) rotate(-180)"/></g><g><path fill="#241f20" d="M179.1,249.456h0c11.078,0,20.073,8.994,20.073,20.073v3.994c0,6.323-5.133,11.456-11.456,11.456h-28.689v-15.451c0-11.078,8.994-20.073,20.073-20.073Z" transform="translate(358.2 534.435) rotate(-180)"/><g clip-path="url(#e)"><line x1="199.502" x2="175.206" y1="281.16" y2="246.92" fill="none" stroke="#fff" stroke-linejoin="round" stroke-width="2.11"/><line x1="194.612" x2="166.371" y1="286.05" y2="246.251" fill="none" stroke="#fff" stroke-linejoin="round" stroke-width="4.219"/></g><path fill="none" stroke="#241f20" stroke-linejoin="round" stroke-width="6.329" d="M179.1,249.456h0c11.078,0,20.073,8.994,20.073,20.073v3.994c0,6.323-5.133,11.456-11.456,11.456h-28.689v-15.451c0-11.078,8.994-20.073,20.073-20.073Z" transform="translate(358.2 534.435) rotate(-180)"/></g><g><polygon fill="#fff" points="186.036 111.068 97.415 166.503 225.442 166.503 301.249 82.515 186.036 111.068"/><polygon fill="none" stroke="#241f20" stroke-linejoin="round" stroke-width="12.658" points="186.036 111.068 97.415 166.503 225.442 166.503 301.249 82.515 186.036 111.068"/></g><g><polygon fill="#fff" points="121.543 111.067 6.329 82.515 82.136 166.503 210.164 166.503 121.543 111.067"/><polygon fill="none" stroke="#241f20" stroke-linejoin="round" stroke-width="12.658" points="121.543 111.067 6.329 82.515 82.136 166.503 210.164 166.503 121.543 111.067"/></g><polygon fill="#fff" stroke="#241f20" stroke-linejoin="round" stroke-width="12.658" points="97.415 166.556 153.789 6.329 207.358 166.556 97.415 166.556"/><circle cx="124.638" cy="118.467" r="13.199" fill="#fff" stroke="#241f20" stroke-linejoin="round" stroke-width="7.783"/><circle cx="165.162" cy="86.84" r="16.463" fill="#fff" stroke="#241f20" stroke-linejoin="round" stroke-width="7.783"/><circle cx="165.162" cy="139.97" r="13.199" fill="#fff" stroke="#241f20" stroke-linejoin="round" stroke-width="7.783"/><path fill="#241f20" d="M170.168,139.849c-.891-3.721-5.299-5.28-7.867-2.722-2.551,2.573-.997,6.968,2.722,7.867-1.015,.284-2.171,.145-3.213-.339-2.82-1.307-3.935-5.101-2.454-7.837,2.835-5.667,12.015-3.476,10.812,3.03h0Z"/><path fill="#241f20" d="M173.331,86.579c-.886-6.196-8.47-9.14-12.76-4.748-4.384,4.293-1.445,11.868,4.749,12.76-.787,.119-1.611,.139-2.43,0-4.455-.726-7.461-5.418-6.632-9.812,2.098-10.731,18.053-9.3,17.073,1.801h0Z"/><circle cx="69.826" cy="141.531" r="16.463" fill="#fff" stroke="#241f20" stroke-linejoin="round" stroke-width="7.783"/><path fill="#241f20" d="M78.222,141.28c-.883-6.383-8.709-9.427-13.128-4.9-4.52,4.422-1.48,12.238,4.901,13.128-5.549,.975-10.365-4.691-9.273-10.07,2.146-10.974,18.47-9.526,17.5,1.843h0Z"/><circle cx="56.783" cy="95.93" r="14.221" fill="#fff" stroke="#241f20" stroke-linejoin="round" stroke-width="7.783"/><path fill="#241f20" d="M62.179,95.576c-.888-3.934-5.574-5.608-8.285-2.894-2.707,2.716-1.036,7.389,2.895,8.285-1.064,.284-2.267,.13-3.349-.38-2.938-1.408-4.067-5.302-2.534-8.156,2.951-5.88,12.463-3.621,11.273,3.146h0Z"/><path fill="#241f20" d="M129.328,118.326c-.893-3.473-4.973-4.892-7.371-2.517-2.37,2.402-.954,6.47,2.516,7.371-.958,.285-2.057,.162-3.051-.289-2.698-1.227-3.77-4.85-2.359-7.459,2.692-5.407,11.48-3.306,10.266,2.894h0Z"/><circle cx="233.756" cy="147.964" r="16.298" fill="#fff" stroke="#241f20" stroke-linejoin="round" stroke-width="7.783"/><path fill="#241f20" d="M241.019,147.825c-.893-5.688-7.821-8.357-11.761-4.335-4.016,3.943-1.351,10.861,4.335,11.762-.729,.12-1.496,.147-2.26,.024-4.174-.642-6.995-5.03-6.228-9.138,1.93-10.037,16.927-8.708,15.914,1.688h0Z"/><g><path fill="#fff" stroke="#241f20" stroke-linejoin="round" stroke-width="6.329" d="M106.308,308.574c-14.974,0-27.11,12.136-27.11,27.11s12.136,27.11,27.11,27.11,27.11-12.136,27.11-27.11-12.141-27.11-27.11-27.11Z"/><path fill="#fff" stroke="#241f20" stroke-linejoin="round" stroke-width="6.329" d="M106.308,320.346c-8.471,0-15.337,6.866-15.337,15.337s6.866,15.337,15.337,15.337,15.337-6.866,15.337-15.337-6.869-15.337-15.337-15.337Z"/></g><g><path fill="#fff" d="M143.138,194.339h-46.602c-34.935,0-63.255,28.32-63.255,63.256v18.934c0,30.336,24.592,54.928,54.929,54.928h0c30.336,0,54.929-24.592,54.929-54.928v-42.697h19.969c21.811,0,39.492-17.681,39.492-39.493h-59.461Z"/><g clip-path="url(#f)"><g><path fill="none" stroke="#241f20" stroke-linejoin="round" stroke-width="6.329" d="M85.116,194.34h38.189v67.351c0,24.843-20.169,45.012-45.012,45.012h0c-24.843,0-45.012-20.169-45.012-45.012v-15.515c0-28.609,23.227-51.835,51.835-51.835Z"/><path fill="none" stroke="#241f20" stroke-linejoin="round" stroke-width="6.329" d="M75.094,194.34h30.806v54.33c0,20.04-16.27,36.31-36.31,36.31h0c-20.04,0-36.31-16.27-36.31-36.31v-12.516c0-23.078,18.736-41.814,41.814-41.814Z"/><path fill="none" stroke="#241f20" stroke-linejoin="round" stroke-width="6.329" d="M64.46,194.34h22.971v40.513c0,14.943-12.132,27.075-27.075,27.075h0c-14.943,0-27.075-12.132-27.075-27.075v-9.333c0-17.209,13.971-31.18,31.18-31.18Z"/></g></g><path fill="none" stroke="#241f20" stroke-linejoin="round" stroke-width="12.658" d="M143.138,194.339h-46.602c-34.935,0-63.255,28.32-63.255,63.256v18.934c0,30.336,24.592,54.928,54.929,54.928h0c30.336,0,54.929-24.592,54.929-54.928v-42.697h19.969c21.811,0,39.492-17.681,39.492-39.493h-59.461Z"/></g><rect width="194.013" height="26.79" x="56.783" y="167.55" fill="#fff" stroke="#241f20" stroke-linejoin="round" stroke-width="12.658" rx="13.395" ry="13.395"/><g><line x1="221.64" x2="221.64" y1="193.973" y2="167.917" fill="none" stroke="#241f20" stroke-linejoin="round" stroke-width="5.189"/><line x1="188.455" x2="188.455" y1="193.973" y2="167.917" fill="none" stroke="#241f20" stroke-linejoin="round" stroke-width="5.189"/><line x1="155.269" x2="155.269" y1="193.973" y2="167.917" fill="none" stroke="#241f20" stroke-linejoin="round" stroke-width="5.189"/><line x1="122.083" x2="122.083" y1="193.973" y2="167.917" fill="none" stroke="#241f20" stroke-linejoin="round" stroke-width="5.189"/><line x1="88.897" x2="88.897" y1="193.973" y2="167.917" fill="none" stroke="#241f20" stroke-linejoin="round" stroke-width="5.189"/></g><circle cx="240.351" cy="98.708" r="14.221" fill="#fff" stroke="#241f20" stroke-linejoin="round" stroke-width="7.783"/><path fill="#241f20" d="M246.162,98.382c-.883-4.265-6.006-6.124-8.944-3.168-2.949,2.942-1.095,8.054,3.168,8.944-1.139,.284-2.419,.108-3.563-.444-3.1-1.517-4.286-5.635-2.66-8.66,3.111-6.221,13.199-3.834,12,3.328h0Z"/></g></g></g></svg>