<svg xmlns="http://www.w3.org/2000/svg" xmlns:xlink="http://www.w3.org/1999/xlink" id="Layer_2" viewBox="0 0 2114.57 2679.28"><defs><style>.cls-1{stroke-dasharray:0 0 16.47 16.47}.cls-1,.cls-10,.cls-11,.cls-12,.cls-2,.cls-3,.cls-4,.cls-5,.cls-6,.cls-7,.cls-8,.cls-9{stroke-linejoin:round}.cls-1,.cls-12,.cls-2,.cls-3,.cls-4,.cls-5,.cls-6,.cls-7,.cls-8,.cls-9{stroke:#231f20}.cls-1,.cls-3,.cls-4,.cls-5,.cls-9{stroke-width:16px}.cls-1,.cls-10,.cls-11,.cls-12,.cls-3,.cls-7,.cls-9{fill:none}.cls-13,.cls-2,.cls-4,.cls-8{fill:#fff}.cls-2,.cls-7{stroke-width:24px}.cls-14{clip-path:url(#clippath)}.cls-15,.cls-5,.cls-6{fill:#231f20}.cls-16{clip-path:url(#clippath-1)}.cls-17{clip-path:url(#clippath-4)}.cls-18{clip-path:url(#clippath-3)}.cls-19{clip-path:url(#clippath-2)}.cls-20{clip-path:url(#clippath-5)}.cls-11,.cls-6{stroke-width:10.51px}.cls-12,.cls-8{stroke-width:36px}.cls-9{stroke-linecap:round}.cls-10{stroke-width:5.26px}.cls-10,.cls-11{stroke:#fff}</style><clipPath id="clippath"><path d="M395.7,822.18h135.37v238.75c0,88.06-71.5,159.56-159.56,159.56h0c-88.06,0-159.56-71.5-159.56-159.56v-55c0-101.41,82.33-183.75,183.75-183.75Z" class="cls-8"/></clipPath><clipPath id="clippath-1"><path d="M1354.17,905.34v261.56h-397.04v229.81h370c114.67,0,207.63-92.96,207.63-207.63v-283.75h-180.58Z" class="cls-8"/></clipPath><clipPath id="clippath-2"><path d="M680.15,1792.91l-123.19-58.61v-2.61l123.19-58.61c14.27-6.79,21.14-23.66,14.86-38.16-6.59-15.22-24.42-21.83-39.27-14.76l-126.92,60.38H45.67v13.6c0,89.58,72.62,162.2,162.2,162.2H488.75c34.16,0,62.45-25.11,67.43-57.88l99.57,47.37c14.85,7.06,32.68,.46,39.27-14.76s-.6-31.37-14.86-38.16Z" class="cls-8"/></clipPath><clipPath id="clippath-3"><path d="M476.31,538.79h135.37v238.75c0,88.06-71.5,159.56-159.56,159.56h0c-88.06,0-159.56-71.5-159.56-159.56v-55c0-101.41,82.33-183.75,183.75-183.75Z" class="cls-8"/></clipPath><clipPath id="clippath-4"><path d="M832.15,698.89h0c32.18,0,58.31,26.13,58.31,58.31v44.88h-82.4c-18.88,0-34.21-15.33-34.21-34.21v-10.67c0-32.18,26.13-58.31,58.31-58.31Z" class="cls-5" transform="translate(1664.29 1500.97) rotate(-180)"/></clipPath><clipPath id="clippath-5"><path d="M716.15,698.89h0c32.18,0,58.31,26.13,58.31,58.31v11.6c0,18.37-14.91,33.28-33.28,33.28h-83.34v-44.88c0-32.18,26.13-58.31,58.31-58.31Z" class="cls-5" transform="translate(1432.3 1500.97) rotate(-180)"/></clipPath></defs><g id="final_white"><g><rect width="692.26" height="1149.06" x="264.87" y="1166.9" class="cls-8"/><g><path d="M395.7,822.18h135.37v238.75c0,88.06-71.5,159.56-159.56,159.56h0c-88.06,0-159.56-71.5-159.56-159.56v-55c0-101.41,82.33-183.75,183.75-183.75Z" class="cls-13"/><g class="cls-14"><path d="M418.15,822.18h112.92v199.16c0,73.46-59.64,133.1-133.1,133.1h0c-73.46,0-133.1-59.64-133.1-133.1v-45.88c0-84.6,68.68-153.28,153.28-153.28Z" class="cls-4"/><path d="M441.57,822.18h89.5v157.84c0,58.22-47.27,105.49-105.49,105.49h0c-58.22,0-105.49-47.27-105.49-105.49v-36.36c0-67.05,54.43-121.48,121.48-121.48Z" class="cls-4"/><path d="M463.38,822.18h67.69v119.37c0,44.03-35.75,79.78-79.78,79.78h0c-44.03,0-79.78-35.75-79.78-79.78v-27.5c0-50.71,41.17-91.87,91.87-91.87Z" class="cls-4"/></g><path d="M395.7,822.18h135.37v238.75c0,88.06-71.5,159.56-159.56,159.56h0c-88.06,0-159.56-71.5-159.56-159.56v-55c0-101.41,82.33-183.75,183.75-183.75Z" class="cls-12"/></g><path d="M723.69,977.64v438.86l-266.38-249.6V636.8h154.38v-98.01h259.08v327.18c0,61.68-50,111.67-111.67,111.67h-35.41Z" class="cls-8"/><rect width="459.63" height="103.88" x="457.31" y="439.49" class="cls-8"/><path d="M611.69,538.79h172.72c0,63.31-51.4,114.72-114.72,114.72h-58.01v-114.72h0Z" class="cls-8"/><path d="M841.77,538.79h.65c63.31,0,114.72,51.4,114.72,114.72h-115.36c-31.66,0-57.36-25.7-57.36-57.36h0c0-31.66,25.7-57.36,57.36-57.36Z" class="cls-8" transform="translate(1741.54 1192.29) rotate(-180)"/><path d="M787.37,737.94v73.6c0,25.71-20.84,46.55-46.55,46.55h0" class="cls-7"/><path d="M457.31,1166.9l497,459.63,2.82,689.44h-286.93c-223.86,0-405.33-181.47-405.33-405.33v-743.73h192.44Z" class="cls-8"/><line x1="332.05" x2="954.84" y1="1166.9" y2="1755.45" class="cls-12"/><line x1="259.51" x2="957.13" y1="1239.44" y2="1898.71" class="cls-12"/><g><path d="M1354.17,905.34v261.56h-397.04v229.81h370c114.67,0,207.63-92.96,207.63-207.63v-283.75h-180.58Z" class="cls-13"/><g class="cls-16"><rect width="68.43" height="68.43" x="1116.47" y="1353.26" class="cls-4" transform="translate(983.26 3182.22) rotate(-135)"/><rect width="68.43" height="68.43" x="1116.47" y="1261.37" class="cls-4" transform="translate(1048.23 3025.36) rotate(-135)"/><rect width="68.43" height="68.43" x="1116.47" y="1167.8" class="cls-4" transform="translate(1114.39 2865.63) rotate(-135)"/><line x1="1245.94" x2="1245.94" y1="1166.9" y2="1396.72" class="cls-4"/><g><line x1="1291.69" x2="1291.69" y1="1166.9" y2="1174.79" class="cls-3"/><line x1="1291.69" x2="1291.69" y1="1191.25" y2="1380.6" class="cls-1"/><line x1="1291.69" x2="1291.69" y1="1388.83" y2="1396.72" class="cls-3"/></g><circle cx="964.43" cy="1279.79" r="76.98" class="cls-4"/><circle cx="964.43" cy="1279.79" r="43.5" class="cls-4"/><circle cx="1479.8" cy="1332.41" r="75.54" class="cls-4"/><rect width="40.78" height="40.78" x="1459.41" y="1179.6" class="cls-4" transform="translate(1281.95 -694.91) rotate(45)"/><rect width="40.78" height="40.78" x="1367.11" y="1220.6" class="cls-4"/><rect width="40.78" height="40.78" x="1330.83" y="1314.85" class="cls-4" transform="translate(-548.39 1346.54) rotate(-45)"/></g><path d="M1354.17,905.34v261.56h-397.04v229.81h370c114.67,0,207.63-92.96,207.63-207.63v-283.75h-180.58Z" class="cls-12"/></g><polygon points="529.71 439.49 1054.16 135.2 916.94 439.49 529.71 439.49" class="cls-8"/><polygon points="862.24 439.49 320.09 135.2 457.31 439.49 862.24 439.49" class="cls-8"/><polygon points="529.71 439.65 700.22 18 862.24 439.65 529.71 439.65" class="cls-8"/><path d="M264.97,1166.9h0v513.64H51.13v-299.81c0-118.02,95.82-213.84,213.84-213.84Z" class="cls-8"/><g><path d="M680.15,1792.91l-123.19-58.61v-2.61l123.19-58.61c14.27-6.79,21.14-23.66,14.86-38.16-6.59-15.22-24.42-21.83-39.27-14.76l-126.92,60.38H45.67v13.6c0,89.58,72.62,162.2,162.2,162.2H488.75c34.16,0,62.45-25.11,67.43-57.88l99.57,47.37c14.85,7.06,32.68,.46,39.27-14.76s-.6-31.37-14.86-38.16Z" class="cls-13"/><g class="cls-19"><circle cx="211.95" cy="1856.34" r="127.07" class="cls-3"/><circle cx="211.95" cy="1856.34" r="90.9" class="cls-3"/><circle cx="211.95" cy="1856.34" r="54.85" class="cls-3"/><path d="M452.8,1757.87h-8.5v-8.5c0-16.13-13.08-29.21-29.21-29.21h0c-16.13,0-29.21,13.08-29.21,29.21v66.93h66.93c16.13,0,29.21-13.08,29.21-29.21s-13.08-29.21-29.21-29.21Z" class="cls-3"/></g><path d="M680.15,1792.91l-123.19-58.61v-2.61l123.19-58.61c14.27-6.79,21.14-23.66,14.86-38.16-6.59-15.22-24.42-21.83-39.27-14.76l-126.92,60.38H45.67v13.6c0,89.58,72.62,162.2,162.2,162.2H488.75c34.16,0,62.45-25.11,67.43-57.88l99.57,47.37c14.85,7.06,32.68,.46,39.27-14.76s-.6-31.37-14.86-38.16Z" class="cls-12"/></g><rect width="777.93" height="115.5" x="222.04" y="2315.97" class="cls-8"/><path d="M193.72,2431.46h834.55c44.55,0,80.72,36.17,80.72,80.72v34.78H113v-34.78c0-44.55,36.17-80.72,80.72-80.72Z" class="cls-8"/><path d="M99.83,2545.78h1022.34c44.55,0,80.72,36.17,80.72,80.72v34.78H19.11v-34.78c0-44.55,36.17-80.72,80.72-80.72Z" class="cls-8"/><rect width="58.01" height="30.32" x="599.83" y="720.16" class="cls-6"/><line x1="857.94" x2="857.94" y1="1804.97" y2="2315.97" class="cls-12"/><line x1="751.45" x2="751.45" y1="1704.33" y2="2315.97" class="cls-12"/><circle cx="637.59" cy="322.82" r="39.92" class="cls-2"/><circle cx="734.62" cy="198.54" r="49.79" class="cls-2"/><circle cx="774.54" cy="362.74" r="39.92" class="cls-2"/><circle cx="902.16" cy="242.98" r="39.92" class="cls-2"/><circle cx="942.08" cy="350.98" r="39.92" class="cls-2"/><circle cx="489.79" cy="327.26" r="39.92" class="cls-2"/><path d="M533.29,858.34c-43.5,0-78.75,35.25-78.75,78.75s35.25,78.75,78.75,78.75,78.75-35.25,78.75-78.75-35.27-78.75-78.75-78.75Zm0,124.82c-25.45,0-46.07-20.62-46.07-46.07s20.62-46.07,46.07-46.07,46.07,20.62,46.07,46.07-20.62,46.07-46.07,46.07Z" class="cls-3"/><circle cx="387.6" cy="271.82" r="39.92" class="cls-2"/><g><path d="M476.31,538.79h135.37v238.75c0,88.06-71.5,159.56-159.56,159.56h0c-88.06,0-159.56-71.5-159.56-159.56v-55c0-101.41,82.33-183.75,183.75-183.75Z" class="cls-13"/><g class="cls-18"><path d="M443.14,538.79h110.93v195.64c0,72.16-58.59,130.75-130.75,130.75h0c-72.16,0-130.75-58.59-130.75-130.75v-45.07c0-83.1,67.47-150.57,150.57-150.57Z" class="cls-4"/><path d="M414.03,538.79h89.48v157.82c0,58.21-47.26,105.47-105.47,105.47h0c-58.21,0-105.47-47.26-105.47-105.47v-36.36c0-67.04,54.43-121.46,121.46-121.46Z" class="cls-4"/><path d="M383.14,538.79h66.73v117.68c0,43.41-35.24,78.65-78.65,78.65h0c-43.41,0-78.65-35.24-78.65-78.65v-27.11c0-49.99,40.58-90.57,90.57-90.57Z" class="cls-4"/></g><path d="M476.31,538.79h135.37v238.75c0,88.06-71.5,159.56-159.56,159.56h0c-88.06,0-159.56-71.5-159.56-159.56v-55c0-101.41,82.33-183.75,183.75-183.75Z" class="cls-12"/></g><path d="M42.43,1604.71h222.44v75.84H42.43c-13.48,0-24.43-10.95-24.43-24.43v-26.98c0-13.48,10.95-24.43,24.43-24.43Z" class="cls-8"/><line x1="707.05" x2="774.58" y1="905.34" y2="905.34" class="cls-7"/><path d="M265.91,2030.35v75.83c0,115.86,93.92,209.79,209.79,209.79h145.94" class="cls-7"/><g><path d="M832.15,698.89h0c32.18,0,58.31,26.13,58.31,58.31v44.88h-82.4c-18.88,0-34.21-15.33-34.21-34.21v-10.67c0-32.18,26.13-58.31,58.31-58.31Z" class="cls-15" transform="translate(1664.29 1500.97) rotate(-180)"/><g class="cls-17"><line x1="891.41" x2="820.83" y1="790.98" y2="691.52" class="cls-10"/><line x1="877.2" x2="795.17" y1="805.19" y2="689.58" class="cls-11"/></g><path d="M832.15,698.89h0c32.18,0,58.31,26.13,58.31,58.31v44.88h-82.4c-18.88,0-34.21-15.33-34.21-34.21v-10.67c0-32.18,26.13-58.31,58.31-58.31Z" class="cls-3" transform="translate(1664.29 1500.97) rotate(-180)"/></g><g><path d="M716.15,698.89h0c32.18,0,58.31,26.13,58.31,58.31v11.6c0,18.37-14.91,33.28-33.28,33.28h-83.34v-44.88c0-32.18,26.13-58.31,58.31-58.31Z" class="cls-15" transform="translate(1432.3 1500.97) rotate(-180)"/><g class="cls-20"><line x1="775.41" x2="704.84" y1="790.98" y2="691.52" class="cls-10"/><line x1="761.21" x2="679.17" y1="805.19" y2="689.58" class="cls-11"/></g><path d="M716.15,698.89h0c32.18,0,58.31,26.13,58.31,58.31v11.6c0,18.37-14.91,33.28-33.28,33.28h-83.34v-44.88c0-32.18,26.13-58.31,58.31-58.31Z" class="cls-3" transform="translate(1432.3 1500.97) rotate(-180)"/></g><path d="M1534.76,1015.84v-52.83c0-37.59,11.22-74.31,32.23-105.48l123.36-183.04h-211.56l-27.67,55.54c-22.1,44.36-85.55,43.89-106.99-.79h0c-14.37-29.94-44.63-48.98-77.84-48.98h-54.63l113.24,178.84c19.13,30.21,29.28,65.22,29.28,100.97v55.77" class="cls-8"/><g><polygon points="1284.1 641.49 2096.57 641.49 1284.1 238 1284.1 641.49" class="cls-8"/><ellipse cx="1419.04" cy="322.54" class="cls-8" rx="55.28" ry="33.38"/><ellipse cx="1690.34" cy="557.97" class="cls-8" rx="55.28" ry="33.38"/><ellipse cx="1900.35" cy="541.22" class="cls-8" rx="55.28" ry="33.38"/><ellipse cx="1401.75" cy="557.97" class="cls-8" rx="55.28" ry="33.38"/><ellipse cx="1553.51" cy="465.17" class="cls-8" rx="79.18" ry="42.67"/><g><path d="M1219.74,641.49v64.37h532.37c27.39,87.95,109.44,151.79,206.41,151.79h26.91v143.29c0,30.69,24.88,55.57,55.57,55.57s55.59-24.88,55.59-55.57v-359.44h-876.84Z" class="cls-13"/><path d="M1219.74,641.49v64.37h532.37c27.39,87.95,109.44,151.79,206.41,151.79h26.91v143.29c0,30.69,24.88,55.57,55.57,55.57s55.59-24.88,55.59-55.57v-359.44h-876.84Z" class="cls-12"/></g><path d="M1219.74,170.27h0c35.53,0,64.37,28.84,64.37,64.37v439.04h-128.73V234.64c0-35.53,28.84-64.37,64.37-64.37Z" class="cls-8"/><circle cx="1219.74" cy="673.68" r="64.37" class="cls-8"/></g><line x1="1338.54" x2="1534.76" y1="983.16" y2="983.16" class="cls-3"/><line x1="1338.54" x2="1534.76" y1="1016.58" y2="1016.58" class="cls-3"/><path d="M1307.63,757.73l14.8,17.85c40.24,48.55,114.71,48.56,154.96,.01l18.48-22.28" class="cls-9"/><g><circle cx="452.69" cy="1144.5" r="34.71" class="cls-2"/><circle cx="522.11" cy="1144.5" r="34.71" class="cls-2"/><circle cx="591.54" cy="1144.5" r="34.71" class="cls-2"/><circle cx="660.97" cy="1144.5" r="34.71" class="cls-2"/><circle cx="730.39" cy="1144.5" r="34.71" class="cls-2"/></g></g></g></svg>